<?xml version="1.0" encoding="utf-8"?>
<!-- Generator: Adobe Illustrator 16.0.0, SVG Export Plug-In . SVG Version: 6.00 Build 0)  -->
<!DOCTYPE svg PUBLIC "-//W3C//DTD SVG 1.1//EN" "http://www.w3.org/Graphics/SVG/1.1/DTD/svg11.dtd">
<svg version="1.1" id="Layer_1" xmlns="http://www.w3.org/2000/svg" xmlns:xlink="http://www.w3.org/1999/xlink" x="0px" y="0px"
	 width="1920px" height="1080px" viewBox="0 0 1920 1080" enable-background="new 0 0 1920 1080" xml:space="preserve">
<path fill="#A8B897" d="M468.093,108.064c-6.717-3.353-13.444-6.717-12.318-3.353c1.119,3.353,1.119,2.235,5.601,6.718
	c4.482,4.482,4.482,4.482,8.961,3.364C474.819,113.676,468.093,108.064,468.093,108.064 M488.263,139.441
	c-3.361-4.482-5.6-10.088-8.962-11.206c-3.365-1.118-6.72-2.236-10.082-1.118c-3.361,1.117-8.961,0-6.726,4.481
	c2.245,4.482,5.6,15.681,5.6,20.171c0,4.476,4.488,8.958,10.088,13.442c5.6,4.481,10.082,3.359,10.082,3.359
	s2.244,3.359,7.843,6.723c5.6,3.359,12.324,4.482,12.324,4.482s-1.117-3.366-3.362-5.601c-2.244-2.248-12.326-2.248-11.206-8.963
	c1.123-6.724,7.844-7.841,10.09-7.841c2.233,0,0-5.601-4.482-8.966C494.985,145.04,488.263,139.441,488.263,139.441
	 M527.473,184.252c0,0-4.479,3.364,1.121,4.482c5.606,1.118,14.567,4.481,13.45-1.118c-1.126-5.601,0-7.841-4.481-7.841
	c-4.489,0-6.728-1.124-7.845-3.366c-1.124-2.235-4.482-6.717-4.482-10.083c0-3.357,10.082-7.84,6.72-12.323
	c-3.361-4.482-5.6-5.6-8.961-5.6c-3.365,0-4.482,4.482-4.482,4.482c1.117,6.717,1.117,12.324-2.239,13.44
	c-3.361,1.119-8.961,2.242-4.482,7.848c4.482,5.601,8.964,5.601,10.082,7.841C522.995,184.252,527.473,184.252,527.473,184.252
	 M577.894,300.773c1.118,4.482-2.244,7.841,2.238,11.2c4.479,3.365,10.085,5.605,8.962,8.97c-1.121,3.354,1.124,8.959,1.124,8.959
	s6.721-8.959,12.32-8.959c5.606,0,6.723,10.077,6.723,16.8c0,6.723,0,6.723,3.366,7.841c3.361,1.118,8.961,3.364,8.961,3.364
	s8.96-6.723,6.717-19.046c-2.235-12.324-3.356-17.929-3.356-17.929s-13.444-5.6-16.805-11.2
	c-3.362-5.601-13.444-13.447-13.444-8.964s5.601,13.447,2.239,16.806c-3.361,3.359-6.721-3.358-7.843-7.841
	c-1.121-4.482-5.6-12.324-7.838-11.206C579.012,290.69,576.772,296.29,577.894,300.773 M619.311,509.449
	c0.709,0.525,1.155,0.824,1.155,0.824S620.946,509.786,619.311,509.449 M590.217,504.673c1.121,6.723-3.361,12.329-1.124,15.688
	c2.244,3.359,3.361,11.199,5.605,3.359c2.239-7.847,2.239-15.682,5.601-16.805c3.361-1.117,8.962-3.358,6.727,0
	c-2.244,3.359-13.45,12.323-6.727,12.323c6.727,0,7.844-10.083,14.562-10.083c2.256,0,3.62,0.129,4.451,0.294
	c-1.273-0.938-3.415-2.618-5.567-4.775c-3.362-3.359-10.083-5.6-8.962-10.076c1.119-4.482,3.362-6.729,2.244-10.088
	c-1.126-3.363-5.608-12.329-5.608-12.329s-1.118,8.964-5.6,14.57C591.338,492.35,589.094,497.95,590.217,504.673 M608.144,272.761
	c-4.482-7.841-5.606-13.445-2.244-16.799c3.362-3.364,6.727-8.971,12.325-6.729c5.601,2.248,8.962,4.482,6.723,0
	c-2.245-4.476-10.088-12.323-15.688-10.076c-5.6,2.235-2.235,6.717-6.723,6.717c-4.482,0-8.96,0-8.96,3.359
	c0,3.365-1.121,8.964,1.123,13.446c2.239,4.482,3.356,16.806,3.356,16.806c3.362,3.365,5.606-2.241,11.205,4.482
	c5.6,6.723,16.809,23.522,19.044,20.17C630.549,300.773,612.625,280.602,608.144,272.761 M582.373,285.084
	c3.364,0,4.482-6.717,2.238-14.564c-2.238-7.842-4.479-13.441-7.839-15.689c-3.361-2.234-8.967-3.352-14.566-3.352
	c-5.602,0-12.327-2.248-7.845-3.364c4.482-1.124,15.689,0,15.689-4.482c0-4.476-5.6-6.723,1.117-10.082
	c6.727-3.357,11.206-4.482,14.57-2.241c3.355,2.241,7.838,4.482,12.317,0c4.482-4.482,3.362-8.958-1.119-12.323
	c-4.482-3.365-8.963-6.723-12.325-7.847c-3.355-1.119-1.118-4.477-2.238-10.077c-1.118-5.6-3.361-5.6-7.841-5.6
	c-4.482,0-5.601,1.118-5.601,7.835c0,6.723-11.208,22.411-16.808,30.252c-5.601,7.841-12.325,12.323-3.361,21.282
	c8.961,8.965,14.561,12.33,22.405,15.689C579.012,273.884,582.373,285.084,582.373,285.084 M573.411,151.771
	c-1.124,2.234-3.361,5.6,1.121,6.717c4.48,1.118,11.206,1.118,12.323-2.241c1.118-3.358-4.482-4.476-6.723-7.842
	c-2.238-3.364-5.6-10.087-6.721-7.846C572.287,142.799,573.411,151.771,573.411,151.771 M566.688,102.464
	c2.245,4.482,4.48,13.447,8.962,16.812c4.482,3.358,8.961,1.117,3.362-4.481c-5.601-5.601-12.324-15.688-13.445-19.047
	c-1.117-3.358-4.479-3.358-4.479-3.358C562.207,97.988,564.45,97.988,566.688,102.464 M564.45,150.64
	c0-6.717-1.127-17.923-4.482-15.681c-3.363,2.241-5.606,3.359-3.363,10.082c2.239,6.73,2.239,10.082,4.482,8.964
	C563.323,152.888,564.45,150.64,564.45,150.64 M539.801,155.122c4.479,0,8.958-1.117,7.842-5.599
	c-1.119-4.482-1.119-4.482-4.482-5.601c-3.36-1.124-6.723,0-6.723,0C536.438,148.404,535.319,155.122,539.801,155.122
	 M544.28,166.328c-1.119-6.723-6.718-5.599-6.718-5.599c-2.243,3.358-4.487,8.964-1.125,10.082
	C539.801,171.929,545.4,173.045,544.28,166.328 M508.431,148.404c0,0,6.72-1.123,7.843-4.482c1.122-3.364-4.482-5.605-8.961-7.841
	c-4.488-2.247-5.606,3.359-4.488,5.6C503.951,143.922,508.431,148.404,508.431,148.404 M494.985,110.312c0,0,5.601-5.6,5.601-10.083
	c0-4.482-1.118-6.723-5.601-3.364c-4.479,3.364-6.723,6.723-6.723,6.723l4.479,1.124L494.985,110.312z M544.28,111.43
	c-4.479-2.235-13.443-11.201-22.405-11.201c-7.846,0-7.846,5.6-11.207,7.835c-3.353,2.247-8.962,8.971-12.323,12.329
	c-3.359,3.359-3.359,7.841-1.121,8.959c2.245,1.13,2.245-1.118,4.482-1.118c2.245,0,1.118,2.247,4.479,3.365
	c3.368,1.117-1.118-4.482-1.118-7.847c0-3.359,5.602,0,5.602,0s1.123,7.847,3.36,10.082c2.247,2.247,8.965,2.247,11.207,2.247
	c2.237,0,4.482-2.247,3.36-5.6c-1.123-3.365-4.483-8.964-6.721-12.33c-2.247-3.359-3.364-8.958-2.247-11.205
	c1.128-2.235,7.845,2.247,7.845,5.601c0,3.365,0,7.847,3.36,11.206c3.366,3.364,7.845,11.206,7.845,11.206s3.363-3.359,4.482-7.841
	c1.117-4.482,6.714-5.6,8.962-7.841C554.361,117.029,548.76,113.676,544.28,111.43 M1773.305,911.364
	c-4.483-6.723-12.316-13.44-11.199-16.807c1.124-3.357,8.965-13.438,8.965-19.047c0-5.6-4.483-10.083-6.725-15.682
	c-2.24-5.6-1.116-10.082-5.598-15.688c-4.484-5.601,1.116-6.717-4.484-13.447c-5.6-6.718-7.84-10.077-12.322-12.323
	c-4.482-2.235-2.241-6.718,0-13.44c2.24-6.724,3.357-11.199,2.24-19.047c-1.124-7.84,0-780.883,0-780.883H554.361l1.127,6.717
	l4.479,12.323c0,0-14.568-4.481-15.69,1.119c-1.117,5.606,8.964,6.723,8.964,6.723s0,6.723-1.119,8.964
	c-1.119,2.235-11.205-2.241-1.119,8.964c10.083,11.205,11.2,11.205,11.2,15.687c0,4.476,0,10.076,7.844,8.959
	c7.844-1.124,12.323-5.605,8.96,0c-3.361,5.6-3.361,6.718-5.6,14.564c-2.246,7.841,4.482,16.805,4.482,16.805
	s2.239-14.564,4.48-16.805c2.238-2.235,8.964-11.206,15.681-5.6c6.727,5.6,7.844,8.964,5.606,13.441
	c-2.245,4.482,0,11.201,1.12,16.812c1.119,5.6,10.08,15.676,13.444,21.283c3.362,5.6-1.121,17.929-1.121,17.929l-13.443-5.606
	c0,0-1.124,14.564,1.12,17.93c2.244,3.358,7.844,10.083,6.724,13.441c-1.125,3.366,0,11.2-4.48,13.447
	c-4.488,2.234-7.844-4.481-11.208-8.965c-3.362-4.482-4.48-19.046-6.723-15.688c-2.239,3.364-3.355,10.081-3.355,10.081
	l-4.482-12.316c0,0,0-5.606-3.362-4.482c-3.361,1.118-7.843,7.84-11.205,7.84c-3.364,0-6.72,7.841-6.72,7.841l8.963-5.6
	c0,0,2.235,4.482,1.119,7.841c-1.119,3.366-6.727,13.447-6.727,13.447l7.843,1.117c0,0,10.088-4.482,12.327-6.717
	c2.243-2.248,6.723-3.365,6.723,0c0,3.353,2.238,11.2,3.359,14.564c1.123,3.359,7.841,5.6,7.841,5.6l5.608-5.6
	c0,0-1.126,8.959,2.235,10.076c3.365,1.124,7.843,3.365,12.327,5.605c4.482,2.241,12.323,3.359,12.323,3.359l-6.723,26.887
	c0,0,3.361,8.971,2.243,21.288c-1.126,12.323,0,21.289,7.843,28.012c7.839,6.717,16.8,15.683,16.8,15.683s7.843-8.966,13.443-4.482
	c5.606,4.482,5.606,7.846,5.606,15.688s5.601,12.323,0,13.446c-5.606,1.118-10.088,4.476-10.088,0c0-4.481,2.244-7.847,2.244-11.205
	c0-3.357-4.482-11.205-4.482-11.205s1.121,8.964-3.361,14.564c-4.482,5.606-17.925,7.848-19.043,11.207
	c-1.119,3.364-1.119,16.805-5.606,23.521c-4.482,6.73-14.562,15.689-14.562,21.289c0,5.606,7.844,15.689,4.479,21.288
	c-3.361,5.6-11.199,10.088-11.199,14.571c0,4.482,0,6.718,7.837,12.317c7.844,5.606,21.287,11.205,8.961,14.572
	c-12.317,3.366-14.561,3.366-12.317,11.198c2.238,7.843,6.717,23.531,6.717,23.531v7.847c0,0,3.365,5.601,4.482,8.959
	c1.117,3.359,5.6,11.2,4.482,14.564c-1.121,3.365-8.964,10.083-14.564,12.324c-5.6,2.241-11.205,3.364-10.08,5.599
	c1.118,2.247,10.08,15.688,6.719,16.807c-3.362,1.122-4.482-2.242-11.207-4.477c-6.721-2.248-16.799-14.564-16.799-14.564
	s3.355,7.835,1.118,13.442c-2.244,5.6-10.083,25.77-13.444,29.127c-3.361,3.359-13.443,17.93-19.05,22.412
	c-5.601,4.482-12.317,4.482-17.923-3.364c-5.604-7.841-12.328-20.165-12.328-20.165l-1.116,19.047l-5.602-15.688
	c0,0-8.965,1.117-8.965,10.081c0,8.966-3.36,25.771-3.36,25.771s-1.12-5.598-2.243-10.081c-1.12-4.482,0-16.806,0-16.806
	s-5.602,5.6-10.083,12.323c-0.611,0.923-1.13,1.88-1.589,2.858c-1.656,6.667-2.888,12.823-2.888,12.823s0.005-6.674,2.888-12.823
	c1.501-6.056,3.356-12.514,4.954-15.182c3.364-5.601,7.846-2.247,7.846-6.724c0-4.483,4.48-3.359,10.079-6.725
	c5.601-3.358,10.083,0,6.728-8.957c-3.362-8.964-2.243-7.847-3.362-14.57c-1.12-6.719-1.12-10.083,4.479-16.801
	c5.602-6.723,4.483-22.412,4.483-22.412s10.082,7.841,7.844,15.688c-2.244,7.841-8.964,23.524-8.964,28.011
	c0,4.482,2.238,12.318,7.837,16.801c5.607,4.48,6.728-1.119,7.845-4.482c1.126-3.352,5.604-8.959,5.604-11.199
	c0-2.242-5.604-7.841-4.479-13.442c1.118-5.606,8.962-22.417,15.679-25.771l8.963-4.482c0,0-5.6,10.082-8.963,15.681
	c-3.362,5.606-3.362,15.688-3.362,15.688s7.844,0,13.443,3.36c5.606,3.358,11.205,7.846,11.205,4.481
	c0-3.357,5.6-7.842,2.245-14.565c-3.362-6.723,0-11.199,2.239-20.164c2.243-8.964,2.243-11.205,4.479-20.17
	c2.244-8.958,7.843-23.522,7.843-23.522l-8.962-4.482c0,0-1.118-6.723-1.118-8.963c0-2.241-1.127-10.082-1.127-10.082
	s-6.718,10.082-15.678,14.563c-8.964,4.482-13.444,3.359-13.444,3.359s19.043-13.45,20.162-22.408
	c1.123-8.964-2.239-15.682-2.239-22.405c0-6.73-4.479-8.965-4.479-8.965l-3.365-7.847c0,0,10.082,10.082,12.325,10.082
	c2.239,0,5.601-2.234,5.601,0c0,2.247,3.361,7.847,1.118,8.971c-2.238,1.117-4.479-2.241-3.355,5.601c1.118,7.841,0,15.681,0,15.681
	s8.961-4.482,10.082,0c1.118,4.482,6.717,6.724,6.717,6.724s-1.118-7.84-2.239-14.565c-1.118-6.722-1.118-12.323-1.118-15.681
	v-7.847c0,0-5.606,1.118-6.727-3.364c-1.118-4.476-4.479-7.835-2.235-10.076c2.235-2.241,17.923,4.476,17.923,0
	c0-4.482-6.723-14.564-6.723-14.564s5.6,0,2.244-5.606c-3.365-5.601-4.482-4.482-4.482-11.201c0-6.723-5.605-13.446-7.843-15.687
	c-2.243-2.235-10.082-10.083-10.082-10.083s6.721,10.083,6.721,20.171c0,10.082-1.121,14.564-1.121,14.564
	s-3.362-11.213-6.723-8.965c-3.362,2.235-16.805,19.042-23.526,29.129c-6.723,10.082-1.118,21.287-8.962,25.77
	c-7.843,4.483-12.325,7.834-12.325,7.834s-7.841,3.365-13.441,6.731c-5.603,3.359-16.81,11.199-21.288,15.689
	c-4.481,4.477-14.565,20.158-17.925,25.757c-3.363,5.605-10.089,13.453-8.962,22.411c1.116,8.964,4.479,14.563,11.201,12.323
	c6.723-2.241,17.925-12.323,26.893-15.681c8.961-3.365,15.681-8.965,17.922-12.324c2.238-3.364-5.606,13.44-19.05,21.282
	c-13.445,7.847-32.49,14.564-36.967,15.688c-4.481,1.124-12.327,5.6-12.327-2.241c0-7.847,8.964-31.371,13.444-39.21
	c4.483-7.847,17.927-32.495,25.771-40.336c7.845-7.841,22.406-24.647,22.406-31.376c0-6.717,6.724-13.442,5.601-16.8
	c-1.118-3.359-3.356-17.929-3.356-17.929s5.601,12.323,7.838,12.323c2.242,0,6.724-20.158,6.724-20.158s2.245,16.799,1.12,22.405
	c-1.12,5.6-7.844,24.64-7.844,24.64s6.724,6.73,10.086-1.118c3.364-7.84,6.721-19.04,6.721-24.64c0-5.606,3.361-10.088,3.361-10.088
	s10.082-1.118,10.082-8.964c0-7.84,1.125-8.964,1.125-8.964s3.355,5.6,7.837,2.247c4.482-3.365-1.118-4.482-2.238-8.964
	c-1.119-4.488,2.238-7.841-2.244-7.841c-4.48,0-7.835,6.718-6.718-1.123s5.6-7.841,2.238-12.324c-3.355-4.482-5.6-2.241-5.6-8.959
	v-10.088c0,0,10.08,6.723,10.08,4.482c0-2.241,2.244-6.724,0-13.446c-2.235-6.718-1.118-12.324-3.355-12.324
	c-2.245,0-11.207,2.242-12.323,7.841c-1.121,5.599-1.121,12.33-1.121,12.33s-1.123-7.847-5.604-12.33
	c-4.48-4.482-4.48-7.841-4.48-7.841s14.568-12.323,7.841-13.446c-6.716-1.117-15.684,3.365-19.043,6.73
	c-3.362,3.358-8.96,5.6-3.362,12.323c5.601,6.718,11.201,11.2,8.961,16.8c-2.24,5.605-11.207,10.087-11.207,10.087
	s3.366-10.087-1.116-16.805c-4.482-6.73-5.599-11.207-6.72-14.564c-1.123-3.364-15.687-8.97-16.806-1.123
	c-1.125,7.841,0,24.646,0,24.646s-5.606-7.841-7.844-17.923c-2.241-10.082-1.117-11.205-6.723-16.806
	c-5.599-5.6-5.599-10.082-12.328-10.082c-6.714,0-19.042,8.964-29.121,10.082c-10.088,1.117-23.533-2.241-29.133-3.365
	c-5.6-1.117-14.562-1.117-22.406-3.359c-7.843-2.241-8.964-2.241-16.805-3.359c-7.843-1.124-5.602-7.84-20.17-7.84
	c-14.562,0-44.811,0-51.537-2.247c-6.717-2.235-24.643-11.202-32.488-17.924c-7.843-6.717-12.323-8.964-21.287-12.323
	c-8.962-3.359-13.444-1.118-17.922-3.359c-4.481-2.241-24.65-10.088-30.249-17.929c-5.6-7.841-14.565-12.317-17.927-14.564
	c-3.362-2.235-11.205-1.117-11.205-1.117s-8.962-7.848-16.806-7.848c-7.837,0-2.238,8.964,1.125,12.33
	c3.355,3.359,7.837,5.6,7.837,10.082c0,4.477-2.238,5.601-3.355,8.958c-1.127,3.365,1.118,6.73-2.244,11.207
	c-3.361,4.482-5.6-3.359-4.481,5.6c1.121,8.964-4.48,15.688-4.48,15.688l-2.239,5.601l6.718,22.406c0,0-4.48,38.093,15.688,62.746
	c20.161,24.64,22.406,32.487,26.888,38.088c4.482,5.605,5.601,11.204,5.601,11.204s11.205,44.811,13.443,76.188
	c2.244,31.371,10.088,47.051,15.688,56.017c5.6,8.963,13.444,61.623,13.444,87.387c0,25.77,1.118,29.128,1.118,29.128l6.727-7.841
	c0,0-6.727-22.412,2.235-24.646c8.964-2.248,21.288,2.233,22.414,8.958c1.118,6.729,1.118,7.847,1.118,7.847s10.083,0,15.682,2.235
	c5.606,2.246,25.767,5.605,25.767,5.605s-24.643,6.723-34.729,11.2c-10.082,4.481-20.165,16.805-20.165,16.805
	s-1.123-12.323-7.844-12.323c-6.723,0-2.243,8.966-1.118,21.289c1.118,12.324,0,30.254,0,30.254s11.201,3.359,15.682,5.601
	c4.48,2.24,5.606,6.724,7.841,3.358c2.245-3.358,2.245-7.841,6.727-5.6s11.201,1.123,11.201-1.118s2.243-5.605,4.481-2.241
	c2.245,3.359,7.844,6.724,7.844,6.724l3.362,5.601c0,0-17.926,7.84-19.05,10.081c-1.12,2.241-5.6,8.957-5.6,8.957l5.6,11.213
	l-8.96-8.964c0,0,0,5.599,1.123,10.081c1.118,4.483,8.962,10.09,10.082,15.689c1.119,5.6-1.12,8.957-4.482,11.198
	c-3.362,2.242-6.723,10.088-6.723,10.088s-4.482-12.329-6.721-6.729c-2.243,5.6-2.243,13.447,0,16.807
	c2.239,3.364,0,14.564,4.482,11.205c4.479-3.357,5.6-4.476,5.6-4.476s-1.12,5.6-8.964,8.959
	c-7.841,3.358-12.323,3.358-12.323-16.807c0-20.17,4.482-36.975,2.244-44.816c-2.244-7.835-5.606-16.8-5.606-16.8
	s-3.359,16.8-3.359,36.971c0,20.164,0,52.651-3.361,61.616c-3.362,8.964-7.843,14.569-1.118,14.569
	c6.717,0,10.083-12.329,16.8-8.965c6.723,3.359,10.088,22.406,24.65,21.288c14.566-1.123,29.131-19.053,35.849-19.053
	c6.727,0,10.088,6.729,17.931,11.213c7.839,4.476,15.683,4.476,20.162,4.476c4.482,0,19.05-2.241,22.408,5.601
	c3.362,7.847,11.205,19.045,19.051,23.531c7.841,4.481,10.079,1.122,21.286,0c11.201-1.125,30.252-2.245,51.537,17.928
	c21.283,20.164,24.643,34.729,31.37,48.176c6.717,13.441,3.361,13.441,5.6,25.771c2.243,12.317,0,19.04,1.117,21.288
	c1.126,2.234,10.088,14.56,6.727,24.639c-3.361,10.09,0,22.406,10.082,29.13c10.084,6.723,35.849,11.206,45.935,17.93
	c10.082,6.722,7.843,7.841,16.809,6.722c8.961-1.123,15.679,1.119,20.161,4.484c4.484,3.352,13.445,5.6,20.168,0
	c6.728-5.607,14.563-6.725,26.887-10.09c12.327-3.358,34.732-15.681,40.339-21.286c5.599-5.601,10.082-14.565,26.887-13.442
	c16.805,1.125,17.925,0,31.369-1.123c13.444-1.117,20.167-6.718,28.006-3.359c7.843,3.359,7.843,8.959,24.648,7.842
	c16.805-1.116,24.197,1.117,31.369,3.365c17.923,5.6,5.606,23.521,15.685,24.646c10.083,1.124,17.926-13.446,32.49-13.446
	c14.57,0,22.414,4.481,29.132,1.124c6.726-3.365,39.21-14.571,43.689-19.048c4.482-4.482,5.604-11.204,24.65-8.964
	c19.049,2.241,3.365,16.806,36.972,12.323c33.61-4.482,58.265-24.646,81.786-31.37c23.536-6.723,76.188-16.806,76.188-16.806
	s2.235-22.405,20.164-20.164c17.93,2.241,10.089,6.723,17.93,4.476c7.841-2.234,36.97-7.834,47.059-8.958
	c10.075-1.116,30.239,2.241,41.452-6.717c11.198-8.965,20.164-14.571,20.164-14.571h440.295
	C1776.669,936.011,1777.793,918.088,1773.305,911.364 M547.643,561.813c0,0,1.117,2.241,2.236,4.483
	c1.126,2.24,7.843,0,12.327-1.118c4.481-1.124,2.243-3.365-5.602-7.848C548.763,552.85,552.123,558.448,547.643,561.813
	 M549.879,570.777c-4.479,1.118-6.718,5.602-6.718,11.207c0,5.6,6.718,5.6,6.718,5.6s2.244-4.482,4.482-7.848
	C556.605,576.379,555.736,569.312,549.879,570.777 M570.05,548.367c-2.245-2.241-11.206-5.6-11.206-5.6s6.723,13.447,8.961,16.812
	c2.243,3.353,3.36,0,5.606-2.249C575.65,555.097,572.287,550.614,570.05,548.367"/>
</svg>
