<?xml version="1.0" encoding="utf-8"?>
<!-- Generator: Adobe Illustrator 17.0.0, SVG Export Plug-In . SVG Version: 6.00 Build 0)  -->
<!DOCTYPE svg PUBLIC "-//W3C//DTD SVG 1.1//EN" "http://www.w3.org/Graphics/SVG/1.1/DTD/svg11.dtd">
<svg version="1.1" id="Layer_1" xmlns="http://www.w3.org/2000/svg" xmlns:xlink="http://www.w3.org/1999/xlink" x="0px" y="0px"
	 width="240.029px" height="112.794px" viewBox="0 0 240.029 112.794" enable-background="new 0 0 240.029 112.794"
	 xml:space="preserve">
<g id="K9e9Fh.tif">
	<g>
		<g>
			<path fill="#FFFFFF" d="M0,72.666c0.445-0.695,0.981-1.371,1.827-1.462c0.965-0.104,1.83-0.452,2.732-0.73
				c0.339-0.105,0.749-0.033,1.117,0.018c2.218,0.31,4.435,0.634,6.651,0.962c2.608,0.386,5.211,0.798,7.822,1.164
				c0.895,0.125,1.805,0.154,2.709,0.204c0.21,0.012,0.425-0.068,0.73-0.123c-0.969-0.265-1.854-0.409-2.652-0.754
				c-0.788-0.341-1.497-0.87-2.221-1.346c-0.311-0.205-0.284-0.451-0.003-0.73c0.629-0.624,1.365-0.944,2.248-0.964
				c2.684-0.058,5.334,0.146,7.929,0.89c2.203,0.632,4.293,0.143,6.369-0.646c1.486-0.565,3.035-0.855,4.645-0.774
				c1.698,0.085,3.224,0.643,4.59,1.625c1.59,1.144,3.182,2.289,4.715,3.506c1.801,1.43,3.359,3.108,4.725,4.962
				c1.725,2.339,3.695,4.464,5.692,6.568c0.758,0.799,1.472,1.639,2.282,2.545c-0.24,0.014-0.392,0.03-0.543,0.03
				c-4.867,0.005-9.734,0.005-14.601,0.021c-0.343,0.001-0.533-0.114-0.705-0.398c-0.828-1.368-1.873-2.554-3.156-3.505
				c-1.494-1.108-3.184-1.785-5.024-2.058c-0.715-0.106-1.442-0.189-2.164-0.193c-3.316-0.02-6.632-0.001-9.947-0.012
				c-1.615-0.005-3.211-0.233-4.647-0.985c-1.646-0.862-3.419-1.26-5.189-1.711c-2.76-0.704-5.528-1.384-8.259-2.187
				c-1.906-0.56-3.757-1.31-5.633-1.974c-0.278-0.098-0.553-0.231-0.841-0.273C0.632,74.251,0.227,73.987,0,73.458
				C0,73.194,0,72.93,0,72.666z"/>
			<path fill="#FFFFFF" d="M13.932,70.199c2.401-6.213,6.783-10.019,13.183-11.516c0.667-0.112,2.742-0.263,3.676-0.328
				c1.048,0.04,0.984-0.024,2.515,0.25c2.983,0.556,5.676,1.704,8.034,3.602c2.353,1.894,4.103,4.226,5.301,7.133
				c-0.682-0.4-1.253-0.738-1.827-1.071c-1.491-0.866-3.119-1.223-4.822-1.246c-1.834-0.025-3.596,0.375-5.308,1.014
				c-1.165,0.435-2.347,0.806-3.61,0.664c-0.635-0.072-1.268-0.204-1.887-0.369c-1.941-0.518-3.924-0.672-5.92-0.759
				c-1.156-0.05-2.312-0.137-3.429,0.238c-1.299,0.437-2.342,1.181-2.83,2.539c-0.037,0.102-0.201,0.238-0.291,0.228
				C15.825,70.473,14.933,70.34,13.932,70.199z"/>
		</g>
		<path fill="#FFFFFF" d="M33.31,56.668"/>
	</g>
</g>
<g id="tuh4rI.tif">
	<g>
		<g>
			<path fill="#FFFFFF" d="M28.465,59.949c-0.273-0.358-0.534-0.719-0.712-1.132c-0.207-0.481-0.398-0.969-0.64-1.434
				c-0.034-0.065-0.05-0.159-0.142-0.163c-0.147-0.007-0.182-0.117-0.233-0.219c-0.065-0.13-0.09-0.271-0.129-0.409
				c-0.044-0.157-0.017-0.361-0.266-0.375c-0.041-0.002-0.056-0.053-0.06-0.089c-0.055-0.465-0.244-0.903-0.278-1.372
				c-0.007-0.095-0.005-0.19-0.011-0.285c-0.004-0.066,0-0.159-0.061-0.182c-0.175-0.065-0.136-0.204-0.136-0.331
				c0-0.381,0.018-0.76-0.026-1.143c-0.034-0.299,0.021-0.609,0.031-0.914c0.003-0.088,0.032-0.19-0.122-0.208
				c-0.093-0.011-0.048-0.11-0.033-0.167c0.078-0.286,0.11-0.58,0.153-0.872c0.016-0.107,0.049-0.234-0.141-0.236
				c-0.089-0.001-0.084-0.093-0.076-0.157c0.026-0.198,0.067-0.394,0.088-0.593c0.022-0.203,0.079-0.4-0.068-0.602
				c-0.101-0.139-0.026-0.335-0.019-0.505c0.003-0.076,0.023-0.151,0.034-0.226c0.006-0.04-0.001-0.097-0.033-0.101
				c-0.25-0.031-0.139-0.216-0.124-0.328c0.05-0.368,0.131-0.732,0.189-1.1c0.125-0.783,0.183-1.572,0.175-2.365
				c0-0.036-0.019-0.072-0.032-0.118c-0.121,0.038-0.196,0.119-0.273,0.2c-0.473,0.504-0.857,1.071-1.19,1.674
				c-0.123,0.223-0.215,0.469-0.461,0.6c-0.082,0.044-0.093,0.142-0.122,0.221c-0.084,0.233-0.151,0.474-0.243,0.704
				c-0.205,0.514-0.507,0.982-0.707,1.499c-0.024,0.061-0.058,0.143-0.125,0.148c-0.208,0.015-0.222,0.167-0.255,0.318
				c-0.099,0.458-0.258,0.895-0.462,1.295c-0.038,0.042-0.066,0.031-0.092,0.021c-0.213-0.083-0.25-0.074-0.295,0.139
				c-0.057,0.273-0.141,0.535-0.255,0.787c-0.049,0.109-0.07,0.275-0.271,0.164c-0.06-0.033-0.088,0.058-0.098,0.111
				c-0.043,0.216-0.118,0.422-0.202,0.624c-0.044,0.105-0.107,0.202-0.167,0.299c-0.018,0.029-0.069,0.072-0.083,0.065
				c-0.246-0.126-0.239,0.096-0.286,0.216c-0.064,0.16-0.14,0.314-0.224,0.463c-0.061,0.107-0.128,0.243-0.245,0.269
				c-0.222,0.05-0.3,0.214-0.386,0.385c-0.091,0.179-0.173,0.363-0.279,0.532c-0.067,0.107-0.096,0.317-0.319,0.182
				c-0.036-0.022-0.096,0.036-0.128,0.092c-0.098,0.174-0.205,0.344-0.31,0.515c-0.091,0.148-0.181,0.291-0.393,0.277
				c-0.131-0.009-0.208,0.092-0.266,0.191c-0.17,0.29-0.369,0.55-0.649,0.748c-0.096,0.068-0.151,0.194-0.221,0.296
				c-0.054,0.079-0.084,0.184-0.155,0.238c-0.309,0.237-0.414,0.606-0.614,0.912c-0.063,0.096-0.093,0.247-0.272,0.14
				c-0.065-0.039-0.119,0.035-0.157,0.092c-0.706,1.07-1.32,2.185-1.652,3.435c-0.049,0.184-0.1,0.367-0.154,0.55
				c-0.007,0.025-0.032,0.046-0.048,0.067c-0.085-0.023-0.086-0.094-0.098-0.157c-0.157-0.813-0.181-1.629-0.075-2.45
				c0.034-0.263,0.096-0.518,0.033-0.792c-0.051-0.223,0.044-0.452,0.085-0.676c0.028-0.15,0.064-0.298,0.02-0.453
				c-0.031-0.107,0.018-0.205,0.052-0.305c0.06-0.181,0.12-0.363,0.08-0.56c-0.006-0.028-0.011-0.06-0.002-0.085
				c0.177-0.471,0.154-0.994,0.391-1.45c0.087-0.167,0.156-0.343,0.155-0.543c-0.001-0.146,0.102-0.263,0.175-0.386
				c0.107-0.179,0.228-0.352,0.179-0.584c-0.02-0.094,0.032-0.188,0.08-0.271c0.156-0.271,0.304-0.538,0.393-0.847
				c0.094-0.33,0.325-0.6,0.551-0.861c0.057-0.066,0.167-0.111,0.045-0.225c-0.051-0.047,0.033-0.095,0.068-0.134
				c0.242-0.27,0.484-0.539,0.728-0.806c0.07-0.076,0.164-0.134,0.096-0.265c-0.036-0.07,0.031-0.126,0.067-0.178
				c0.129-0.189,0.282-0.358,0.449-0.515c0.147-0.137,0.286-0.284,0.387-0.456c0.232-0.394,0.551-0.704,0.907-0.981
				c0.106-0.082,0.204-0.168,0.258-0.299c0.052-0.128,0.165-0.211,0.276-0.283c0.824-0.536,1.551-1.203,2.373-1.741
				c0.055-0.036,0.115-0.077,0.15-0.131c0.212-0.324,0.54-0.502,0.856-0.695c0.22-0.134,0.43-0.279,0.63-0.445
				c0.377-0.313,0.825-0.51,1.265-0.716c0.164-0.077,0.333-0.143,0.499-0.218c0.074-0.033,0.159-0.058,0.195-0.157
				c-0.122-0.042-0.218,0.008-0.314,0.041c-1.13,0.386-2.218,0.864-3.228,1.506c-0.222,0.141-0.427,0.326-0.723,0.298
				c-0.077-0.007-0.133,0.069-0.193,0.114c-0.136,0.105-0.266,0.217-0.404,0.319c-0.132,0.098-0.272,0.185-0.449,0.108
				c-0.085-0.037-0.145,0.021-0.208,0.061c-0.153,0.098-0.302,0.201-0.456,0.296c-0.11,0.067-0.205,0.152-0.365,0.102
				c-0.104-0.033-0.214,0.064-0.304,0.137c-0.171,0.138-0.354,0.259-0.553,0.354c-0.05,0.024-0.13,0.081-0.155,0.035
				c-0.109-0.194-0.228-0.054-0.337-0.02c-0.145,0.046-0.284,0.11-0.426,0.165c-0.127,0.049-0.24,0.151-0.397,0.047
				c-0.043-0.029-0.144,0.024-0.216,0.046c-0.219,0.066-0.435,0.141-0.656,0.202c-0.104,0.029-0.221,0.079-0.269-0.101
				c-0.023-0.087-0.116-0.029-0.173-0.01c-0.351,0.12-0.702,0.244-1.052,0.368c-0.089,0.032-0.17,0.089-0.239-0.043
				c-0.04-0.077-0.129-0.059-0.206-0.033c-0.153,0.052-0.309,0.097-0.463,0.147c-0.161,0.051-0.31,0.116-0.495,0.058
				c-0.135-0.042-0.274,0.056-0.402,0.12c-0.111,0.054-0.216,0.115-0.352,0.081c-0.118-0.029-0.222,0.041-0.326,0.085
				c-0.652,0.276-1.243,0.661-1.846,1.025c-0.219,0.132-0.429,0.279-0.646,0.422c-0.045-0.071,0.028-0.112,0.06-0.16
				c0.393-0.595,0.863-1.114,1.462-1.509c0.199-0.131,0.374-0.294,0.539-0.466c0.093-0.097,0.197-0.183,0.157-0.342
				c-0.022-0.086,0.056-0.117,0.107-0.151c0.111-0.074,0.228-0.139,0.344-0.205c0.067-0.038,0.165-0.074,0.175-0.139
				c0.036-0.241,0.237-0.276,0.404-0.355c0.077-0.036,0.165-0.053,0.24-0.092c0.117-0.062,0.287-0.058,0.296-0.261
				c0.003-0.071,0.108-0.101,0.177-0.13c0.132-0.055,0.268-0.1,0.401-0.151c0.061-0.024,0.153-0.017,0.177-0.08
				c0.068-0.18,0.238-0.171,0.374-0.218c0.188-0.066,0.383-0.116,0.572-0.18c0.08-0.027,0.18-0.056,0.209-0.139
				c0.057-0.167,0.194-0.195,0.332-0.231c0.129-0.034,0.258-0.068,0.386-0.105c0.064-0.018,0.148-0.023,0.187-0.067
				c0.195-0.218,0.477-0.212,0.722-0.298c0.089-0.031,0.174-0.042,0.234-0.14c0.056-0.092,0.181-0.089,0.284-0.103
				c0.151-0.021,0.329,0.006,0.449-0.066c0.283-0.169,0.581-0.112,0.876-0.128c0.078-0.004,0.158-0.014,0.211-0.073
				c0.11-0.123,0.246-0.126,0.393-0.11c0.133,0.014,0.267,0.02,0.4,0.028c0.096,0.005,0.197,0.016,0.229-0.111
				c0.015-0.058,0.063-0.068,0.109-0.072c0.142-0.014,0.287-0.041,0.428-0.03c0.169,0.014,0.321,0.007,0.454-0.112
				c0.062-0.056,0.145-0.041,0.219-0.039c1.224,0.043,2.444-0.067,3.666-0.116c0.194-0.008,0.388-0.036,0.636-0.06
				c-0.144-0.137-0.276-0.177-0.404-0.218c-0.355-0.113-0.714-0.212-1.083-0.265c-0.278-0.04-0.537-0.126-0.79-0.241
				c-0.06-0.027-0.133-0.056-0.167-0.107c-0.135-0.202-0.346-0.287-0.551-0.387c-0.11-0.054-0.209-0.12-0.262-0.247
				c-0.058-0.136-0.191-0.211-0.312-0.286c-0.39-0.244-0.598-0.625-0.774-1.026c-0.065-0.147-0.178-0.244-0.273-0.361
				c-0.074-0.092-0.189-0.161-0.131-0.318c0.035-0.096-0.073-0.144-0.127-0.207c-0.092-0.106-0.203-0.193-0.16-0.369
				c0.021-0.088-0.058-0.177-0.1-0.262c-0.188-0.386-0.365-0.775-0.448-1.201c-0.036-0.181-0.032-0.36-0.027-0.541
				c0.001-0.05,0.008-0.1,0.058-0.121c0.051-0.021,0.09,0.011,0.119,0.052c0.05,0.069,0.108,0.134,0.149,0.208
				c0.193,0.351,0.416,0.683,0.65,1.008c0.109,0.151,0.213,0.324,0.439,0.33c0.087,0.002,0.123,0.083,0.171,0.14
				c0.097,0.118,0.187,0.241,0.284,0.358c0.078,0.093,0.146,0.206,0.303,0.163c0.077-0.021,0.127,0.048,0.164,0.095
				c0.19,0.247,0.438,0.415,0.704,0.567c0.114,0.066,0.213,0.159,0.318,0.241c0.037,0.029,0.059,0.079,0.113,0.082
				c0.401,0.026,0.634,0.351,0.945,0.535c0.097,0.057,0.173,0.138,0.294,0.163c0.164,0.034,0.281,0.152,0.384,0.282
				c0.065,0.081,0.116,0.175,0.206,0.236c0.298,0.202,0.519,0.478,0.714,0.772c0.226,0.341,0.538,0.62,0.711,0.998
				c0.033,0.072,0.1,0.079,0.169,0.082c0.172,0.008,0.343,0.026,0.515,0.028c0.573,0.004,1.139,0.115,1.712,0.114
				c0.18,0,0.353,0.086,0.538,0.069c0.105-0.01,0.142-0.069,0.076-0.147c-0.178-0.21-0.359-0.407-0.644-0.496
				c-0.407-0.127-0.824-0.238-1.193-0.466c-0.024-0.015-0.044-0.035-0.1-0.081c0.481-0.02,0.934-0.058,1.361,0.088
				c0.443,0.152,0.731,0.528,1.052,0.871c0.1-0.114,0.138-0.228,0.146-0.347c0.048-0.743,0.166-1.479,0.182-2.224
				c0.008-0.362,0.012-0.367-0.34-0.487c-0.416-0.142-0.808-0.338-1.212-0.508c-0.053-0.022-0.132-0.036-0.152-0.144
				c0.481-0.052,0.959-0.146,1.406,0.126c0.14,0.085,0.321,0.058,0.452,0.183c0.095-0.188,0.117-0.383,0.016-0.563
				c-0.114-0.204-0.022-0.406-0.033-0.608c-0.001-0.029,0.013-0.065,0.045-0.056c0.203,0.056,0.152-0.101,0.167-0.198
				c0.037-0.244,0.071-0.489,0.048-0.751c-0.499,0.033-0.942,0.305-1.507,0.311c0.322-0.278,0.584-0.522,0.827-0.784
				c0.271-0.293,0.545-0.584,0.81-0.883c0.143-0.161,0.206-0.363,0.232-0.575c0.014-0.11-0.006-0.173-0.144-0.183
				c-0.621-0.043-1.241-0.024-1.861,0.017c-0.164,0.011-0.223,0.141-0.33,0.222c-0.137,0.104-0.13,0.202-0.125,0.34
				c0.006,0.189,0.072,0.404-0.158,0.533c-0.047,0.026-0.017,0.107-0.015,0.163c0.005,0.154,0.002,0.314-0.075,0.447
				c-0.101,0.176-0.093,0.358-0.101,0.548c-0.014,0.353-0.044,0.705-0.086,1.056c-0.039,0.316-0.039,0.627,0.007,0.941
				c0.024,0.164,0.049,0.333-0.014,0.523c-0.164-0.108-0.234-0.252-0.317-0.385c-0.304-0.484-0.46-1.023-0.571-1.577
				c-0.026-0.131-0.038-0.264-0.066-0.394c-0.022-0.104-0.016-0.239-0.205-0.175c-0.081,0.027-0.122-0.075-0.145-0.149
				c-0.05-0.155-0.075-0.315-0.094-0.476c-0.012-0.104-0.027-0.203-0.134-0.269c-0.099-0.062-0.094-0.18-0.104-0.284
				c-0.018-0.189-0.018-0.381-0.086-0.576c-0.287,0.021-0.552,0.132-0.823,0.208c-0.975,0.272-1.917,0.633-2.845,1.035
				c-0.447,0.194-0.919,0.309-1.408,0.369c-0.015-0.052,0.032-0.049,0.052-0.062c0.031-0.021,0.068-0.031,0.103-0.047
				c0.383-0.17,0.769-0.328,1.054-0.663c0.118-0.138,0.314-0.173,0.479-0.247c0.09-0.04,0.206-0.045,0.209-0.195
				c0.001-0.071,0.094-0.083,0.157-0.103c0.109-0.036,0.217-0.07,0.326-0.106c0.036-0.012,0.094-0.029,0.086-0.063
				c-0.053-0.223,0.135-0.191,0.245-0.24c0.132-0.06,0.3-0.054,0.36-0.239c0.022-0.066,0.129-0.069,0.203-0.086
				c0.201-0.047,0.41-0.07,0.559-0.248c0.043-0.052,0.134-0.073,0.207-0.088c0.228-0.049,0.416-0.184,0.625-0.274
				c0.071-0.031,0.101-0.08,0.095-0.156c-0.02-0.282,0.086-0.558,0.005-0.85c-0.051-0.185-0.008-0.399,0.009-0.598
				c0.02-0.234-0.055-0.332-0.336-0.345c-0.085-0.004-0.171,0.008-0.255-0.012c-0.046-0.011-0.091-0.025-0.162-0.045
				c0.147-0.124,0.313-0.124,0.464-0.157c0.153-0.034,0.243-0.103,0.213-0.271c-0.029-0.163,0.103-0.372-0.138-0.479
				c-0.025-0.011-0.026-0.088-0.028-0.134c-0.006-0.144,0.005-0.286,0.033-0.428c0.066-0.327,0.135-0.654,0.167-0.987
				c0.008-0.084,0.036-0.168,0.069-0.246c0.125-0.302,0.168-0.611,0.201-0.939c0.06-0.61,0.117-1.223,0.356-1.812
				c0.154-0.379,0.261-0.791,0.367-1.191c0.069-0.262,0.15-0.505,0.285-0.736c0.309-0.529,0.524-1.101,0.746-1.669
				c0.026-0.067,0.053-0.144,0.002-0.235c-0.21,0.082-0.302,0.277-0.413,0.443c-0.243,0.365-0.473,0.738-0.706,1.11
				c-0.057,0.091-0.117,0.199-0.217,0.217c-0.155,0.028-0.189,0.142-0.248,0.249c-0.124,0.225-0.25,0.45-0.38,0.672
				c-0.033,0.057-0.078,0.138-0.129,0.148c-0.202,0.041-0.213,0.211-0.276,0.353c-0.175,0.393-0.369,0.772-0.71,1.059
				c-0.112,0.095-0.178,0.246-0.263,0.372c-0.164,0.241-0.292,0.518-0.629,0.577c-0.09,0.016-0.109,0.123-0.148,0.199
				c-0.161,0.313-0.297,0.641-0.53,0.911c-0.08,0.093-0.13,0.237-0.311,0.187c-0.08-0.022-0.128,0.07-0.177,0.127
				c-0.162,0.187-0.319,0.38-0.486,0.563c-0.128,0.141-0.262,0.277-0.486,0.245c-0.097-0.013-0.172,0.052-0.246,0.122
				c-0.228,0.216-0.464,0.425-0.705,0.626c-0.07,0.058-0.145,0.166-0.271,0.068c-0.053-0.041-0.11,0.015-0.15,0.05
				c-0.079,0.068-0.149,0.148-0.225,0.22c-0.272,0.257-0.557,0.489-0.927,0.599c-0.201,0.06-0.384,0.17-0.563,0.279
				c-0.131,0.08-0.263,0.154-0.418,0.177c-0.107,0.016-0.186,0.087-0.272,0.147c-0.221,0.153-0.406,0.356-0.719,0.362
				c-0.141,0.003-0.28,0.149-0.419,0.232c-0.129,0.077-0.243,0.18-0.42,0.124c-0.061-0.019-0.146,0.03-0.218,0.055
				c-0.602,0.211-1.204,0.425-1.79,0.679c-0.41,0.178-0.807,0.386-1.212,0.576c-0.108,0.051-0.214,0.115-0.341,0.117
				c-0.055-0.131,0.029-0.194,0.106-0.268c0.417-0.4,0.891-0.712,1.417-0.951c0.382-0.173,0.768-0.34,1.122-0.568
				c0.201-0.129,0.376-0.29,0.568-0.429c0.052-0.038,0.118-0.077,0.079-0.161c-0.048-0.104,0.036-0.137,0.099-0.173
				c0.124-0.071,0.254-0.131,0.378-0.203c0.136-0.079,0.295-0.131,0.285-0.347c-0.004-0.097,0.117-0.142,0.197-0.191
				c0.179-0.109,0.363-0.21,0.541-0.32c0.077-0.048,0.177-0.094,0.04-0.203c-0.087-0.069,0.014-0.119,0.061-0.149
				c0.193-0.123,0.393-0.234,0.587-0.356c0.09-0.057,0.267-0.073,0.137-0.261c-0.027-0.039,0.052-0.094,0.095-0.129
				c0.126-0.102,0.26-0.195,0.383-0.299c0.079-0.067,0.254-0.119,0.059-0.261c-0.045-0.033,0.015-0.082,0.044-0.115
				c0.145-0.168,0.335-0.281,0.503-0.421c0.066-0.055,0.135-0.106,0.197-0.165c0.034-0.032,0.067-0.1,0.02-0.121
				c-0.233-0.101-0.041-0.17,0.022-0.216c0.154-0.111,0.323-0.201,0.484-0.303c0.046-0.029,0.119-0.086,0.058-0.13
				c-0.162-0.116-0.04-0.172,0.038-0.228c0.208-0.15,0.427-0.286,0.631-0.44c0.054-0.041,0.248-0.078,0.054-0.212
				c-0.049-0.034,0.032-0.099,0.073-0.129c0.246-0.179,0.496-0.353,0.744-0.528c0.086-0.061,0.173-0.12,0.259-0.18
				c0.051-0.036,0.09-0.082,0.05-0.142c-0.08-0.119,0.002-0.168,0.084-0.225c0.143-0.099,0.306-0.151,0.468-0.208
				c0.162-0.056,0.326-0.108,0.474-0.196c0.059-0.035,0.126-0.104,0.054-0.159c-0.157-0.118-0.046-0.167,0.044-0.212
				c0.272-0.137,0.547-0.268,0.824-0.396c0.104-0.048,0.223-0.066,0.192-0.231c-0.015-0.078,0.059-0.106,0.124-0.134
				c0.2-0.088,0.4-0.178,0.596-0.275c0.131-0.065,0.294-0.094,0.332-0.279c0.009-0.043,0.072-0.055,0.116-0.074
				c0.741-0.32,1.386-0.795,2.03-1.27c0.166-0.123,0.333-0.244,0.499-0.366c-0.041-0.087-0.098-0.056-0.151-0.039
				c-0.127,0.04-0.252,0.087-0.38,0.123c-0.255,0.071-0.494,0.199-0.772,0.193c-0.107-0.002-0.219,0.062-0.323,0.109
				c-0.171,0.076-0.326,0.174-0.534,0.106c-0.106-0.034-0.222,0.044-0.324,0.095c-0.407,0.206-0.864,0.308-1.238,0.584
				c-0.03,0.022-0.07,0.05-0.102,0.047c-0.258-0.023-0.453,0.115-0.653,0.245c-0.032,0.021-0.069,0.049-0.103,0.048
				c-0.279-0.013-0.48,0.164-0.707,0.279c-0.128,0.065-0.25,0.173-0.419,0.068c-0.057-0.035-0.146,0.026-0.211,0.067
				c-0.195,0.125-0.407,0.205-0.632,0.26c-0.101,0.025-0.194,0.077-0.291,0.117c-0.07,0.029-0.142,0.087-0.21,0.083
				c-0.287-0.016-0.51,0.142-0.75,0.252c-0.132,0.061-0.262,0.122-0.411,0.08c-0.113-0.032-0.204,0.025-0.301,0.063
				c-0.195,0.077-0.388,0.214-0.593,0.19c-0.332-0.04-0.609,0.104-0.908,0.184c-0.133,0.035-0.284,0.125-0.39-0.084
				c-0.053-0.105-0.194-0.039-0.293-0.033c-0.486,0.03-0.969,0.103-1.457,0.086c-0.217-0.007-0.432-0.024-0.672-0.074
				c0.086-0.095,0.186-0.117,0.282-0.148c0.607-0.195,1.232-0.336,1.826-0.573c0.184-0.074,0.384-0.131,0.479-0.336
				c0.011-0.024,0.038-0.048,0.062-0.056c0.363-0.107,0.598-0.435,0.959-0.548c0.135-0.042,0.252-0.125,0.349-0.239
				c0.127-0.149,0.32-0.199,0.49-0.282c0.142-0.069,0.314-0.093,0.374-0.275c0.007-0.022,0.042-0.041,0.068-0.049
				c0.422-0.124,0.754-0.443,1.189-0.544c0.221-0.051,0.444-0.109,0.627-0.261c0.06-0.049,0.142-0.048,0.219-0.058
				c0.292-0.04,0.584-0.082,0.866-0.179c0.328-0.113,0.679-0.091,1.016-0.155c0.334-0.063,0.662-0.043,0.997-0.017
				c0.437,0.033,0.874,0.078,1.311,0.091c0.331,0.01,0.664-0.063,0.998-0.023c0.17,0.02,0.339,0.049,0.51,0.065
				c0.112,0.01,0.227,0.022,0.341-0.021c0.034-0.18-0.093-0.286-0.194-0.392c-0.17-0.18-0.354-0.347-0.535-0.517
				c-0.182-0.171-0.343-0.358-0.449-0.587c-0.004-0.009-0.01-0.017-0.014-0.025c-0.304-0.504-0.718-0.938-0.927-1.526
				c-0.99,1.047-2.152,1.833-3.195,2.83c-0.036-0.306,0.076-0.507,0.205-0.685c0.336-0.464,0.591-0.983,0.931-1.439
				c0.391-0.524,0.636-1.125,0.993-1.665c0.063-0.095,0.103-0.205,0.161-0.302c0.07-0.116,0.038-0.211-0.03-0.316
				c-0.191-0.297-0.458-0.535-0.632-0.844c-0.029-0.052-0.101-0.088-0.161-0.114c-0.377-0.159-0.614-0.501-1.012-0.716
				c0.281-0.116,0.506-0.056,0.725-0.035c0.404,0.039,0.771,0.207,1.142,0.355c0.136,0.054,0.223,0.177,0.34,0.257
				c0.185,0.126,0.284,0.081,0.296-0.142c0.022-0.42,0.132-0.824,0.196-1.237c0.004-0.028,0.022-0.053,0.027-0.081
				c0.009-0.058,0.005-0.115-0.043-0.158c-0.058-0.052-0.11-0.007-0.155,0.018c-0.174,0.097-0.345,0.201-0.517,0.301
				c-0.105,0.061-0.2,0.156-0.317,0c-0.05-0.066-0.143-0.014-0.211,0.023c-0.159,0.087-0.317,0.176-0.476,0.262
				c-0.12,0.065-0.243,0.118-0.373,0.023c-0.034-0.025-0.066-0.034-0.105-0.019c-0.195,0.076-0.412,0.121-0.578,0.238
				c-0.123,0.087-0.193,0.087-0.237-0.026c-0.055-0.139-0.121-0.108-0.219-0.067c-0.211,0.088-0.424,0.171-0.64,0.248
				c-0.116,0.042-0.235,0.133-0.357-0.01c-0.045-0.053-0.129-0.002-0.19,0.018c-0.144,0.049-0.286,0.105-0.426,0.166
				c-0.12,0.052-0.229,0.139-0.363,0.017c-0.057-0.052-0.128,0.009-0.187,0.032c-0.177,0.068-0.343,0.114-0.548,0.079
				c-0.189-0.032-0.395,0.036-0.594,0.062c-0.359,0.048-0.719,0.096-1.083,0.087c-0.061-0.001-0.129,0.012-0.187-0.029
				c0.025-0.066,0.082-0.071,0.137-0.081c0.424-0.073,0.828-0.218,1.235-0.353c0.41-0.136,0.77-0.375,1.144-0.579
				c0.234-0.128,0.469-0.248,0.713-0.352c0.136-0.058,0.291-0.095,0.358-0.262c0.041-0.101,0.157-0.096,0.247-0.121
				c0.191-0.052,0.388-0.081,0.508-0.277c0.057-0.094,0.185-0.09,0.284-0.12c0.254-0.077,0.528-0.098,0.746-0.274
				c0.007-0.006,0.018-0.009,0.027-0.01c0.484-0.023,0.95-0.219,1.442-0.154c0.09,0.012,0.188,0.022,0.249-0.027
				c0.241-0.193,0.512-0.133,0.766-0.083c0.177,0.035,0.241-0.015,0.293-0.165c0.111-0.324,0.238-0.643,0.347-0.968
				c0.089-0.267,0.201-0.526,0.286-0.802c-0.265,0.108-0.46,0.283-0.585,0.533c-0.03,0.059-0.044,0.126-0.065,0.189
				c-0.04,0.124-0.051,0.266-0.254,0.228c-0.078-0.014-0.137,0.09-0.203,0.144c-0.3,0.249-0.587,0.521-0.995,0.588
				c-0.534,0.087-1.066,0.197-1.612,0.154c-0.131-0.01-0.261-0.022-0.399-0.099c0.069-0.088,0.159-0.104,0.248-0.129
				c0.339-0.097,0.679-0.191,1.014-0.301c0.28-0.092,0.536-0.231,0.752-0.475c-0.093-0.048-0.16-0.015-0.228,0.003
				c-0.386,0.103-0.763,0.244-1.167,0.274c-0.147,0.011-0.285-0.005-0.415-0.076c-0.038-0.021-0.056-0.048-0.054-0.091
				c0.016-0.007,0.033-0.021,0.048-0.02c0.697,0.066,1.271-0.266,1.854-0.569c0.077-0.04,0.14-0.096,0.189-0.17
				c0.042-0.063,0.098-0.116,0.148-0.173c0.305-0.348,0.663-0.597,1.141-0.642c0.156-0.015,0.299-0.067,0.331-0.276
				c-0.298-0.009-0.568,0.032-0.813,0.199c-0.379,0.259-0.784,0.474-1.211,0.642c-0.178,0.07-0.358,0.174-0.586,0.124
				c0.153-0.239,0.46-0.232,0.667-0.469c-0.482,0.028-0.903-0.086-1.328-0.04c-0.414,0.045-0.801,0.232-1.26,0.284
				c0.198-0.195,0.424-0.247,0.628-0.338c0.148-0.066,0.302-0.12,0.452-0.181c0.042-0.017,0.1-0.033,0.086-0.093
				c-0.013-0.055-0.061-0.066-0.114-0.047c-0.382,0.137-0.788,0.043-1.182,0.124c-0.22,0.045-0.472-0.007-0.708,0.042
				c-0.06,0.013-0.123-0.011-0.139-0.074c-0.032-0.129-0.103-0.105-0.188-0.064c-0.086,0.041-0.175,0.074-0.258,0.121
				c-0.138,0.078-0.271,0.127-0.427,0.037c-0.111-0.064-0.226-0.001-0.331,0.034c-0.461,0.153-0.916,0.324-1.38,0.468
				c-0.239,0.074-0.484,0.158-0.745,0.128c-0.005-0.09,0.061-0.108,0.11-0.125c0.645-0.217,1.233-0.552,1.823-0.883
				c0.209-0.117,0.425-0.213,0.651-0.29c0.121-0.041,0.274-0.04,0.323-0.2c0.002-0.007,0.013-0.017,0.02-0.017
				c0.337-0.001,0.561-0.335,0.91-0.306c0.074,0.006,0.153-0.013,0.225-0.037c0.611-0.203,1.241-0.265,1.881-0.253
				c0.112,0.002,0.228,0.031,0.324-0.063c0.065-0.063,0.142-0.025,0.217-0.015c0.292,0.041,0.578,0.139,0.879,0.082
				c0.043-0.008,0.098,0.009,0.129-0.091c-0.811-0.287-1.657-0.435-2.505-0.589c0.044-0.14,0.129-0.118,0.199-0.122
				c0.281-0.016,0.543,0.094,0.817,0.132c0.472,0.064,0.942,0.147,1.414,0.206c0.145,0.018,0.274,0.076,0.413,0.106
				c0.043,0.009,0.101,0.022,0.119-0.039c0.018-0.062-0.038-0.081-0.079-0.099c-0.201-0.088-0.408-0.163-0.626-0.193
				c-0.228-0.031-0.449-0.084-0.657-0.184c-0.13-0.063-0.27-0.091-0.41-0.121c-0.085-0.019-0.21,0-0.196-0.17
				c0.006-0.068-0.116-0.083-0.189-0.086c-0.21-0.009-0.423,0.006-0.568-0.198c-0.025-0.036-0.105-0.036-0.16-0.047
				c-0.166-0.033-0.348-0.03-0.442-0.212c-0.004-0.007-0.016-0.014-0.024-0.014c-0.306-0.009-0.525-0.229-0.794-0.329
				c-0.053-0.02-0.139-0.016-0.158-0.051c-0.107-0.206-0.31-0.193-0.489-0.231c-0.082-0.017-0.142-0.047-0.171-0.129
				c-0.048-0.135-0.14-0.196-0.285-0.18c-0.11,0.013-0.202-0.045-0.295-0.091c-0.031-0.015-0.073-0.057-0.035-0.088
				c0.161-0.128,0.009-0.172-0.063-0.218c-0.168-0.108-0.346-0.2-0.518-0.303c-0.299-0.179-0.466-0.358-0.612-0.649
				c0.062-0.048,0.107,0.004,0.153,0.03c0.359,0.205,0.764,0.291,1.144,0.442c0.137,0.055,0.294,0.063,0.451,0.031
				c0.207-0.042,0.402-0.014,0.608,0.071c0.27,0.111,0.564,0.173,0.853,0.226c0.328,0.06,0.646,0.158,0.968,0.233
				c0.343,0.079,0.654,0.208,0.944,0.383c0.526,0.318,1.082,0.599,1.508,1.061c0.043,0.047,0.047,0.043,0.221,0.083
				c-0.271-0.663-0.749-1.174-1.146-1.762c0.182-0.04,0.272,0.083,0.385,0.134c0.059,0.026,0.105,0.082,0.159,0.12
				c0.043,0.031,0.09,0.03,0.129-0.008c0.034-0.034,0.011-0.07-0.005-0.103c-0.07-0.15-0.192-0.294-0.056-0.468
				c-0.108-0.209-0.059-0.462-0.153-0.66c-0.094-0.196-0.188-0.392-0.272-0.593c-0.123-0.293-0.328-0.535-0.504-0.795
				c-0.111-0.163-0.237-0.319-0.286-0.563c0.267,0.113,0.411,0.314,0.588,0.472c0.185,0.166,0.341,0.359,0.492,0.554
				c0.147,0.19,0.376,0.295,0.497,0.51c0.12,0.213,0.302,0.378,0.471,0.567c0.018-0.305,0.112-0.598,0.059-0.898
				c-0.025-0.147-0.022-0.285,0.034-0.42c0.03-0.073,0.041-0.147,0.039-0.224c-0.004-0.16-0.041-0.327,0.109-0.452
				c0.017-0.014,0.017-0.054,0.016-0.082c-0.01-0.308,0.159-0.589,0.135-0.899c-0.001-0.009,0.002-0.02,0.007-0.028
				c0.152-0.27,0.191-0.582,0.351-0.855c0.124-0.211,0.288-0.398,0.386-0.625c0.022-0.051,0.058-0.108,0.103-0.133
				c0.217-0.119,0.276-0.33,0.33-0.544c0.077-0.305,0.153-0.61,0.227-0.916c0.016-0.065,0.02-0.133,0.091-0.181
				c0.103,0.23,0.115,0.474,0.134,0.717c0.009,0.114-0.027,0.242,0.012,0.342c0.141,0.362-0.016,0.722,0.017,1.077
				c0.023,0.243-0.024,0.472-0.037,0.707c-0.005,0.086-0.007,0.17-0.041,0.251c-0.048,0.117-0.072,0.237-0.003,0.358
				c0.018,0.032,0.035,0.075,0.03,0.109c-0.07,0.538,0.109,1.052,0.163,1.577c0.057,0.553,0.032,1.101,0.036,1.652
				c0,0.029,0.003,0.061-0.009,0.085c-0.162,0.322-0.14,0.689-0.253,1.023c-0.043,0.128-0.078,0.258-0.024,0.39
				c0.026,0.063,0.071,0.117,0.151,0.104c0.075-0.012,0.068-0.076,0.08-0.132c0.078-0.388,0.209-0.75,0.479-1.053
				c0.078-0.088,0.083-0.209,0.09-0.325c0.016-0.26,0.093-0.506,0.2-0.741c0.022-0.049,0.046-0.117,0.12-0.1
				c0.061,0.014,0.082,0.071,0.094,0.13c0.011,0.058,0.001,0.112-0.008,0.169c-0.009,0.054-0.014,0.118,0.051,0.15
				c0.078,0.038,0.127-0.018,0.17-0.067c0.124-0.143,0.266-0.277,0.362-0.437c0.183-0.305,0.464-0.525,0.666-0.814
				c0.094-0.135,0.187-0.269,0.23-0.424c0.116-0.412,0.241-0.822,0.308-1.247c0.025-0.156,0.064-0.314,0.185-0.464
				c0.118,0.208,0.086,0.408,0.067,0.599c-0.038,0.37-0.105,0.736-0.18,1.1c-0.022,0.107-0.06,0.225,0.021,0.331
				c0.01,0.014,0.025,0.041,0.019,0.047c-0.148,0.182-0.06,0.451-0.232,0.626c-0.054,0.055-0.123,0.115-0.017,0.211
				c0.068,0.062-0.024,0.138-0.071,0.191c-0.181,0.205-0.338,0.424-0.446,0.677c-0.042,0.098-0.1,0.188-0.189,0.247
				c-0.279,0.186-0.439,0.498-0.724,0.675c-0.043,0.027-0.074,0.059-0.07,0.114c0.023,0.308,0.095,0.615-0.004,0.96
				c0.351-0.102,0.595-0.247,0.698-0.558c0.043-0.131,0.101-0.243,0.213-0.329c0.085-0.065,0.135-0.159,0.183-0.254
				c0.038-0.076,0.06-0.163,0.144-0.206c0.085-0.043,0.106-0.121,0.13-0.207c0.044-0.163,0.073-0.337,0.25-0.43
				c0.08-0.042,0.056-0.134,0.062-0.209c0.01-0.125,0.025-0.245,0.151-0.319c0.1-0.059,0.123-0.169,0.138-0.272
				c0.024-0.156,0.068-0.291,0.21-0.387c0.059-0.04,0.092-0.119,0.135-0.182c0.097-0.141,0.18-0.291,0.342-0.377
				c0.062-0.033,0.105-0.107,0.15-0.168c0.097-0.13,0.182-0.253,0.372-0.282c0.152-0.024,0.247-0.173,0.341-0.292
				c0.188-0.241,0.353-0.498,0.493-0.77c0.042-0.082,0.07-0.175,0.17-0.238c0.066,0.152,0,0.275-0.045,0.388
				c-0.135,0.336-0.288,0.664-0.43,0.998c-0.071,0.166-0.125,0.332-0.132,0.52c-0.007,0.208-0.111,0.402-0.166,0.604
				c-0.085,0.309-0.208,0.609-0.337,0.903c-0.156,0.355-0.376,0.679-0.522,1.041c-0.024,0.059-0.073,0.109-0.133,0.193
				c0.414-0.048,0.726-0.266,1.067-0.443c0.051,0.126-0.03,0.173-0.091,0.22c-0.228,0.175-0.485,0.299-0.746,0.416
				c-0.25,0.112-0.517,0.199-0.672,0.455c-0.053,0.088-0.135,0.153-0.13,0.275c0.003,0.085-0.052,0.16-0.117,0.221
				c-0.311,0.297-0.636,0.576-1.005,0.799c-0.214,0.129-0.458,0.184-0.698,0.249c-0.23,0.062-0.461,0.122-0.678,0.221
				c-0.048,0.022-0.116,0.044-0.081,0.117c0.024,0.05,0.078,0.043,0.126,0.03c0.146-0.042,0.295-0.078,0.439-0.126
				c0.785-0.263,1.572-0.524,2.36-0.776c0.4-0.128,0.788-0.325,1.228-0.34c0.175-0.006,0.334-0.128,0.497-0.208
				c0.411-0.203,0.773-0.486,1.175-0.701c0.146-0.078,0.287-0.184,0.543-0.182c-0.417,0.432-0.921,0.651-1.331,1.009
				c0.237,0.046,0.606-0.037,0.903-0.188c0.163-0.083,0.304-0.198,0.447-0.308c0.212-0.162,0.415-0.334,0.658-0.454
				c0.091-0.045,0.17-0.124,0.241-0.2c0.124-0.134,0.258-0.253,0.418-0.342c0.049-0.027,0.101-0.06,0.136-0.103
				c0.373-0.456,0.881-0.753,1.323-1.128c0.196-0.166,0.392-0.332,0.588-0.499c0.037-0.031,0.071-0.063,0.124-0.053
				c0.074,0.068-0.004,0.098-0.034,0.136c-0.22,0.277-0.417,0.567-0.537,0.904c-0.093,0.26-0.286,0.447-0.49,0.623
				c-0.37,0.319-0.699,0.674-0.95,1.096c-0.01,0.016-0.017,0.036-0.03,0.048c-0.279,0.237-0.489,0.547-0.813,0.739
				c-0.285,0.169-0.567,0.346-0.826,0.557c-0.106,0.087-0.228,0.134-0.357,0.173c-0.492,0.15-0.983,0.303-1.475,0.454
				c-0.072,0.022-0.148,0.033-0.221,0.133c0.587-0.109,1.15-0.18,1.734-0.114c-0.059,0.096-0.146,0.088-0.226,0.097
				c-0.381,0.042-0.749,0.138-1.112,0.258c-0.181,0.06-0.359,0.125-0.505,0.258c-0.039,0.035-0.116,0.04-0.1,0.113
				c0.014,0.063,0.079,0.081,0.134,0.093c0.523,0.113,0.948,0.429,1.405,0.679c0.099,0.054,0.271,0.037,0.273,0.229
				c0.001,0.056,0.099,0.038,0.148,0.064c0.167,0.09,0.328,0.177,0.432,0.353c0.115,0.194,0.184,0.183,0.382,0.043
				c0.074-0.052,0.121-0.118,0.174-0.183c0.036-0.044,0.064-0.133,0.099-0.134c0.217-0.009,0.23-0.19,0.293-0.327
				c0.04-0.086,0.081-0.153,0.192-0.106c0.058,0.024,0.112,0.004,0.16-0.033c0.277-0.215,0.554-0.431,0.832-0.645
				c0.384-0.297,0.759-0.609,1.22-0.786c0.087-0.033,0.168-0.085,0.271-0.075c-0.024,0.136-0.14,0.178-0.225,0.248
				c-0.451,0.368-0.901,0.736-1.28,1.181c-0.107,0.126-0.208,0.248-0.174,0.432c0.019,0.101-0.027,0.192-0.103,0.255
				c-0.171,0.143-0.283,0.333-0.419,0.505c-0.146,0.185-0.324,0.342-0.476,0.523c-0.168,0.201-0.169,0.199-0.021,0.436
				c0.089,0.144,0.225,0.228,0.336,0.343c0.096,0.1,0.203,0.189,0.295,0.322c-0.164,0.017-0.275-0.033-0.382-0.095
				c-0.148-0.086-0.292-0.179-0.442-0.261c-0.075-0.041-0.16-0.087-0.24-0.087c-0.092,0-0.079,0.115-0.115,0.178
				c-0.045,0.079-0.132,0.108-0.202,0.155c-0.08,0.054-0.185,0.102-0.196,0.197c-0.023,0.2-0.169,0.285-0.304,0.388
				c-0.175,0.133-0.339,0.279-0.482,0.447c-0.09,0.105-0.183,0.213-0.191,0.368c0.119,0.035,0.179-0.039,0.245-0.083
				c0.464-0.305,0.945-0.573,1.487-0.714c0.158-0.041,0.309-0.08,0.474-0.009c0.116,0.05,0.245,0.01,0.366-0.021
				c0.166-0.043,0.331-0.091,0.499-0.126c0.099-0.02,0.195-0.041,0.287,0.06c0.095,0.104,0.235,0.044,0.354,0.023
				c0.225-0.039,0.448-0.096,0.678-0.102c0.118-0.003,0.242-0.031,0.34,0.091c0.055,0.07,0.164,0.04,0.246,0.026
				c0.501-0.085,1.01,0.023,1.511-0.064c0.064-0.011,0.158-0.02,0.194,0.015c0.158,0.156,0.317,0.074,0.478,0.028
				c0.145-0.041,0.285-0.077,0.359,0.108c0.031,0.077,0.092,0.088,0.162,0.086c0.134-0.004,0.267-0.009,0.401-0.011
				c0.114-0.001,0.236-0.016,0.334,0.054c0.153,0.109,0.318,0.102,0.493,0.088c0.169-0.013,0.345-0.02,0.48,0.118
				c0.059,0.06,0.142,0.052,0.213,0.073c0.636,0.19,1.289,0.264,1.951,0.26c0.085-0.001,0.167-0.018,0.244,0.046
				c0.075,0.062,0.164,0.017,0.247,0.009c0.196-0.019,0.388-0.103,0.611-0.039c-0.058,0.148-0.185,0.175-0.309,0.208
				c-0.343,0.09-0.697,0.118-1.047,0.149c-1.354,0.118-2.707,0.125-4.062-0.022c-1.224-0.133-2.443-0.321-3.676-0.357
				c-0.909-0.026-1.814-0.006-2.709,0.175c-0.207,0.042-0.425,0.075-0.617,0.262c0.195,0,0.351,0.011,0.506-0.002
				c0.656-0.055,1.312-0.098,1.97-0.031c0.141,0.014,0.284,0.029,0.411,0.104c0.19,0.112,0.4,0.115,0.611,0.101
				c0.277-0.019,0.545-0.023,0.79,0.154c0.117,0.085,0.277,0.055,0.419,0.068c0.133,0.012,0.268,0.006,0.401,0.013
				c0.076,0.004,0.164,0.001,0.213,0.066c0.119,0.159,0.292,0.159,0.462,0.179c0.208,0.024,0.41,0.059,0.6,0.165
				c0.113,0.063,0.254,0.08,0.383,0.11c0.26,0.06,0.524,0.109,0.693,0.35c0.042,0.06,0.115,0.063,0.178,0.082
				c0.242,0.069,0.46,0.172,0.636,0.364c0.119,0.13,0.188,0.123,0.344-0.001c0.264-0.211,0.44-0.498,0.643-0.762
				c0.109-0.142,0.194-0.307,0.356-0.404c0.111,0.065,0.086,0.159,0.066,0.252c-0.052,0.245-0.141,0.475-0.265,0.692
				c-0.085,0.149-0.17,0.299-0.245,0.453c-0.127,0.261-0.044,0.487,0.223,0.604c0.14,0.062,0.278,0.129,0.4,0.22
				c0.075,0.056,0.188,0.107,0.109,0.251c-0.051,0.093,0.059,0.109,0.113,0.12c0.18,0.036,0.345,0.113,0.507,0.19
				c0.114,0.055,0.254,0.098,0.274,0.263c0.012,0.098,0.099,0.109,0.172,0.124c0.171,0.035,0.326,0.11,0.473,0.198
				c0.079,0.047,0.203,0.078,0.107,0.225c-0.035,0.054,0.047,0.068,0.086,0.081c0.108,0.036,0.22,0.062,0.328,0.098
				c0.135,0.045,0.26,0.091,0.321,0.251c0.063,0.167,0.244,0.204,0.393,0.26c0.558,0.207,1.141,0.305,1.727,0.386
				c0.028,0.004,0.057,0.002,0.086,0.006c0.083,0.013,0.2,0.01,0.206,0.11c0.008,0.127-0.11,0.165-0.218,0.178
				c-0.503,0.061-1.007,0.098-1.513,0.028c-0.17-0.024-0.341-0.043-0.512-0.052c-0.088-0.004-0.192-0.03-0.238,0.1
				c-0.025,0.071-0.093,0.042-0.147,0.022c-0.107-0.04-0.214-0.081-0.322-0.118c-0.112-0.038-0.22-0.12-0.339,0.004
				c-0.048,0.05-0.125,0.013-0.188-0.015c-0.131-0.057-0.262-0.118-0.398-0.158c-0.127-0.037-0.249-0.142-0.399-0.02
				c-0.059,0.048-0.163-0.004-0.239-0.048c-0.164-0.095-0.328-0.192-0.496-0.28c-0.107-0.056-0.217-0.122-0.345-0.037
				c-0.096,0.064-0.185,0.007-0.267-0.038c-0.142-0.078-0.278-0.165-0.418-0.248c-0.077-0.046-0.164-0.087-0.233-0.003
				c-0.094,0.116-0.18,0.072-0.272,0.009c-0.024-0.016-0.043-0.04-0.069-0.051c-0.118-0.052-0.221-0.214-0.348-0.148
				c-0.156,0.081-0.319,0.216-0.362,0.388c-0.062,0.247-0.231,0.389-0.404,0.534c-0.132,0.11-0.272,0.191-0.255,0.407
				c0.009,0.114-0.129,0.177-0.215,0.25c-0.133,0.115-0.285,0.197-0.378,0.369c-0.07,0.129-0.039,0.184,0.046,0.257
				c0.086,0.074,0.176,0.144,0.26,0.221c0.062,0.056,0.104,0.12,0.005,0.184c-0.087,0.057-0.043,0.115,0.006,0.164
				c0.116,0.115,0.257,0.196,0.397,0.277c0.473,0.275,0.984,0.456,1.511,0.593c0.09,0.024,0.177,0.042,0.265,0.152
				c-0.552,0.038-1.058,0.008-1.556-0.128c-0.183-0.05-0.365-0.106-0.541-0.18c-0.157-0.066-0.32-0.118-0.499-0.064
				c-0.165,0.05-0.3-0.059-0.422-0.136c-0.233-0.146-0.521-0.113-0.752-0.259c-0.066-0.042-0.124,0.032-0.171,0.077
				c-0.19,0.179-0.419,0.306-0.554,0.558c-0.113,0.211-0.338,0.352-0.542,0.493c-0.433,0.299-0.76,0.69-0.98,1.169
				c-0.015,0.032-0.04,0.066-0.006,0.124c0.143-0.021,0.276-0.091,0.412-0.152c0.716-0.32,1.463-0.547,2.218-0.751
				c0.113-0.031,0.217-0.062,0.323,0.029c0.072,0.063,0.163,0.024,0.248,0.009c0.291-0.052,0.582-0.102,0.873-0.152
				c0.119-0.02,0.23-0.021,0.288,0.115c0.041,0.096,0.13,0.068,0.2,0.062c0.162-0.013,0.322-0.038,0.483-0.057
				c0.22-0.025,0.435-0.041,0.637,0.088c0.09,0.058,0.205,0.033,0.309,0.032c0.153-0.001,0.306-0.007,0.458-0.005
				c0.115,0.001,0.226,0.004,0.296,0.128c0.06,0.106,0.176,0.101,0.282,0.103c0.153,0.003,0.306-0.006,0.458,0.007
				c0.109,0.01,0.232,0.014,0.276,0.158c0.035,0.115,0.138,0.078,0.219,0.077c0.278-0.003,0.553,0.024,0.821,0.098
				c0.142,0.039,0.141,0.051,0.021,0.221c0.205,0.026,0.399,0.047,0.591,0.076c0.212,0.032,0.427,0.034,0.586,0.235
				c0.079,0.1,0.244,0.096,0.377,0.103c0.173,0.009,0.34,0.046,0.506,0.09c0.1,0.026,0.233,0.019,0.204,0.202
				c-0.015,0.093,0.096,0.102,0.171,0.109c0.18,0.017,0.363,0.002,0.54,0.058c0.045,0.014,0.122,0.013,0.132,0.039
				c0.079,0.201,0.263,0.212,0.43,0.253c0.176,0.044,0.352,0.088,0.53,0.12c0.643,0.114,1.29,0.14,1.94,0.061
				c0.101-0.012,0.205-0.002,0.331-0.002c-0.07,0.105-0.17,0.136-0.263,0.169c-0.795,0.281-1.609,0.475-2.456,0.508
				c-0.127,0.005-0.272-0.031-0.335,0.143c-0.017,0.046-0.084,0.029-0.131,0.032c-0.146,0.007-0.286-0.028-0.423-0.067
				c-0.123-0.035-0.241-0.057-0.365-0.018c-0.184,0.058-0.361-0.015-0.537-0.04c-0.264-0.038-0.521-0.091-0.792-0.049
				c-0.181,0.028-0.357-0.044-0.53-0.099c-0.124-0.04-0.243-0.089-0.383-0.011c-0.091,0.051-0.203-0.007-0.306-0.029
				c-0.216-0.047-0.427-0.162-0.658-0.014c-0.079,0.05-0.205-0.003-0.303-0.04c-0.163-0.061-0.329-0.087-0.504-0.087
				c-0.212-0.001-0.408-0.091-0.611-0.144c-0.137-0.036-0.267-0.084-0.411,0.002c-0.104,0.061-0.224,0.017-0.331-0.028
				c-0.105-0.044-0.209-0.092-0.313-0.139c-0.088-0.039-0.166-0.079-0.257,0.014c-0.061,0.063-0.142,0.014-0.21-0.025
				c-0.166-0.094-0.331-0.189-0.499-0.279c-0.133-0.071-0.267-0.163-0.413-0.011c-0.052,0.055-0.124,0.02-0.189-0.001
				c-0.219-0.071-0.425-0.169-0.613-0.3c-0.083-0.058-0.165-0.076-0.234-0.018c-0.117,0.098-0.214,0.037-0.314-0.013
				c-0.419-0.208-0.844-0.395-1.316-0.458c-0.393-0.052-0.78-0.052-1.168,0.029c-0.062,0.013-0.133,0.015-0.171,0.088
				c0.028,0.09,0.108,0.129,0.181,0.168c0.556,0.298,1.027,0.719,1.555,1.059c0.039,0.025,0.086,0.057,0.102,0.097
				c0.091,0.222,0.284,0.32,0.482,0.416c0.076,0.037,0.15,0.086,0.213,0.142c0.194,0.169,0.403,0.313,0.632,0.433
				c0.125,0.065,0.249,0.145,0.311,0.284c0.03,0.068,0.092,0.087,0.152,0.119c0.247,0.129,0.467,0.293,0.621,0.532
				c0.075,0.117,0.188,0.192,0.306,0.253c0.156,0.08,0.291,0.17,0.376,0.332c0.07,0.133,0.212,0.185,0.336,0.257
				c0.142,0.082,0.334,0.126,0.295,0.364c-0.011,0.068,0.068,0.079,0.119,0.103c0.112,0.052,0.224,0.105,0.334,0.161
				c0.099,0.05,0.215,0.081,0.173,0.245c-0.022,0.085,0.07,0.136,0.134,0.167c0.232,0.112,0.446,0.229,0.6,0.459
				c0.081,0.121,0.272,0.166,0.41,0.25c0.065,0.04,0.155,0.043,0.152,0.172c-0.002,0.091,0.12,0.136,0.199,0.186
				c0.104,0.067,0.211,0.128,0.316,0.193c0.04,0.025,0.108,0.056,0.109,0.086c0.014,0.27,0.23,0.24,0.4,0.286
				c0.153,0.041,0.304,0.072,0.407,0.228c0.065,0.098,0.203,0.136,0.317,0.186c0.314,0.137,0.638,0.252,0.875,0.522
				c0.095,0.109,0.249,0.136,0.381,0.182c0.668,0.234,1.282,0.582,1.917,0.886c0.179,0.086,0.333,0.214,0.473,0.359
				c-0.027,0.09-0.105,0.063-0.165,0.067c-0.423,0.024-0.837-0.049-1.248-0.137c-0.382-0.082-0.764-0.17-1.136-0.29
				c-0.173-0.056-0.343-0.075-0.532-0.039c-0.272,0.052-0.553,0.045-0.813-0.084c-0.061-0.03-0.125-0.049-0.194-0.036
				c-0.295,0.056-0.563-0.028-0.829-0.149c-0.089-0.04-0.212-0.135-0.271,0.053c-0.022,0.07-0.075,0.032-0.117,0.013
				c-0.104-0.047-0.209-0.093-0.312-0.142c-0.104-0.049-0.211-0.12-0.323-0.103c-0.279,0.042-0.502-0.085-0.726-0.209
				c-0.128-0.071-0.243-0.146-0.399-0.081c-0.072,0.03-0.145,0.004-0.216-0.038c-0.149-0.087-0.288-0.184-0.422-0.293
				c-0.143-0.118-0.271-0.237-0.494-0.237c-0.187,0-0.321-0.191-0.462-0.317c-0.1-0.089-0.186-0.176-0.34-0.182
				c-0.131-0.005-0.209-0.12-0.272-0.231c-0.08-0.142-0.174-0.265-0.316-0.36c-0.137-0.091-0.2-0.25-0.26-0.404
				c-0.033-0.085-0.054-0.191-0.196-0.125c-0.074,0.035-0.121-0.026-0.159-0.086c-0.08-0.129-0.175-0.249-0.235-0.391
				c-0.068-0.161-0.106-0.336-0.328-0.381c-0.11-0.023-0.151-0.165-0.201-0.266c-0.063-0.128-0.116-0.261-0.169-0.393
				c-0.034-0.085-0.07-0.156-0.184-0.131c-0.11,0.024-0.155-0.064-0.192-0.137c-0.082-0.161-0.151-0.329-0.229-0.492
				c-0.027-0.057-0.049-0.154-0.124-0.134c-0.177,0.046-0.184-0.088-0.221-0.186c-0.077-0.205-0.147-0.412-0.216-0.62
				c-0.036-0.111-0.065-0.204-0.215-0.225c-0.115-0.017-0.124-0.158-0.147-0.256c-0.095-0.408-0.183-0.819-0.274-1.228
				c-0.017-0.074-0.033-0.149-0.06-0.219c-0.035-0.092-0.03-0.249-0.162-0.23c-0.108,0.015-0.079,0.16-0.078,0.249
				c0.001,0.219,0.002,0.44,0.03,0.657c0.028,0.219,0.034,0.438,0.042,0.657c0.001,0.038,0.016,0.089-0.003,0.111
				c-0.218,0.255-0.085,0.547-0.08,0.82c0.005,0.28,0.036,0.555-0.164,0.789c-0.006,0.007-0.015,0.016-0.015,0.024
				c-0.017,0.396-0.195,0.746-0.322,1.11c-0.012,0.035-0.004,0.079-0.018,0.113c-0.233,0.552-0.409,1.124-0.609,1.688
				c-0.013,0.036-0.025,0.084-0.053,0.1c-0.243,0.134-0.259,0.402-0.37,0.613c-0.053,0.101-0.108,0.202-0.164,0.302
				c-0.039,0.07-0.078,0.134-0.176,0.07c-0.075-0.049-0.135-0.003-0.161,0.063c-0.109,0.274-0.211,0.551-0.356,0.81
				c-0.052,0.092,0.017,0.151,0.082,0.185c0.227,0.12,0.45,0.248,0.693,0.337c0.123,0.045,0.188,0.006,0.255-0.102
				c0.088-0.141,0.115-0.312,0.283-0.416c0.216-0.133,0.351-0.145,0.505,0.051c0.047,0.059,0.087,0.123,0.141,0.178
				c0.124,0.126,0.249,0.164,0.434,0.112c0.617-0.174,1.244-0.298,1.891-0.258c0.276,0.017,0.553,0.035,0.828,0.059
				c0.116,0.01,0.237,0.045,0.3,0.146c0.066,0.105,0.151,0.12,0.258,0.128c0.314,0.023,0.629,0.053,0.933,0.137
				c0.12,0.033,0.277,0.042,0.276,0.235c0,0.046,0.052,0.073,0.109,0.064c0.308-0.046,0.597,0.09,0.9,0.097
				c0.069,0.001,0.134,0.034,0.177,0.086c0.121,0.145,0.283,0.18,0.458,0.197c0.221,0.022,0.426,0.101,0.629,0.183
				c0.071,0.029,0.154,0.054,0.165,0.141c0.025,0.19,0.177,0.207,0.313,0.238c0.251,0.058,0.5,0.121,0.737,0.223
				c0.113,0.049,0.233,0.091,0.25,0.242c0.01,0.09,0.091,0.119,0.156,0.154c0.135,0.071,0.275,0.132,0.409,0.203
				c0.17,0.09,0.332,0.184,0.363,0.406c0.014,0.097,0.107,0.15,0.192,0.198c0.192,0.106,0.384,0.211,0.57,0.325
				c0.105,0.065,0.26,0.109,0.164,0.298c-0.032,0.063,0.044,0.094,0.094,0.122c0.216,0.121,0.433,0.238,0.646,0.364
				c0.106,0.063,0.209,0.128,0.119,0.293c-0.059,0.11,0.063,0.165,0.139,0.214c0.199,0.13,0.388,0.27,0.557,0.425
				c-0.009,0.114-0.139,0.105-0.167,0.192c0.195,0.151,0.383,0.295,0.57,0.44c0.105,0.082,0.205,0.17,0.28,0.283
				c0.042,0.063,0.102,0.117,0.019,0.195c-0.062,0.059-0.017,0.126,0.011,0.184c0.318,0.65,0.607,1.316,1.088,1.872
				c0.132,0.152,0.27,0.296,0.429,0.419c0.096,0.075,0.196,0.149,0.28,0.282c-0.142,0.04-0.247,0.004-0.353-0.056
				c-0.445-0.248-0.835-0.566-1.192-0.927c-0.448-0.454-0.879-0.925-1.343-1.365c-0.492-0.467-1.001-0.906-1.568-1.28
				c-0.731-0.483-1.427-1.019-2.193-1.448c-1.179-0.661-2.376-1.287-3.589-1.885c-1.015-0.5-2.061-0.892-3.165-1.136
				c-0.119-0.026-0.289-0.094-0.338,0.018c-0.056,0.127,0.134,0.171,0.22,0.248c0.107,0.096,0.237,0.157,0.364,0.221
				c0.085,0.043,0.174,0.08,0.252,0.133c0.453,0.31,0.948,0.571,1.347,0.948c0.299,0.283,0.614,0.566,0.823,0.934
				c0.093,0.164,0.265,0.242,0.397,0.362c0.152,0.138,0.287,0.276,0.334,0.482c0.025,0.108,0.099,0.181,0.177,0.252
				c0.232,0.213,0.454,0.433,0.631,0.697c0.086,0.128,0.215,0.216,0.336,0.309c0.136,0.105,0.272,0.209,0.387,0.338
				c0.07,0.079,0.149,0.148,0.082,0.274c-0.038,0.07,0.019,0.111,0.076,0.159c0.13,0.111,0.253,0.232,0.363,0.362
				c0.079,0.094,0.21,0.177,0.115,0.344c-0.034,0.061,0.043,0.12,0.089,0.167c0.152,0.157,0.306,0.314,0.463,0.467
				c0.066,0.064,0.111,0.123,0.074,0.224c-0.054,0.148,0.02,0.251,0.133,0.341c0.25,0.2,0.457,0.43,0.539,0.753
				c0.026,0.102,0.11,0.178,0.184,0.252c0.224,0.221,0.385,0.472,0.388,0.801c0.001,0.109,0.066,0.195,0.12,0.285
				c0.116,0.195,0.249,0.383,0.185,0.635c-0.019,0.073,0.045,0.142,0.079,0.21c0.107,0.213,0.221,0.423,0.316,0.641
				c0.088,0.202,0.057,0.244-0.194,0.31c0.066,0.214,0.127,0.43,0.199,0.642c0.034,0.101,0.027,0.172-0.052,0.255
				c-0.117,0.122-0.122,0.268-0.002,0.34c0.274,0.165,0.284,0.446,0.24,0.678c-0.053,0.276,0.016,0.505,0.093,0.748
				c0.014,0.045,0.036,0.089,0.045,0.136c0.012,0.064,0.033,0.134-0.04,0.18c-0.131,0.082-0.064,0.177-0.021,0.273
				c0.119,0.259,0.239,0.518,0.353,0.779c0.035,0.081,0.096,0.173-0.042,0.237c-0.084,0.039-0.089,0.099-0.02,0.181
				c0.136,0.161,0.214,0.359,0.298,0.55c0.064,0.147,0.127,0.291,0.233,0.416c0.178,0.21,0.368,0.413,0.467,0.679
				c0.017,0.044,0.049,0.076,0.103,0.089c0.134,0.032,0.144,0.131,0.124,0.241c-0.074,0.063-0.129,0.002-0.186-0.022
				c-0.581-0.255-1.106-0.596-1.569-1.029c-0.129-0.121-0.251-0.232-0.451-0.163c-0.095,0.033-0.161-0.041-0.214-0.11
				c-0.098-0.129-0.195-0.259-0.289-0.39c-0.076-0.106-0.134-0.221-0.293-0.241c-0.123-0.015-0.173-0.141-0.227-0.24
				c-0.124-0.224-0.242-0.452-0.363-0.678c-0.19,0.096-0.221,0.095-0.32-0.054c-0.116-0.175-0.211-0.362-0.292-0.555
				c-0.047-0.113-0.085-0.233-0.181-0.312c-0.05-0.014-0.078,0.015-0.106,0.038c-0.12,0.098-0.187,0.05-0.229-0.079
				c-0.077-0.235-0.155-0.47-0.232-0.705c-0.03-0.09-0.059-0.18-0.095-0.294c-0.176,0.124-0.281,0.04-0.376-0.104
				c-0.157-0.239-0.302-0.492-0.493-0.7c-0.229-0.249-0.339-0.542-0.442-0.851c-0.052-0.155-0.057-0.372-0.325-0.347
				c-0.06,0.006-0.086-0.09-0.118-0.149c-0.115-0.213-0.154-0.449-0.222-0.676c-0.043-0.145-0.033-0.32-0.248-0.369
				c-0.081-0.019-0.117-0.145-0.136-0.24c-0.043-0.215-0.09-0.43-0.114-0.647c-0.013-0.12-0.056-0.196-0.165-0.238
				c-0.134-0.051-0.181-0.155-0.192-0.289c-0.008-0.104-0.036-0.206-0.047-0.31c-0.015-0.133-0.011-0.268-0.201-0.283
				c-0.075-0.006-0.087-0.095-0.112-0.154c-0.078-0.185-0.133-0.377-0.16-0.577c-0.013-0.095-0.063-0.148-0.153-0.072
				c-0.081,0.068-0.106,0.032-0.141-0.044c-0.099-0.211-0.139-0.435-0.154-0.664c-0.006-0.099-0.001-0.196-0.151-0.179
				c-0.099,0.012-0.115-0.072-0.143-0.146c-0.07-0.184-0.067-0.375-0.066-0.565c0.001-0.125-0.009-0.218-0.173-0.152
				c-0.072,0.029-0.109-0.016-0.117-0.08c-0.018-0.142-0.019-0.286-0.046-0.426c-0.03-0.161-0.014-0.35-0.247-0.402
				c-0.097-0.022-0.108-0.151-0.139-0.239c-0.181-0.522-0.354-1.047-0.539-1.567c-0.069-0.194-0.117-0.4-0.257-0.574
				c-0.23,0.177-0.404,0.37-0.44,0.666c-0.012,0.099-0.067,0.204-0.169,0.255c-0.103,0.051-0.15,0.144-0.194,0.239
				c-0.084,0.181-0.119,0.337-0.026,0.558c0.142,0.338,0.182,0.72,0.166,1.095c-0.005,0.11,0.008,0.206,0.063,0.301
				c0.092,0.158,0.141,0.333,0.191,0.508c0.016,0.054,0.061,0.118,0.029,0.165c-0.156,0.228-0.02,0.441,0.027,0.657
				c0.027,0.124,0.08,0.237-0.071,0.322c-0.058,0.033-0.027,0.1-0.013,0.156c0.041,0.157,0.084,0.313,0.11,0.473
				c0.017,0.105,0.069,0.226-0.063,0.31c-0.083,0.052-0.047,0.137-0.033,0.209c0.028,0.15,0.064,0.298,0.094,0.447
				c0.024,0.117,0.03,0.229-0.099,0.298c-0.11,0.058-0.09,0.156-0.069,0.251c0.027,0.121,0.058,0.241,0.083,0.362
				c0.015,0.075,0.042,0.177-0.012,0.222c-0.216,0.18-0.114,0.403-0.088,0.606c0.02,0.155,0.036,0.279-0.126,0.365
				c-0.085,0.045-0.048,0.136-0.042,0.209c0.014,0.162,0.036,0.323,0.049,0.484c0.007,0.092-0.018,0.173-0.125,0.193
				c-0.139,0.027-0.107,0.104-0.089,0.211c0.049,0.298,0.114,0.598,0.082,0.905c-0.266,0.004-0.281,0.013-0.272,0.267
				c0.009,0.248,0.039,0.495,0.047,0.743c0.004,0.121,0.051,0.28-0.183,0.26c-0.088-0.007-0.086,0.102-0.079,0.182
				c0.02,0.238,0.031,0.476,0.058,0.713c0.01,0.091-0.001,0.159-0.097,0.17c-0.197,0.022-0.206,0.172-0.219,0.313
				c-0.043,0.466-0.144,0.922-0.235,1.38c-0.111,0.562-0.349,1.066-0.643,1.549c-0.044,0.073-0.1,0.139-0.15,0.209
				c-0.023,0.033-0.05,0.062-0.091,0.051c-0.044-0.012-0.053-0.056-0.05-0.093c0.008-0.105,0.014-0.211,0.035-0.313
				c0.165-0.808,0.125-1.613-0.035-2.416c-0.058-0.291-0.206-0.553-0.277-0.84c-0.014-0.056-0.044-0.11-0.117-0.102
				c-0.177,0.02-0.176-0.101-0.177-0.219c-0.001-0.086,0.004-0.172,0.006-0.257c0.003-0.139,0.05-0.298-0.166-0.331
				c-0.053-0.008-0.057-0.071-0.059-0.118c-0.006-0.133-0.011-0.267-0.012-0.4c-0.002-0.124,0.009-0.248-0.052-0.384
				c-0.209,0.09-0.324-0.052-0.448-0.186c-0.097-0.105-0.162-0.275-0.366-0.174c-0.057,0.028-0.104-0.045-0.135-0.087
				c-0.204-0.285-0.484-0.467-0.779-0.649c-0.259-0.16-0.511-0.32-0.801-0.417c-0.242-0.081-0.299-0.059-0.296,0.192
				c0.005,0.372-0.013,0.743-0.021,1.115c-0.026,1.231-0.098,2.462-0.055,3.695c0.046,1.336,0.139,2.668,0.248,4
				c0.058,0.713,0.101,1.428,0.167,2.14c0.005,0.057,0.007,0.115,0.001,0.171c-0.02,0.178-0.064,0.223-0.238,0.188
				c-0.156-0.031-0.282-0.009-0.388,0.114c-0.1-0.096-0.095-0.227-0.115-0.343c-0.111-0.63-0.188-1.264-0.216-1.905
				c-0.045-1.02-0.109-2.04-0.17-3.059c-0.044-0.743-0.032-1.486-0.018-2.229c0.017-0.935-0.036-1.868-0.031-2.802
				c0.001-0.118-0.039-0.226-0.104-0.323c-0.047-0.071-0.103-0.137-0.158-0.203c-0.268-0.325-0.307-0.334-0.672-0.123
				c-0.09,0.052-0.173,0.118-0.253,0.186c-0.113,0.095-0.148,0.214-0.103,0.36c0.078,0.255,0.154,0.511,0.221,0.769
				c0.027,0.104,0.083,0.222-0.048,0.308c-0.083,0.054-0.032,0.12-0.003,0.174c0.174,0.321,0.23,0.663,0.199,1.024
				c-0.009,0.103-0.008,0.215,0.02,0.313c0.075,0.26,0.017,0.515-0.037,0.762c-0.026,0.122-0.025,0.219,0.021,0.328
				c0.086,0.204,0.13,0.419,0.135,0.641c0.001,0.076,0.02,0.174-0.019,0.224c-0.143,0.19-0.086,0.4-0.099,0.606
				c-0.01,0.151,0.002,0.307-0.076,0.448c-0.021,0.039-0.033,0.093-0.027,0.137c0.068,0.468-0.028,0.933-0.027,1.4
				c0,0.39-0.027,0.787-0.06,1.18c-0.045,0.537-0.01,1.083,0.091,1.62C28.438,59.05,28.525,59.488,28.465,59.949z"/>
		</g>
	</g>
</g>
<path fill="#092F47" d="M36.086,22.177c-0.032-0.112-0.108-0.134-0.172-0.174c-0.401-0.25-0.721-0.587-1.01-0.955
	c-0.011-0.013-0.036-0.032-0.033-0.037c0.133-0.237-0.118-0.274-0.205-0.395c-0.044-0.061-0.123-0.094-0.146-0.172
	c-0.048-0.158-0.166-0.228-0.319-0.245c-0.083-0.009-0.118-0.042-0.114-0.125c0.006-0.121-0.025-0.244,0.06-0.357
	c0.036-0.048,0.051-0.129,0.043-0.192c-0.042-0.323,0.043-0.643,0.021-0.965c-0.001-0.019-0.002-0.038-0.002-0.057
	c0.001-0.07,0.011-0.141,0.088-0.162c0.087-0.024,0.114,0.051,0.138,0.112c0.088,0.231,0.163,0.468,0.262,0.694
	c0.083,0.189,0.088,0.436,0.36,0.502c0.06,0.015,0.075,0.126,0.097,0.2c0.038,0.128,0.076,0.255,0.14,0.374
	c0.037,0.068,0.074,0.16,0.145,0.167c0.184,0.019,0.239,0.163,0.328,0.282c0.096,0.128,0.182,0.267,0.346,0.331
	c0.103,0.04,0.147,0.142,0.202,0.232c0.098,0.16,0.186,0.336,0.418,0.342c0.083,0.002,0.124,0.082,0.167,0.145
	c0.064,0.095,0.125,0.191,0.191,0.284c0.069,0.096,0.149,0.156,0.284,0.153c0.153-0.003,0.238,0.096,0.208,0.233
	c-0.039,0.176-0.106,0.346-0.163,0.517c-0.009,0.026-0.031,0.065-0.048,0.066c-0.198,0.012-0.182,0.165-0.17,0.284
	c0.055,0.572-0.127,1.087-0.341,1.603c-0.109,0.262-0.163,0.548-0.233,0.825c-0.061,0.24-0.089,0.263-0.323,0.24
	c-1.045-0.102-2.006,0.137-2.881,0.719c-0.063,0.042-0.124,0.088-0.191,0.122c-0.039,0.02-0.091,0.041-0.129-0.011
	c-0.034-0.047-0.011-0.094,0.014-0.133c0.077-0.125,0.191-0.216,0.312-0.29c0.211-0.128,0.432-0.241,0.649-0.36
	c0.081-0.045,0.176-0.068,0.251-0.16c-0.224-0.075-0.422,0.094-0.631,0.054c-0.021-0.114,0.046-0.191,0.097-0.266
	c0.199-0.291,0.413-0.571,0.698-0.786c0.511-0.385,1.029-0.757,1.625-1.004c0.059-0.024,0.128-0.042,0.169-0.118
	c-0.076,0-0.149-0.015-0.213,0.002c-0.514,0.139-1.034,0.258-1.5,0.538c-0.153,0.092-0.326,0.145-0.467,0.268
	c-0.072,0.063-0.175,0.115-0.295,0.073c0.027-0.15,0.095-0.278,0.163-0.398c0.255-0.447,0.293-0.939,0.212-1.418
	c-0.05-0.296-0.096-0.607-0.197-0.934c-0.241,0.209-0.286,0.475-0.357,0.721c-0.105,0.365-0.192,0.735-0.289,1.102
	c-0.022,0.083-0.061,0.16-0.059,0.25c0.004,0.135-0.014,0.262-0.108,0.373c-0.065,0.076-0.061,0.179-0.061,0.275
	c0,0.174-0.048,0.34-0.078,0.508c-0.009,0.053-0.049,0.116-0.119,0.091c-0.051-0.018-0.043-0.079-0.036-0.124
	c0.09-0.598,0.066-1.201,0.065-1.802c-0.001-0.372-0.029-0.744-0.049-1.116c-0.01-0.201,0.05-0.37,0.188-0.521
	c0.154-0.169,0.287-0.356,0.438-0.527c0.143-0.162,0.208-0.16,0.379-0.019c0.153,0.126,0.319,0.239,0.442,0.4
	c0.028,0.037,0.066,0.09,0.104,0.094c0.369,0.043,0.603,0.35,0.932,0.469C35.607,22.084,35.822,22.194,36.086,22.177z"/>
<path fill="#092F47" d="M28.43,22.558c-0.14-0.124-0.137-0.271-0.171-0.406c-0.095-0.375-0.145-0.762-0.297-1.124
	c-0.054-0.128-0.057-0.278-0.075-0.419c-0.013-0.101-0.035-0.187-0.148-0.218c-0.099-0.027-0.141-0.093-0.113-0.195
	c0.05-0.181-0.021-0.337-0.104-0.489c-0.183-0.335-0.377-0.662-0.685-0.903c-0.088-0.069-0.118-0.163-0.032-0.245
	c0.302-0.289,0.379-0.698,0.556-1.051c0.147-0.294,0.22-0.626,0.321-0.943c0.1-0.315,0.07-0.642,0.079-0.965
	c0.004-0.158-0.032-0.324,0.052-0.473c0.122,0.004,0.168,0.101,0.214,0.176c0.224,0.365,0.512,0.688,0.704,1.075
	c0.025,0.05,0.062,0.098,0.105,0.134c0.468,0.399,0.919,0.825,1.474,1.102c0.24,0.12,0.368,0.278,0.381,0.546
	c0.007,0.141,0.052,0.28,0.077,0.42c0.011,0.063,0.037,0.129-0.033,0.198c-0.259-0.138-0.416-0.396-0.676-0.629
	c0.057,0.3,0.241,0.465,0.335,0.665c-0.028,0.026-0.045,0.052-0.054,0.049c-0.282-0.079-0.58-0.116-0.832-0.275
	c-0.134-0.085-0.275-0.135-0.427-0.147c-0.243-0.02-0.464-0.095-0.678-0.207c-0.106-0.056-0.211-0.137-0.34-0.095
	c-0.033,0.026-0.035,0.06-0.018,0.079c0.309,0.351,0.623,0.695,1.11,0.796c0.066,0.014,0.148,0.026,0.176,0.084
	c0.055,0.118,0.175,0.158,0.293,0.254c-0.308,0.131-0.529,0.335-0.768,0.514c-0.015,0.011-0.04,0.018-0.046,0.033
	c-0.124,0.313-0.434,0.368-0.689,0.498c-0.015,0.008-0.023,0.028-0.052,0.065c0.218,0.086,0.425,0.135,0.65,0.057
	c0.208-0.073,0.393-0.191,0.59-0.284c0.164-0.077,0.328-0.153,0.494-0.225c0.052-0.023,0.111-0.051,0.163-0.045
	c0.117,0.013,0.275-0.017,0.316,0.131c0.04,0.145-0.103,0.18-0.202,0.232c-0.085,0.044-0.175,0.084-0.184,0.214
	c0.219,0.017,0.413-0.151,0.696-0.109c-0.446,0.314-0.853,0.604-1.221,0.943C29,21.718,28.742,22.155,28.43,22.558z"/>
<path fill="#092F47" d="M32.683,41.518c0.052,0.012,0.07,0.019,0.089,0.02c0.195,0.014,0.19,0.012,0.159,0.207
	c-0.029,0.181-0.098,0.349-0.145,0.523c-0.022,0.08-0.063,0.149,0.034,0.226c0.077,0.06,0.022,0.158-0.007,0.239
	c-0.062,0.17-0.126,0.339-0.18,0.511c-0.018,0.056-0.049,0.143,0.069,0.139c0.106-0.004,0.106,0.069,0.091,0.133
	c-0.034,0.138-0.081,0.273-0.122,0.41c-0.046,0.152-0.106,0.291-0.016,0.463c0.072,0.137-0.025,0.297-0.048,0.446
	c-0.016,0.103-0.055,0.202-0.079,0.304c-0.017,0.073-0.007,0.145,0.091,0.127c0.15-0.027,0.127,0.066,0.115,0.152
	c-0.025,0.181-0.107,0.346-0.156,0.52c-0.021,0.074-0.068,0.139,0.05,0.212c0.111,0.068,0.067,0.225,0.033,0.341
	c-0.016,0.055-0.077,0.034-0.119,0.004c-0.158-0.111-0.288-0.249-0.383-0.418c-0.106-0.187-0.238-0.343-0.453-0.406
	c-0.063-0.019-0.097-0.052-0.106-0.117c-0.031-0.199-0.181-0.306-0.333-0.4c-0.131-0.081-0.255-0.163-0.35-0.286
	c-0.116-0.149-0.29-0.213-0.451-0.291c-0.18-0.086-0.252-0.216-0.233-0.412c0.055-0.569,0.102-1.139,0.161-1.707
	c0.021-0.208,0.056-0.416,0.124-0.615c0.021-0.062,0.038-0.131,0.151-0.152c0.308,0.667,0.614,1.34,0.735,2.118
	c0.182-0.155,0.253-0.337,0.276-0.496c0.042-0.292,0.207-0.584,0.056-0.889c0.069-0.238-0.013-0.445-0.134-0.642
	c-0.069-0.112-0.129-0.234-0.259-0.292c-0.079-0.035-0.104-0.112-0.125-0.183c-0.028-0.093-0.036-0.192,0.041-0.27
	c0.079-0.08,0.174-0.066,0.266-0.028c0.141,0.058,0.28,0.119,0.421,0.18c0.046,0.02,0.098,0.036,0.132-0.007
	c0.044-0.056,0.004-0.119-0.032-0.151c-0.099-0.087-0.2-0.176-0.328-0.221c-0.099-0.035-0.196-0.076-0.272-0.153
	c0.016-0.102,0.103-0.131,0.175-0.175c0.171-0.103,0.348-0.199,0.512-0.313c0.114-0.079,0.237-0.162,0.253-0.323
	c-0.159-0.108-0.244,0.155-0.427,0.05c0.291-0.336,0.761-0.458,0.985-0.864c0-0.017-0.021-0.032-0.048-0.042
	c-0.2-0.075-0.213-0.083-0.112-0.242c0.41-0.645,0.847-1.27,1.486-1.719c0.083-0.058,0.16-0.14,0.275-0.126
	c0.047,0.033,0.024,0.068,0.006,0.099c-0.411,0.732-0.717,1.513-1.087,2.265c-0.118,0.239-0.255,0.469-0.382,0.703
	c-0.044,0.08-0.082,0.156,0.054,0.194c0.117,0.032,0.07,0.114,0.036,0.182c-0.156,0.317-0.3,0.638-0.42,0.971
	C32.724,41.379,32.706,41.442,32.683,41.518z"/>
<path fill="#092F47" d="M31.252,21.43c0.147-0.179,0.16-0.375,0.284-0.52c0.079,0.026,0.085,0.097,0.102,0.155
	c0.128,0.434,0.158,0.879,0.154,1.329c0,0.01-0.003,0.019-0.002,0.029c0.009,0.233-0.178,0.428-0.057,0.702
	c0.093,0.21,0.029,0.489,0.035,0.737c0.007,0.248,0.013,0.496,0.022,0.744c0.006,0.181,0.014,0.362,0.025,0.543
	c0.01,0.18-0.021,0.332-0.18,0.453c-0.128,0.098-0.168,0.128-0.257,0.001c-0.102-0.147-0.261-0.214-0.39-0.367
	c-0.048,0.193,0.073,0.29,0.13,0.409c0.044,0.09,0.173,0.193-0.045,0.245c-0.066,0.016-0.017,0.078,0.012,0.111
	c0.088,0.1,0.178,0.198,0.268,0.297c0.068,0.075,0.149,0.144-0.022,0.2c-0.115,0.038-0.082,0.144-0.057,0.22
	c0.029,0.089,0.087,0.168,0.132,0.252c0.024,0.045,0.037,0.093-0.017,0.122c-0.044,0.024-0.104,0.023-0.132-0.015
	c-0.045-0.059-0.08-0.129-0.106-0.199c-0.141-0.384-0.275-0.774-0.48-1.129c-0.159-0.276-0.318-0.553-0.537-0.794
	c-0.135-0.148-0.226-0.34-0.316-0.522c-0.052-0.104-0.11-0.199-0.186-0.285c-0.253-0.285-0.497-0.578-0.761-0.853
	c-0.14-0.146-0.157-0.292-0.092-0.469c0.076-0.21,0.212-0.384,0.337-0.563c0.251-0.36,0.543-0.685,0.858-0.991
	c0.28-0.272,0.62-0.438,0.976-0.582c0.121-0.049,0.174-0.023,0.187,0.11C31.154,20.995,31.179,21.191,31.252,21.43z"/>
<path fill="#092F47" d="M33.907,16.702c0.308-0.015,0.561,0.11,0.823,0.185c0.563,0.162,1.071,0.437,1.548,0.774
	c0.031,0.022,0.06,0.056,0.095,0.063c0.421,0.084,0.705,0.395,1.042,0.62c0.122,0.081,0.237,0.191,0.414,0.146
	c0.073-0.018,0.134,0.057,0.189,0.111c0.081,0.08,0.159,0.164,0.244,0.24c0.063,0.056,0.13,0.139,0.218,0.116
	c0.171-0.046,0.269,0.067,0.383,0.145c0.149,0.102,0.289,0.214,0.481,0.234c0.13,0.013,0.207,0.128,0.304,0.204
	c0.149,0.118,0.282,0.259,0.504,0.223c0.092-0.015,0.111,0.054,0.082,0.132c-0.041,0.11-0.111,0.2-0.196,0.278
	c-0.043,0.039-0.088,0.042-0.117-0.01c-0.087-0.156-0.165-0.043-0.218,0.018c-0.093,0.107-0.163,0.234-0.249,0.348
	c-0.038,0.051-0.099,0.122-0.159,0.037c-0.089-0.125-0.14-0.06-0.184,0.025c-0.079,0.152-0.151,0.308-0.22,0.464
	c-0.02,0.044-0.049,0.121-0.077,0.105c-0.177-0.107-0.295,0.053-0.441,0.08c-0.098,0.018-0.183-0.085-0.178-0.152
	c0.015-0.248-0.173-0.318-0.327-0.419c-0.098-0.064-0.185-0.121-0.208-0.253c-0.024-0.135-0.149-0.188-0.255-0.253
	c-0.183-0.113-0.399-0.186-0.439-0.451c-0.013-0.089-0.128-0.135-0.211-0.18c-0.133-0.073-0.273-0.135-0.402-0.214
	c-0.103-0.063-0.251-0.095-0.183-0.293c0.027-0.077-0.1-0.153-0.173-0.212c-0.348-0.281-0.702-0.553-1.047-0.837
	c-0.332-0.274-0.623-0.588-0.877-0.937C34.004,16.946,33.934,16.857,33.907,16.702z"/>
<path fill="#092F47" d="M30.974,29.886c-0.103,0.051-0.179,0.09-0.256,0.126c-0.085,0.04-0.161,0.064-0.172,0.193
	c-0.012,0.145-0.171,0.165-0.282,0.206c-0.106,0.038-0.188,0.057-0.177,0.205c0.009,0.119-0.117,0.161-0.205,0.215
	c-0.157,0.096-0.335,0.15-0.393,0.374c-0.033,0.129-0.203,0.192-0.316,0.279c-0.09,0.07-0.174,0.13-0.21,0.256
	c-0.042,0.146-0.195,0.199-0.317,0.271c-0.045,0.027-0.095,0.021-0.126-0.025c-0.022-0.032-0.028-0.078,0.003-0.105
	c0.169-0.145,0.126-0.325,0.086-0.502c-0.04-0.176-0.083-0.352-0.129-0.527c-0.033-0.125-0.11-0.25,0.04-0.358
	c0.041-0.029,0.019-0.09,0.01-0.135c-0.041-0.206-0.032-0.417-0.074-0.624c-0.041-0.204-0.053-0.41-0.005-0.623
	c0.044-0.195-0.005-0.396-0.045-0.593c-0.024-0.119-0.055-0.235,0.052-0.347c0.075-0.079,0.051-0.202,0.029-0.303
	c-0.063-0.289-0.108-0.57-0.073-0.874c0.022-0.188-0.037-0.395-0.04-0.595c0-0.019-0.003-0.038-0.001-0.057
	c0.084-0.756-0.002-1.521,0.114-2.276c0.01-0.063-0.001-0.135,0.085-0.187c0.108,0.089,0.121,0.23,0.144,0.347
	c0.11,0.55,0.208,1.103,0.298,1.657c0.07,0.433,0.169,0.858,0.297,1.277c0.053,0.173,0.185,0.307,0.238,0.485
	c0.046,0.154,0.031,0.252-0.114,0.332c-0.551,0.304-0.698,0.845-0.812,1.404c-0.003,0.016,0.01,0.036,0.021,0.069
	c0.202-0.057,0.33-0.216,0.462-0.353c0.174-0.181,0.398-0.278,0.601-0.409c0.179-0.115,0.28-0.096,0.385,0.084
	c0.164,0.284,0.397,0.508,0.591,0.765C30.769,29.648,30.864,29.754,30.974,29.886z"/>
<path fill="#092F47" d="M35.572,27.726c0.052,0.078,0.031,0.121,0.005,0.162c-0.384,0.604-0.654,1.269-0.999,1.894
	c-0.106,0.192-0.205,0.387-0.316,0.576c-0.1,0.171-0.235,0.325-0.19,0.55c0.016,0.078-0.06,0.139-0.105,0.195
	c-0.233,0.291-0.439,0.597-0.562,0.954c-0.054,0.156-0.19,0.261-0.285,0.392c-0.167,0.229-0.371,0.439-0.377,0.75
	c-0.002,0.084-0.073,0.128-0.12,0.187c-0.233,0.29-0.454,0.584-0.597,0.935c-0.101,0.247-0.346,0.362-0.576,0.534
	c-0.051-0.166-0.05-0.305-0.021-0.439c0.111-0.523,0.152-1.056,0.218-1.585c0.05-0.397,0.151-0.785,0.207-1.182
	c0.032-0.225,0.182-0.392,0.429-0.436c0.046-0.008,0.112-0.012,0.133-0.042c0.139-0.202,0.294-0.099,0.449-0.033
	c0.146,0.063,0.279,0.165,0.476,0.142c-0.04-0.158-0.154-0.246-0.252-0.335c-0.191-0.174-0.148-0.318,0.097-0.386
	c0.175-0.049,0.274-0.152,0.362-0.295c0.094-0.152,0.174-0.31,0.386-0.352c0.117-0.023,0.173-0.165,0.256-0.254
	c0.414-0.446,0.593-1.04,0.966-1.51C35.276,27.993,35.374,27.813,35.572,27.726z"/>
<path fill="#092F47" d="M29.399,34.77c-0.191,0.01-0.391-0.061-0.564,0.102c-0.077,0.073-0.213-0.005-0.229-0.122
	c-0.016-0.112-0.036-0.235-0.008-0.34c0.082-0.306,0.026-0.606-0.014-0.906c-0.013-0.1-0.026-0.182,0.056-0.261
	c0.066-0.064,0.053-0.153,0.051-0.241c-0.002-0.097,0.024-0.196,0.163-0.176c0.111,0.016,0.206-0.034,0.298-0.082
	c0.111-0.059,0.224-0.106,0.352-0.093c0.082,0.009,0.151-0.027,0.215-0.065c0.125-0.076,0.255-0.115,0.403-0.124
	c0.135-0.009,0.256-0.073,0.349-0.176c0.116-0.128,0.265-0.178,0.429-0.202c0.209-0.031,0.243-0.004,0.223,0.2
	c-0.028,0.274-0.045,0.552-0.102,0.821c-0.068,0.319-0.048,0.645-0.107,0.964c-0.033,0.177-0.064,0.356-0.085,0.535
	c-0.014,0.121-0.071,0.171-0.187,0.158c-0.085-0.009-0.169-0.028-0.254-0.036c-0.197-0.018-0.387-0.125-0.594,0.033
	C29.707,34.823,29.533,34.77,29.399,34.77z"/>
<path fill="#092F47" d="M33.808,13.076c-0.243,0.193-0.296,0.48-0.512,0.649c-0.03,0.023-0.047,0.063-0.078,0.083
	c-0.061,0.04-0.12,0.121-0.201,0.071c-0.075-0.046-0.119-0.131-0.095-0.222c0.096-0.375-0.224-0.573-0.324-0.886
	c-0.127,0.093-0.087,0.186-0.079,0.26c0.018,0.161,0.052,0.32,0.087,0.478c0.049,0.217,0.007,0.417-0.099,0.606
	c-0.07,0.125-0.13,0.128-0.186-0.01c-0.173-0.427-0.52-0.724-0.789-1.078c-0.031-0.041-0.062-0.101-0.138-0.093
	c-0.082,0.047-0.036,0.122-0.018,0.173c0.035,0.098,0.078,0.2,0.145,0.278c0.268,0.309,0.216,0.672,0.186,1.03
	c-0.011,0.135-0.052,0.126-0.178,0.062c-0.218-0.112-0.286-0.309-0.362-0.514c-0.216-0.581-0.511-1.13-0.697-1.723
	c-0.05-0.16-0.127-0.317-0.116-0.514c0.202,0.078,0.351,0.214,0.52,0.313c0.335,0.195,0.705,0.274,1.075,0.365
	c0.34,0.083,0.679,0.179,0.995,0.338c0.23,0.116,0.454,0.242,0.719,0.265C33.698,13.008,33.731,13.037,33.808,13.076z"/>
<path fill="#092F47" d="M31.284,38.393c-0.12,0.016-0.145,0.136-0.235,0.17c-0.016-0.008-0.041-0.013-0.044-0.023
	c-0.148-0.515,0.031-0.923,0.512-1.111c0.251-0.098,0.49-0.203,0.678-0.402c0.032-0.033,0.084-0.076,0.12-0.071
	c0.233,0.035,0.295-0.158,0.394-0.291c0.141-0.19,0.252-0.409,0.52-0.451c0.009-0.001,0.02-0.007,0.024-0.014
	c0.15-0.26,0.393-0.186,0.611-0.156c0.307,0.043,0.619,0.065,0.927,0.17c-0.455,0.24-0.893,0.492-1.275,0.829
	c-0.382,0.338-0.686,0.75-1.043,1.159c-0.164-0.334,0.016-0.651-0.099-0.934c-0.098-0.016-0.114,0.068-0.147,0.116
	c-0.189,0.275-0.349,0.566-0.452,0.887c-0.055,0.171-0.121,0.341-0.238,0.483c-0.03,0.036-0.065,0.073-0.12,0.05
	c-0.039-0.017-0.05-0.053-0.057-0.092C31.34,38.608,31.36,38.498,31.284,38.393z"/>
<path fill="#092F47" d="M35.521,26.951c-0.047,0.134-0.147,0.157-0.226,0.197c-0.625,0.32-1.251,0.637-1.877,0.954
	c-0.085,0.043-0.175,0.07-0.166,0.198c0.02,0.261-0.225,0.205-0.356,0.283c-0.141,0.084-0.231-0.023-0.313-0.116
	c-0.077-0.087-0.103-0.188-0.018-0.283c0.206-0.23,0.373-0.516,0.738-0.528c0.064-0.002,0.146-0.018,0.168-0.083
	c0.035-0.101-0.114-0.084-0.131-0.198C34.028,27.084,34.72,26.799,35.521,26.951z"/>
<path fill="#092F47" d="M26.578,44.65c0.093-0.02,0.134,0.06,0.178,0.109c0.442,0.498,0.868,1.01,1.279,1.534
	c0.035,0.045,0.068,0.092,0.095,0.141c0.064,0.121,0.045,0.172-0.092,0.202c-0.119,0.026-0.237,0.047-0.405,0.145
	c0.243,0.025,0.372,0.167,0.547,0.216c0.105,0.029,0.185,0.099,0.251,0.182c0.113,0.141,0.092,0.209-0.07,0.298
	c-0.108,0.059-0.213,0.126-0.313,0.197c-0.119,0.084-0.191,0.046-0.235-0.078c-0.102-0.287-0.21-0.571-0.302-0.861
	c-0.163-0.518-0.339-1.03-0.616-1.5c-0.092-0.155-0.201-0.3-0.295-0.454C26.579,44.748,26.541,44.704,26.578,44.65z"/>
<path fill="#092F47" d="M33.591,15.062c-0.091-0.084-0.198-0.027-0.267-0.12c0.089-0.11,0.181-0.227,0.275-0.341
	c0.249-0.301,0.401-0.659,0.577-1.002c0.092-0.18,0.236-0.222,0.408-0.108c0.081,0.054,0.136,0.125,0.028,0.198
	c-0.122,0.083-0.162,0.209-0.2,0.334c-0.034,0.113-0.073,0.212-0.175,0.283c-0.091,0.064-0.132,0.165-0.129,0.273
	c0.006,0.255-0.075,0.49-0.179,0.713c-0.132,0.286-0.241,0.578-0.343,0.875c-0.062,0.182-0.15,0.242-0.334,0.248
	c-0.098,0.003-0.143-0.057-0.1-0.144c0.02-0.041,0.056-0.076,0.088-0.11c0.04-0.042,0.094-0.089,0.085-0.143
	c-0.04-0.244,0.091-0.459,0.104-0.692C33.438,15.213,33.486,15.133,33.591,15.062z"/>
<path fill="#092F47" d="M27.451,12.748c0.145,0.017,0.187,0.395,0.402,0.092c0.006,0.035,0.018,0.07,0.017,0.105
	c-0.009,0.384,0.054,0.754,0.185,1.116c0.078,0.217-0.022,0.358-0.27,0.412c-0.212,0.046-0.349-0.048-0.369-0.277
	c-0.014-0.169-0.024-0.346,0.007-0.511c0.053-0.276,0.035-0.546-0.003-0.818C27.416,12.83,27.411,12.793,27.451,12.748z"/>
<path fill="#092F47" d="M29.208,15.023c0.126-0.07,0.227-0.078,0.347-0.057c0.243,0.042,0.479,0.127,0.731,0.116
	c0.053-0.002,0.126,0.017,0.157,0.054c0.119,0.139,0.246,0.26,0.422,0.322c0.035,0.013,0.049,0.059,0.037,0.098
	c-0.013,0.042-0.053,0.052-0.091,0.053c-0.373,0.012-0.746,0.008-1.072-0.208C29.568,15.288,29.366,15.215,29.208,15.023z"/>
<path fill="#092F47" d="M28.325,13.91c0.036-0.143,0.074-0.339,0.138-0.526c0.049-0.144,0.125-0.152,0.261-0.062
	c0.126,0.084,0.255,0.165,0.381,0.249c0.108,0.072,0.188,0.161,0.156,0.306c-0.033,0.154-0.148,0.185-0.28,0.182
	c-0.155-0.004-0.298,0.057-0.449,0.077C28.334,14.163,28.315,14.149,28.325,13.91z"/>
<path fill="#092F47" d="M32.231,19.798c-0.077-0.437-0.154-0.871-0.228-1.306c-0.014-0.081,0.008-0.151,0.104-0.172
	c0.116-0.025,0.113,0.064,0.136,0.134c0.132,0.393,0.143,0.797,0.103,1.205C32.34,19.718,32.325,19.771,32.231,19.798z"/>
<path fill="#092F47" d="M31.17,18.947c-0.135-0.122-0.16-0.294-0.209-0.453c-0.049-0.159-0.044-0.334-0.191-0.459
	c-0.064-0.054-0.029-0.125,0.061-0.135c0.184-0.021,0.382,0.137,0.418,0.328c0.029,0.149,0.071,0.294,0.06,0.449
	C31.301,18.785,31.287,18.883,31.17,18.947z"/>
<path fill="#092F47" d="M32.788,16.789c-0.061,0.293-0.21,0.467-0.393,0.618c-0.062,0.051-0.116,0.075-0.195,0.003
	c-0.081-0.074-0.19-0.117-0.282-0.18c-0.061-0.041-0.062-0.103,0.006-0.129C32.2,16.996,32.479,16.9,32.788,16.789z"/>
<path fill="#092F47" d="M29.591,12.961c-0.013,0.053-0.017,0.092-0.031,0.126c-0.031,0.074-0.031,0.185-0.138,0.188
	c-0.092,0.002-0.106-0.099-0.132-0.164c-0.046-0.114-0.103-0.22-0.168-0.324c-0.05-0.08-0.102-0.18,0-0.252
	c0.091-0.064,0.16,0.015,0.214,0.08C29.432,12.728,29.562,12.817,29.591,12.961z"/>
<path fill="#092F47" d="M30.502,14.281c-0.117-0.166-0.259-0.172-0.393-0.193c-0.112-0.018-0.143-0.077-0.119-0.177
	c0.011-0.045,0.022-0.093,0.045-0.133c0.054-0.097,0.1-0.233,0.223-0.23c0.127,0.004,0.117,0.153,0.149,0.245
	C30.457,13.931,30.515,14.071,30.502,14.281z"/>
<path fill="#092F47" d="M32.894,15.388c0-0.119,0.073-0.165,0.258-0.168c0.077-0.001,0.131,0.008,0.122,0.106
	c-0.015,0.173-0.12,0.346-0.208,0.337C32.958,15.65,32.894,15.549,32.894,15.388z"/>
<path fill="#092F47" d="M29.536,47.123c-0.003,0.037,0.012,0.09-0.047,0.111c-0.041,0.015-0.077-0.006-0.102-0.033
	c-0.111-0.119-0.198-0.255-0.245-0.41c-0.023-0.076,0.031-0.104,0.098-0.086C29.391,46.747,29.537,46.953,29.536,47.123z"/>
<path fill="#092F47" d="M32.38,28.995c-0.097,0.018-0.115-0.042-0.109-0.116c0.009-0.11-0.005-0.24,0.128-0.286
	c0.082-0.029,0.228,0.131,0.236,0.243C32.641,28.924,32.538,28.988,32.38,28.995z"/>
<g>
	<path fill="#FFFFFF" d="M86.679,67.056l-6.93,20.988h-8.91L93.51,21.318h10.396l22.77,66.726h-9.207l-7.128-20.988H86.679z
		 M108.558,60.324l-6.533-19.206c-1.485-4.355-2.476-8.315-3.466-12.177h-0.197c-0.99,3.96-2.079,8.019-3.366,12.078l-6.534,19.305
		H108.558z"/>
	<path fill="#FFFFFF" d="M136.476,22.209c3.763-0.792,9.702-1.386,15.741-1.386c8.613,0,14.158,1.485,18.316,4.851
		c3.465,2.574,5.543,6.534,5.543,11.781c0,6.435-4.258,12.078-11.285,14.652v0.198c6.336,1.584,13.76,6.831,13.76,16.731
		c0,5.742-2.277,10.098-5.643,13.364c-4.652,4.258-12.178,6.237-23.066,6.237c-5.939,0-10.495-0.396-13.366-0.792V22.209z
		 M145.09,49.533h7.82c9.107,0,14.455-4.752,14.455-11.187c0-7.821-5.941-10.89-14.652-10.89c-3.961,0-6.238,0.297-7.623,0.594
		V49.533z M145.09,81.51c1.684,0.297,4.158,0.396,7.227,0.396c8.91,0,17.127-3.268,17.127-12.97c0-9.107-7.82-12.869-17.227-12.869
		h-7.127V81.51z"/>
	<path fill="#FFFFFF" d="M236.762,85.866c-3.168,1.584-9.504,3.168-17.621,3.168c-18.811,0-32.967-11.88-32.967-33.759
		c0-20.889,14.156-35.046,34.848-35.046c8.316,0,13.562,1.782,15.84,2.97l-2.078,7.029c-3.268-1.584-7.92-2.772-13.465-2.772
		c-15.643,0-26.037,9.999-26.037,27.522c0,16.334,9.406,26.828,25.641,26.828c5.248,0,10.594-1.089,14.059-2.771L236.762,85.866z"/>
</g>
</svg>
