<?xml version="1.0" encoding="utf-8"?>
<!-- Generator: Adobe Illustrator 17.0.0, SVG Export Plug-In . SVG Version: 6.00 Build 0)  -->
<!DOCTYPE svg PUBLIC "-//W3C//DTD SVG 1.1//EN" "http://www.w3.org/Graphics/SVG/1.1/DTD/svg11.dtd">
<svg version="1.1" id="Layer_1" xmlns="http://www.w3.org/2000/svg" xmlns:xlink="http://www.w3.org/1999/xlink" x="0px" y="0px"
	 width="260px" height="260px" viewBox="0 0 260 260" enable-background="new 0 0 260 260" xml:space="preserve">
<g id="K9e9Fh.tif">
	<g>
		<g>
			
				<linearGradient id="SVGID_1_" gradientUnits="userSpaceOnUse" x1="318.3146" y1="10.3827" x2="310.2043" y2="-183.458" gradientTransform="matrix(1 0 0 -1 -176 -4)">
				<stop  offset="0" style="stop-color:#FFFFFF"/>
				<stop  offset="0" style="stop-color:#F15B2B"/>
				<stop  offset="1" style="stop-color:#083047"/>
			</linearGradient>
			<path fill="url(#SVGID_1_)" d="M39.877,215.723c1.321-2.063,2.912-4.07,5.423-4.34c2.865-0.309,5.432-1.342,8.11-2.167
				c1.006-0.312,2.223-0.098,3.316,0.053c6.584,0.92,13.165,1.882,19.743,2.856c7.742,1.146,15.469,2.369,23.219,3.455
				c2.657,0.371,5.358,0.457,8.042,0.606c0.623,0.036,1.262-0.202,2.167-0.365c-2.876-0.787-5.503-1.214-7.872-2.238
				c-2.339-1.012-4.444-2.583-6.593-3.996c-0.923-0.609-0.843-1.339-0.009-2.167c1.867-1.852,4.052-2.802,6.673-2.862
				c7.967-0.172,15.834,0.433,23.537,2.642c6.539,1.876,12.744,0.424,18.906-1.918c4.411-1.677,9.009-2.538,13.788-2.298
				c5.04,0.252,9.57,1.909,13.625,4.824c4.72,3.396,9.446,6.795,13.996,10.407c5.346,4.245,9.971,9.226,14.026,14.729
				c5.121,6.943,10.968,13.251,16.896,19.497c2.25,2.372,4.37,4.865,6.774,7.555c-0.712,0.042-1.164,0.089-1.612,0.089
				c-14.447,0.015-28.895,0.015-43.342,0.062c-1.018,0.003-1.582-0.338-2.093-1.181c-2.458-4.061-5.56-7.581-9.368-10.404
				c-4.435-3.289-9.452-5.299-14.913-6.109c-2.122-0.315-4.28-0.561-6.424-0.573c-9.843-0.059-19.687-0.003-29.527-0.036
				c-4.794-0.015-9.532-0.692-13.794-2.924c-4.886-2.559-10.149-3.74-15.403-5.079c-8.193-2.09-16.41-4.108-24.516-6.492
				c-5.658-1.662-11.152-3.889-16.721-5.86c-0.825-0.291-1.642-0.686-2.496-0.81c-1.68-0.252-2.882-1.036-3.556-2.606
				C39.877,217.29,39.877,216.506,39.877,215.723z"/>
			
				<linearGradient id="SVGID_2_" gradientUnits="userSpaceOnUse" x1="315.0544" y1="10.5193" x2="306.944" y2="-183.3217" gradientTransform="matrix(1 0 0 -1 -176 -4)">
				<stop  offset="0" style="stop-color:#FFFFFF"/>
				<stop  offset="0" style="stop-color:#F15B2B"/>
				<stop  offset="1" style="stop-color:#083047"/>
			</linearGradient>
			<path fill="url(#SVGID_2_)" d="M81.233,208.399c7.127-18.443,20.135-29.741,39.133-34.185c1.98-0.332,8.139-0.781,10.912-0.974
				c3.111,0.119,2.921-0.071,7.466,0.742c8.855,1.65,16.849,5.058,23.848,10.692c6.985,5.622,12.18,12.545,15.736,21.174
				c-2.024-1.187-3.719-2.191-5.423-3.179c-4.426-2.571-9.259-3.63-14.314-3.699c-5.444-0.074-10.675,1.113-15.756,3.01
				c-3.458,1.291-6.967,2.393-10.716,1.971c-1.885-0.214-3.764-0.606-5.601-1.095c-5.762-1.538-11.648-1.995-17.573-2.253
				c-3.432-0.148-6.863-0.407-10.179,0.706c-3.856,1.297-6.952,3.506-8.401,7.537c-0.11,0.303-0.597,0.706-0.864,0.677
				C86.853,209.213,84.205,208.818,81.233,208.399z"/>
		</g>
		
			<linearGradient id="SVGID_3_" gradientUnits="userSpaceOnUse" x1="314.7558" y1="-172.2335" x2="314.7558" y2="-172.2335" gradientTransform="matrix(1 0 0 -1 -176 -4)">
			<stop  offset="0" style="stop-color:#FFFFFF"/>
			<stop  offset="0" style="stop-color:#F15B2B"/>
			<stop  offset="1" style="stop-color:#083047"/>
		</linearGradient>
		<path fill="url(#SVGID_3_)" d="M138.756,168.233"/>
	</g>
</g>
<g id="tuh4rI.tif">
	<g>
		<g>
			
				<linearGradient id="SVGID_4_" gradientUnits="userSpaceOnUse" x1="312.0968" y1="10.6428" x2="303.9861" y2="-183.1979" gradientTransform="matrix(1 0 0 -1 -176 -4)">
				<stop  offset="0" style="stop-color:#FFFFFF"/>
				<stop  offset="0" style="stop-color:#F15B2B"/>
				<stop  offset="1" style="stop-color:#083047"/>
			</linearGradient>
			<path fill="url(#SVGID_4_)" d="M124.374,177.973c-0.81-1.063-1.585-2.134-2.114-3.36c-0.614-1.428-1.181-2.876-1.9-4.257
				c-0.101-0.193-0.148-0.472-0.422-0.484c-0.436-0.021-0.54-0.347-0.692-0.65c-0.193-0.386-0.267-0.804-0.383-1.214
				c-0.131-0.466-0.05-1.072-0.79-1.113c-0.122-0.006-0.166-0.157-0.178-0.264c-0.163-1.38-0.724-2.68-0.825-4.073
				c-0.021-0.282-0.015-0.564-0.033-0.846c-0.012-0.196,0-0.472-0.181-0.54c-0.519-0.193-0.404-0.606-0.404-0.983
				c0-1.131,0.053-2.256-0.077-3.393c-0.101-0.888,0.062-1.808,0.092-2.713c0.009-0.261,0.095-0.564-0.362-0.617
				c-0.276-0.033-0.142-0.327-0.098-0.496c0.232-0.849,0.327-1.722,0.454-2.588c0.048-0.318,0.145-0.695-0.419-0.701
				c-0.264-0.003-0.249-0.276-0.226-0.466c0.077-0.588,0.199-1.17,0.261-1.76c0.065-0.603,0.235-1.187-0.202-1.787
				c-0.3-0.413-0.077-0.994-0.056-1.499c0.009-0.226,0.068-0.448,0.101-0.671c0.018-0.119-0.003-0.288-0.098-0.3
				c-0.742-0.092-0.413-0.641-0.368-0.974c0.148-1.092,0.389-2.173,0.561-3.265c0.371-2.324,0.543-4.666,0.519-7.02
				c0-0.107-0.056-0.214-0.095-0.35c-0.359,0.113-0.582,0.353-0.81,0.594c-1.404,1.496-2.544,3.179-3.532,4.969
				c-0.365,0.662-0.638,1.392-1.368,1.781c-0.243,0.131-0.276,0.422-0.362,0.656c-0.249,0.692-0.448,1.407-0.721,2.09
				c-0.609,1.526-1.505,2.915-2.099,4.45c-0.071,0.181-0.172,0.424-0.371,0.439c-0.617,0.045-0.659,0.496-0.757,0.944
				c-0.294,1.36-0.766,2.657-1.371,3.844c-0.113,0.125-0.196,0.092-0.273,0.062c-0.632-0.246-0.742-0.22-0.876,0.413
				c-0.169,0.81-0.419,1.588-0.757,2.336c-0.145,0.324-0.208,0.816-0.804,0.487c-0.178-0.098-0.261,0.172-0.291,0.329
				c-0.128,0.641-0.35,1.253-0.6,1.852c-0.131,0.312-0.318,0.6-0.496,0.888c-0.053,0.086-0.205,0.214-0.246,0.193
				c-0.73-0.374-0.709,0.285-0.849,0.641c-0.19,0.475-0.416,0.932-0.665,1.374c-0.181,0.318-0.38,0.721-0.727,0.799
				c-0.659,0.148-0.891,0.635-1.146,1.143c-0.27,0.531-0.514,1.078-0.828,1.579c-0.199,0.318-0.285,0.941-0.947,0.54
				c-0.107-0.065-0.285,0.107-0.38,0.273c-0.291,0.517-0.609,1.021-0.92,1.529c-0.27,0.439-0.537,0.864-1.167,0.822
				c-0.389-0.027-0.617,0.273-0.79,0.567c-0.505,0.861-1.095,1.633-1.927,2.22c-0.285,0.202-0.448,0.576-0.656,0.879
				c-0.16,0.234-0.249,0.546-0.46,0.706c-0.917,0.704-1.229,1.799-1.823,2.707c-0.187,0.285-0.276,0.733-0.807,0.416
				c-0.193-0.116-0.353,0.104-0.466,0.273c-2.096,3.176-3.918,6.486-4.904,10.197c-0.145,0.546-0.297,1.089-0.457,1.633
				c-0.021,0.074-0.095,0.137-0.142,0.199c-0.252-0.068-0.255-0.279-0.291-0.466c-0.466-2.413-0.537-4.836-0.223-7.273
				c0.101-0.781,0.285-1.538,0.098-2.351c-0.151-0.662,0.131-1.342,0.252-2.007c0.083-0.445,0.19-0.885,0.059-1.345
				c-0.092-0.318,0.053-0.609,0.154-0.905c0.178-0.537,0.356-1.078,0.237-1.662c-0.018-0.083-0.033-0.178-0.006-0.252
				c0.525-1.398,0.457-2.951,1.161-4.304c0.258-0.496,0.463-1.018,0.46-1.612c-0.003-0.433,0.303-0.781,0.519-1.146
				c0.318-0.531,0.677-1.045,0.531-1.734c-0.059-0.279,0.095-0.558,0.237-0.804c0.463-0.804,0.902-1.597,1.167-2.514
				c0.279-0.98,0.965-1.781,1.636-2.556c0.169-0.196,0.496-0.329,0.134-0.668c-0.151-0.14,0.098-0.282,0.202-0.398
				c0.718-0.801,1.437-1.6,2.161-2.393c0.208-0.226,0.487-0.398,0.285-0.787c-0.107-0.208,0.092-0.374,0.199-0.528
				c0.383-0.561,0.837-1.063,1.333-1.529c0.436-0.407,0.849-0.843,1.149-1.354c0.689-1.17,1.636-2.09,2.692-2.912
				c0.315-0.243,0.606-0.499,0.766-0.888c0.154-0.38,0.49-0.626,0.819-0.84c2.446-1.591,4.604-3.571,7.044-5.168
				c0.163-0.107,0.341-0.229,0.445-0.389c0.629-0.962,1.603-1.49,2.541-2.063c0.653-0.398,1.276-0.828,1.87-1.321
				c1.119-0.929,2.449-1.514,3.755-2.125c0.487-0.229,0.988-0.424,1.481-0.647c0.22-0.098,0.472-0.172,0.579-0.466
				c-0.362-0.125-0.647,0.024-0.932,0.122c-3.354,1.146-6.584,2.565-9.582,4.47c-0.659,0.419-1.268,0.968-2.146,0.885
				c-0.229-0.021-0.395,0.205-0.573,0.338c-0.404,0.312-0.79,0.644-1.199,0.947c-0.392,0.291-0.807,0.549-1.333,0.321
				c-0.252-0.11-0.43,0.062-0.617,0.181c-0.454,0.291-0.896,0.597-1.354,0.879c-0.327,0.199-0.609,0.451-1.083,0.303
				c-0.309-0.098-0.635,0.19-0.902,0.407c-0.508,0.41-1.051,0.769-1.642,1.051c-0.148,0.071-0.386,0.24-0.46,0.104
				c-0.324-0.576-0.677-0.16-1-0.059c-0.43,0.137-0.843,0.327-1.265,0.49c-0.377,0.145-0.712,0.448-1.178,0.14
				c-0.128-0.086-0.427,0.071-0.641,0.137c-0.65,0.196-1.291,0.419-1.947,0.6c-0.309,0.086-0.656,0.234-0.799-0.3
				c-0.068-0.258-0.344-0.086-0.514-0.03c-1.042,0.356-2.084,0.724-3.123,1.092c-0.264,0.095-0.505,0.264-0.709-0.128
				c-0.119-0.229-0.383-0.175-0.611-0.098c-0.454,0.154-0.917,0.288-1.374,0.436c-0.478,0.151-0.92,0.344-1.469,0.172
				c-0.401-0.125-0.813,0.166-1.193,0.356c-0.329,0.16-0.641,0.341-1.045,0.24c-0.35-0.086-0.659,0.122-0.968,0.252
				c-1.935,0.819-3.69,1.962-5.48,3.043c-0.65,0.392-1.273,0.828-1.918,1.253c-0.134-0.211,0.083-0.332,0.178-0.475
				c1.167-1.766,2.562-3.307,4.34-4.479c0.591-0.389,1.11-0.873,1.6-1.383c0.276-0.288,0.585-0.543,0.466-1.015
				c-0.065-0.255,0.166-0.347,0.318-0.448c0.329-0.22,0.677-0.413,1.021-0.609c0.199-0.113,0.49-0.22,0.519-0.413
				c0.107-0.715,0.704-0.819,1.199-1.054c0.229-0.107,0.49-0.157,0.712-0.273c0.347-0.184,0.852-0.172,0.879-0.775
				c0.009-0.211,0.321-0.3,0.525-0.386c0.392-0.163,0.796-0.297,1.19-0.448c0.181-0.071,0.454-0.05,0.525-0.237
				c0.202-0.534,0.706-0.508,1.11-0.647c0.558-0.196,1.137-0.344,1.698-0.534c0.237-0.08,0.534-0.166,0.62-0.413
				c0.169-0.496,0.576-0.579,0.986-0.686c0.383-0.101,0.766-0.202,1.146-0.312c0.19-0.053,0.439-0.068,0.555-0.199
				c0.579-0.647,1.416-0.629,2.143-0.885c0.264-0.092,0.517-0.125,0.695-0.416c0.166-0.273,0.537-0.264,0.843-0.306
				c0.448-0.062,0.977,0.018,1.333-0.196c0.84-0.502,1.725-0.332,2.6-0.38c0.232-0.012,0.469-0.042,0.626-0.217
				c0.327-0.365,0.73-0.374,1.167-0.327c0.395,0.042,0.793,0.059,1.187,0.083c0.285,0.015,0.585,0.048,0.68-0.329
				c0.045-0.172,0.187-0.202,0.324-0.214c0.422-0.042,0.852-0.122,1.27-0.089c0.502,0.042,0.953,0.021,1.348-0.332
				c0.184-0.166,0.43-0.122,0.65-0.116c3.633,0.128,7.255-0.199,10.882-0.344c0.576-0.024,1.152-0.107,1.888-0.178
				c-0.427-0.407-0.819-0.525-1.199-0.647c-1.054-0.335-2.119-0.629-3.215-0.787c-0.825-0.119-1.594-0.374-2.345-0.715
				c-0.178-0.08-0.395-0.166-0.496-0.318c-0.401-0.6-1.027-0.852-1.636-1.149c-0.327-0.16-0.62-0.356-0.778-0.733
				c-0.172-0.404-0.567-0.626-0.926-0.849c-1.158-0.724-1.775-1.855-2.298-3.046c-0.193-0.436-0.528-0.724-0.81-1.072
				c-0.22-0.273-0.561-0.478-0.389-0.944c0.104-0.285-0.217-0.427-0.377-0.614c-0.273-0.315-0.603-0.573-0.475-1.095
				c0.062-0.261-0.172-0.525-0.297-0.778c-0.558-1.146-1.083-2.301-1.33-3.565c-0.107-0.537-0.095-1.069-0.08-1.606
				c0.003-0.148,0.024-0.297,0.172-0.359c0.151-0.062,0.267,0.033,0.353,0.154c0.148,0.205,0.321,0.398,0.442,0.617
				c0.573,1.042,1.235,2.027,1.929,2.992c0.324,0.448,0.632,0.962,1.303,0.98c0.258,0.006,0.365,0.246,0.508,0.416
				c0.288,0.35,0.555,0.715,0.843,1.063c0.232,0.276,0.433,0.612,0.899,0.484c0.229-0.062,0.377,0.142,0.487,0.282
				c0.564,0.733,1.3,1.232,2.09,1.683c0.338,0.196,0.632,0.472,0.944,0.715c0.11,0.086,0.175,0.234,0.335,0.243
				c1.19,0.077,1.882,1.042,2.805,1.588c0.288,0.169,0.514,0.41,0.873,0.484c0.487,0.101,0.834,0.451,1.14,0.837
				c0.193,0.24,0.344,0.519,0.611,0.701c0.885,0.6,1.541,1.419,2.119,2.292c0.671,1.012,1.597,1.84,2.111,2.963
				c0.098,0.214,0.297,0.235,0.502,0.243c0.511,0.024,1.018,0.077,1.529,0.083c1.701,0.012,3.381,0.341,5.082,0.338
				c0.534,0,1.048,0.255,1.597,0.205c0.312-0.03,0.422-0.205,0.226-0.436c-0.528-0.623-1.066-1.208-1.912-1.472
				c-1.208-0.377-2.446-0.706-3.541-1.383c-0.071-0.045-0.131-0.104-0.297-0.24c1.428-0.059,2.773-0.172,4.04,0.261
				c1.315,0.451,2.17,1.567,3.123,2.586c0.297-0.338,0.41-0.677,0.433-1.03c0.142-2.206,0.493-4.39,0.54-6.602
				c0.024-1.075,0.036-1.089-1.009-1.446c-1.235-0.422-2.399-1.003-3.598-1.508c-0.157-0.065-0.392-0.107-0.451-0.427
				c1.428-0.154,2.847-0.433,4.174,0.374c0.416,0.252,0.953,0.172,1.342,0.543c0.282-0.558,0.347-1.137,0.047-1.671
				c-0.338-0.606-0.065-1.205-0.098-1.805c-0.003-0.086,0.039-0.193,0.134-0.166c0.603,0.166,0.451-0.3,0.496-0.588
				c0.11-0.724,0.211-1.452,0.142-2.229c-1.481,0.098-2.796,0.905-4.473,0.923c0.956-0.825,1.734-1.55,2.455-2.327
				c0.804-0.87,1.618-1.734,2.404-2.621c0.424-0.478,0.611-1.078,0.689-1.707c0.042-0.327-0.018-0.514-0.427-0.543
				c-1.843-0.128-3.684-0.071-5.524,0.05c-0.487,0.033-0.662,0.419-0.98,0.659c-0.407,0.309-0.386,0.6-0.371,1.009
				c0.018,0.561,0.214,1.199-0.469,1.582c-0.14,0.077-0.05,0.318-0.045,0.484c0.015,0.457,0.006,0.932-0.223,1.327
				c-0.3,0.522-0.276,1.063-0.3,1.627c-0.042,1.048-0.131,2.093-0.255,3.135c-0.116,0.938-0.116,1.861,0.021,2.793
				c0.071,0.487,0.145,0.988-0.042,1.552c-0.487-0.321-0.695-0.748-0.941-1.143c-0.902-1.437-1.365-3.037-1.695-4.681
				c-0.077-0.389-0.113-0.784-0.196-1.17c-0.065-0.309-0.048-0.709-0.609-0.519c-0.24,0.08-0.362-0.223-0.43-0.442
				c-0.148-0.46-0.223-0.935-0.279-1.413c-0.036-0.309-0.08-0.603-0.398-0.799c-0.294-0.184-0.279-0.534-0.309-0.843
				c-0.053-0.561-0.053-1.131-0.255-1.71c-0.852,0.062-1.639,0.392-2.443,0.617c-2.894,0.807-5.69,1.879-8.445,3.072
				c-1.327,0.576-2.728,0.917-4.18,1.095c-0.045-0.154,0.095-0.145,0.154-0.184c0.092-0.062,0.202-0.092,0.306-0.14
				c1.137-0.505,2.283-0.974,3.129-1.968c0.35-0.41,0.932-0.514,1.422-0.733c0.267-0.119,0.611-0.134,0.62-0.579
				c0.003-0.211,0.279-0.246,0.466-0.306c0.324-0.107,0.644-0.208,0.968-0.315c0.107-0.036,0.279-0.086,0.255-0.187
				c-0.157-0.662,0.401-0.567,0.727-0.712c0.392-0.178,0.891-0.16,1.069-0.709c0.065-0.196,0.383-0.205,0.603-0.255
				c0.597-0.14,1.217-0.208,1.659-0.736c0.128-0.154,0.398-0.217,0.614-0.261c0.677-0.145,1.235-0.546,1.855-0.813
				c0.211-0.092,0.3-0.237,0.282-0.463c-0.059-0.837,0.255-1.656,0.015-2.523c-0.151-0.549-0.024-1.184,0.027-1.775
				c0.059-0.695-0.163-0.986-0.997-1.024c-0.252-0.012-0.508,0.024-0.757-0.036c-0.137-0.033-0.27-0.074-0.481-0.134
				c0.436-0.368,0.929-0.368,1.377-0.466c0.454-0.101,0.721-0.306,0.632-0.804c-0.086-0.484,0.306-1.104-0.41-1.422
				c-0.074-0.033-0.077-0.261-0.083-0.398c-0.018-0.427,0.015-0.849,0.098-1.271c0.196-0.971,0.401-1.941,0.496-2.93
				c0.024-0.249,0.107-0.499,0.205-0.73c0.371-0.896,0.499-1.814,0.597-2.787c0.178-1.811,0.347-3.63,1.057-5.379
				c0.457-1.125,0.775-2.348,1.089-3.535c0.205-0.778,0.445-1.499,0.846-2.185c0.917-1.57,1.555-3.268,2.214-4.954
				c0.077-0.199,0.157-0.427,0.006-0.698c-0.623,0.243-0.896,0.822-1.226,1.315c-0.721,1.083-1.404,2.191-2.096,3.295
				c-0.169,0.27-0.347,0.591-0.644,0.644c-0.46,0.083-0.561,0.422-0.736,0.739c-0.368,0.668-0.742,1.336-1.128,1.995
				c-0.098,0.169-0.232,0.41-0.383,0.439c-0.6,0.122-0.632,0.626-0.819,1.048c-0.519,1.167-1.095,2.292-2.108,3.144
				c-0.332,0.282-0.528,0.73-0.781,1.104c-0.487,0.715-0.867,1.538-1.867,1.713c-0.267,0.047-0.324,0.365-0.439,0.591
				c-0.478,0.929-0.882,1.903-1.573,2.704c-0.237,0.276-0.386,0.704-0.923,0.555c-0.237-0.065-0.38,0.208-0.525,0.377
				c-0.481,0.555-0.947,1.128-1.443,1.671c-0.38,0.419-0.778,0.822-1.443,0.727c-0.288-0.039-0.511,0.154-0.73,0.362
				c-0.677,0.641-1.377,1.262-2.093,1.858c-0.208,0.172-0.43,0.493-0.804,0.202c-0.157-0.122-0.327,0.045-0.445,0.148
				c-0.235,0.202-0.442,0.439-0.668,0.653c-0.807,0.763-1.653,1.452-2.752,1.778c-0.597,0.178-1.14,0.505-1.671,0.828
				c-0.389,0.237-0.781,0.457-1.241,0.525c-0.318,0.047-0.552,0.258-0.807,0.436c-0.656,0.454-1.205,1.057-2.134,1.075
				c-0.419,0.009-0.831,0.442-1.244,0.689c-0.383,0.229-0.721,0.534-1.247,0.368c-0.181-0.056-0.433,0.089-0.647,0.163
				c-1.787,0.626-3.574,1.262-5.314,2.016c-1.217,0.528-2.396,1.146-3.598,1.71c-0.321,0.151-0.635,0.341-1.012,0.347
				c-0.163-0.389,0.086-0.576,0.315-0.796c1.238-1.187,2.645-2.114,4.206-2.823c1.134-0.514,2.28-1.009,3.331-1.686
				c0.597-0.383,1.116-0.861,1.686-1.273c0.154-0.113,0.35-0.229,0.235-0.478c-0.142-0.309,0.107-0.407,0.294-0.514
				c0.368-0.211,0.754-0.389,1.122-0.603c0.404-0.235,0.876-0.389,0.846-1.03c-0.012-0.288,0.347-0.422,0.585-0.567
				c0.531-0.324,1.078-0.623,1.606-0.95c0.229-0.142,0.525-0.279,0.119-0.603c-0.258-0.205,0.042-0.353,0.181-0.442
				c0.573-0.365,1.167-0.695,1.742-1.057c0.267-0.169,0.793-0.217,0.407-0.775c-0.08-0.116,0.154-0.279,0.282-0.383
				c0.374-0.303,0.772-0.579,1.137-0.888c0.235-0.199,0.754-0.353,0.175-0.775c-0.134-0.098,0.045-0.243,0.131-0.341
				c0.43-0.499,0.994-0.834,1.493-1.25c0.196-0.163,0.401-0.315,0.585-0.49c0.101-0.095,0.199-0.297,0.059-0.359
				c-0.692-0.3-0.122-0.505,0.065-0.641c0.457-0.329,0.959-0.597,1.437-0.899c0.137-0.086,0.353-0.255,0.172-0.386
				c-0.481-0.344-0.119-0.511,0.113-0.677c0.617-0.445,1.268-0.849,1.873-1.306c0.16-0.122,0.736-0.232,0.16-0.629
				c-0.145-0.101,0.095-0.294,0.217-0.383c0.73-0.531,1.472-1.048,2.209-1.567c0.255-0.181,0.514-0.356,0.769-0.534
				c0.151-0.107,0.267-0.243,0.148-0.422c-0.237-0.353,0.006-0.499,0.249-0.668c0.424-0.294,0.908-0.448,1.389-0.617
				c0.481-0.166,0.968-0.321,1.407-0.582c0.175-0.104,0.374-0.309,0.16-0.472c-0.466-0.35-0.137-0.496,0.131-0.629
				c0.807-0.407,1.624-0.796,2.446-1.176c0.309-0.142,0.662-0.196,0.57-0.686c-0.045-0.232,0.175-0.315,0.368-0.398
				c0.594-0.261,1.187-0.528,1.769-0.816c0.389-0.193,0.873-0.279,0.986-0.828c0.027-0.128,0.214-0.163,0.344-0.22
				c2.2-0.95,4.114-2.36,6.026-3.77c0.493-0.365,0.988-0.724,1.481-1.086c-0.122-0.258-0.291-0.166-0.448-0.116
				c-0.377,0.119-0.748,0.258-1.128,0.365c-0.757,0.211-1.466,0.591-2.292,0.573c-0.318-0.006-0.65,0.184-0.959,0.324
				c-0.508,0.226-0.968,0.517-1.585,0.315c-0.315-0.101-0.659,0.131-0.962,0.282c-1.208,0.611-2.565,0.914-3.675,1.734
				c-0.089,0.065-0.208,0.148-0.303,0.14c-0.766-0.068-1.345,0.341-1.938,0.727c-0.095,0.062-0.205,0.145-0.306,0.142
				c-0.828-0.039-1.425,0.487-2.099,0.828c-0.38,0.193-0.742,0.514-1.244,0.202c-0.169-0.104-0.433,0.077-0.626,0.199
				c-0.579,0.371-1.208,0.609-1.876,0.772c-0.3,0.074-0.576,0.229-0.864,0.347c-0.208,0.086-0.422,0.258-0.623,0.246
				c-0.852-0.048-1.514,0.422-2.226,0.748c-0.392,0.181-0.778,0.362-1.22,0.237c-0.335-0.095-0.606,0.074-0.894,0.187
				c-0.579,0.229-1.152,0.635-1.76,0.564c-0.986-0.119-1.808,0.309-2.695,0.546c-0.395,0.104-0.843,0.371-1.158-0.249
				c-0.157-0.312-0.576-0.116-0.87-0.098c-1.443,0.089-2.876,0.306-4.325,0.255c-0.644-0.021-1.282-0.071-1.995-0.22
				c0.255-0.282,0.552-0.347,0.837-0.439c1.802-0.579,3.657-0.997,5.42-1.701c0.546-0.22,1.14-0.389,1.422-0.997
				c0.033-0.071,0.113-0.142,0.184-0.166c1.078-0.318,1.775-1.291,2.847-1.627c0.401-0.125,0.748-0.371,1.036-0.709
				c0.377-0.442,0.95-0.591,1.455-0.837c0.422-0.205,0.932-0.276,1.11-0.816c0.021-0.065,0.125-0.122,0.202-0.145
				c1.253-0.368,2.238-1.315,3.529-1.615c0.656-0.151,1.318-0.324,1.861-0.775c0.178-0.145,0.422-0.142,0.65-0.172
				c0.867-0.119,1.734-0.243,2.571-0.531c0.974-0.335,2.016-0.27,3.016-0.46c0.991-0.187,1.965-0.128,2.96-0.05
				c1.297,0.098,2.594,0.232,3.892,0.27c0.983,0.03,1.971-0.187,2.963-0.068c0.505,0.059,1.006,0.145,1.514,0.193
				c0.332,0.03,0.674,0.065,1.012-0.062c0.101-0.534-0.276-0.849-0.576-1.164c-0.505-0.534-1.051-1.03-1.588-1.535
				c-0.54-0.508-1.018-1.063-1.333-1.742c-0.012-0.027-0.03-0.05-0.042-0.074c-0.902-1.496-2.131-2.784-2.752-4.53
				c-2.939,3.108-6.388,5.441-9.484,8.401c-0.107-0.908,0.226-1.505,0.609-2.033c0.997-1.377,1.754-2.918,2.764-4.272
				c1.161-1.555,1.888-3.339,2.948-4.942c0.187-0.282,0.306-0.609,0.478-0.896c0.208-0.344,0.113-0.626-0.089-0.938
				c-0.567-0.882-1.36-1.588-1.876-2.505c-0.086-0.154-0.3-0.261-0.478-0.338c-1.119-0.472-1.823-1.487-3.004-2.125
				c0.834-0.344,1.502-0.166,2.152-0.104c1.199,0.116,2.289,0.614,3.39,1.054c0.404,0.16,0.662,0.525,1.009,0.763
				c0.549,0.374,0.843,0.24,0.879-0.422c0.065-1.247,0.392-2.446,0.582-3.672c0.012-0.083,0.065-0.157,0.08-0.24
				c0.027-0.172,0.015-0.341-0.128-0.469c-0.172-0.154-0.327-0.021-0.46,0.053c-0.517,0.288-1.024,0.597-1.535,0.894
				c-0.312,0.181-0.594,0.463-0.941,0c-0.148-0.196-0.424-0.042-0.626,0.068c-0.472,0.258-0.941,0.522-1.413,0.778
				c-0.356,0.193-0.721,0.35-1.107,0.068c-0.101-0.074-0.196-0.101-0.312-0.056c-0.579,0.226-1.223,0.359-1.716,0.706
				c-0.365,0.258-0.573,0.258-0.704-0.077c-0.163-0.413-0.359-0.321-0.65-0.199c-0.626,0.261-1.259,0.508-1.9,0.736
				c-0.344,0.125-0.698,0.395-1.06-0.03c-0.134-0.157-0.383-0.006-0.564,0.053c-0.427,0.145-0.849,0.312-1.265,0.493
				c-0.356,0.154-0.68,0.413-1.078,0.05c-0.169-0.154-0.38,0.027-0.555,0.095c-0.525,0.202-1.018,0.338-1.627,0.235
				c-0.561-0.095-1.173,0.107-1.763,0.184c-1.066,0.142-2.134,0.285-3.215,0.258c-0.181-0.003-0.383,0.036-0.555-0.086
				c0.074-0.196,0.243-0.211,0.407-0.24c1.259-0.217,2.458-0.647,3.666-1.048c1.217-0.404,2.286-1.113,3.396-1.719
				c0.695-0.38,1.392-0.736,2.116-1.045c0.404-0.172,0.864-0.282,1.063-0.778c0.122-0.3,0.466-0.285,0.733-0.359
				c0.567-0.154,1.152-0.24,1.508-0.822c0.169-0.279,0.549-0.267,0.843-0.356c0.754-0.229,1.567-0.291,2.214-0.813
				c0.021-0.018,0.053-0.027,0.08-0.03c1.437-0.068,2.82-0.65,4.28-0.457c0.267,0.036,0.558,0.065,0.739-0.08
				c0.715-0.573,1.52-0.395,2.274-0.246c0.525,0.104,0.715-0.045,0.87-0.49c0.329-0.962,0.706-1.909,1.03-2.873
				c0.264-0.793,0.597-1.561,0.849-2.381c-0.787,0.321-1.365,0.84-1.737,1.582c-0.089,0.175-0.131,0.374-0.193,0.561
				c-0.119,0.368-0.151,0.79-0.754,0.677c-0.232-0.042-0.407,0.267-0.603,0.427c-0.891,0.739-1.742,1.547-2.954,1.745
				c-1.585,0.258-3.164,0.585-4.785,0.457c-0.389-0.03-0.775-0.065-1.184-0.294c0.205-0.261,0.472-0.309,0.736-0.383
				c1.006-0.288,2.016-0.567,3.01-0.894c0.831-0.273,1.591-0.686,2.232-1.41c-0.276-0.142-0.475-0.045-0.677,0.009
				c-1.146,0.306-2.265,0.724-3.464,0.813c-0.436,0.033-0.846-0.015-1.232-0.226c-0.113-0.062-0.166-0.142-0.16-0.27
				c0.048-0.021,0.098-0.062,0.142-0.059c2.069,0.196,3.773-0.79,5.503-1.689c0.229-0.119,0.416-0.285,0.561-0.505
				c0.125-0.187,0.291-0.344,0.439-0.514c0.905-1.033,1.968-1.772,3.387-1.906c0.463-0.045,0.888-0.199,0.983-0.819
				c-0.885-0.027-1.686,0.095-2.413,0.591c-1.125,0.769-2.327,1.407-3.595,1.906c-0.528,0.208-1.063,0.517-1.74,0.368
				c0.454-0.709,1.365-0.689,1.98-1.392c-1.431,0.083-2.681-0.255-3.942-0.119c-1.229,0.134-2.378,0.689-3.74,0.843
				c0.588-0.579,1.259-0.733,1.864-1.003c0.439-0.196,0.896-0.356,1.342-0.537c0.125-0.05,0.297-0.098,0.255-0.276
				c-0.039-0.163-0.181-0.196-0.338-0.14c-1.134,0.407-2.339,0.128-3.509,0.368c-0.653,0.134-1.401-0.021-2.102,0.125
				c-0.178,0.039-0.365-0.033-0.413-0.22c-0.095-0.383-0.306-0.312-0.558-0.19c-0.255,0.122-0.519,0.22-0.766,0.359
				c-0.41,0.232-0.804,0.377-1.268,0.11c-0.329-0.19-0.671-0.003-0.983,0.101c-1.368,0.454-2.719,0.962-4.096,1.389
				c-0.709,0.22-1.437,0.469-2.211,0.38c-0.015-0.267,0.181-0.321,0.327-0.371c1.915-0.644,3.66-1.639,5.411-2.621
				c0.62-0.347,1.262-0.632,1.932-0.861c0.359-0.122,0.813-0.119,0.959-0.594c0.006-0.021,0.039-0.05,0.059-0.05
				c1-0.003,1.665-0.994,2.701-0.908c0.22,0.018,0.454-0.039,0.668-0.11c1.814-0.603,3.684-0.787,5.584-0.751
				c0.332,0.006,0.677,0.092,0.962-0.187c0.193-0.187,0.422-0.074,0.644-0.045c0.867,0.122,1.716,0.413,2.609,0.243
				c0.128-0.024,0.291,0.027,0.383-0.27c-2.407-0.852-4.919-1.291-7.436-1.748c0.131-0.416,0.383-0.35,0.591-0.362
				c0.834-0.047,1.612,0.279,2.425,0.392c1.401,0.19,2.796,0.436,4.197,0.611c0.43,0.053,0.813,0.226,1.226,0.315
				c0.128,0.027,0.3,0.065,0.353-0.116c0.053-0.184-0.113-0.24-0.235-0.294c-0.597-0.261-1.211-0.484-1.858-0.573
				c-0.677-0.092-1.333-0.249-1.95-0.546c-0.386-0.187-0.801-0.27-1.217-0.359c-0.252-0.056-0.623,0-0.582-0.505
				c0.018-0.202-0.344-0.246-0.561-0.255c-0.623-0.027-1.256,0.018-1.686-0.588c-0.074-0.107-0.312-0.107-0.475-0.14
				c-0.493-0.098-1.033-0.089-1.312-0.629c-0.012-0.021-0.047-0.042-0.071-0.042c-0.908-0.027-1.558-0.68-2.357-0.977
				c-0.157-0.059-0.413-0.047-0.469-0.151c-0.318-0.611-0.92-0.573-1.452-0.686c-0.243-0.05-0.422-0.14-0.508-0.383
				c-0.142-0.401-0.416-0.582-0.846-0.534c-0.327,0.039-0.6-0.134-0.876-0.27c-0.092-0.045-0.217-0.169-0.104-0.261
				c0.478-0.38,0.027-0.511-0.187-0.647c-0.499-0.321-1.027-0.594-1.538-0.899c-0.888-0.531-1.383-1.063-1.817-1.927
				c0.184-0.142,0.318,0.012,0.454,0.089c1.066,0.609,2.268,0.864,3.396,1.312c0.407,0.163,0.873,0.187,1.339,0.092
				c0.614-0.125,1.193-0.042,1.805,0.211c0.801,0.329,1.674,0.514,2.532,0.671c0.974,0.178,1.918,0.469,2.873,0.692
				c1.018,0.235,1.941,0.617,2.802,1.137c1.561,0.944,3.212,1.778,4.476,3.15c0.128,0.14,0.14,0.128,0.656,0.246
				c-0.804-1.968-2.223-3.485-3.402-5.23c0.54-0.119,0.807,0.246,1.143,0.398c0.175,0.077,0.312,0.243,0.472,0.356
				c0.128,0.092,0.267,0.089,0.383-0.024c0.101-0.101,0.033-0.208-0.015-0.306c-0.208-0.445-0.57-0.873-0.166-1.389
				c-0.321-0.62-0.175-1.371-0.454-1.959c-0.279-0.582-0.558-1.164-0.807-1.76c-0.365-0.87-0.974-1.588-1.496-2.36
				c-0.329-0.484-0.704-0.947-0.849-1.671c0.793,0.335,1.22,0.932,1.745,1.401c0.549,0.493,1.012,1.066,1.46,1.645
				c0.436,0.564,1.116,0.876,1.475,1.514c0.356,0.632,0.896,1.122,1.398,1.683c0.053-0.905,0.332-1.775,0.175-2.666
				c-0.074-0.436-0.065-0.846,0.101-1.247c0.089-0.217,0.122-0.436,0.116-0.665c-0.012-0.475-0.122-0.971,0.324-1.342
				c0.05-0.042,0.05-0.16,0.047-0.243c-0.03-0.914,0.472-1.748,0.401-2.669c-0.003-0.027,0.006-0.059,0.021-0.083
				c0.451-0.801,0.567-1.728,1.042-2.538c0.368-0.626,0.855-1.181,1.146-1.855c0.065-0.151,0.172-0.321,0.306-0.395
				c0.644-0.353,0.819-0.98,0.98-1.615c0.229-0.905,0.454-1.811,0.674-2.719c0.048-0.193,0.059-0.395,0.27-0.537
				c0.306,0.683,0.341,1.407,0.398,2.128c0.027,0.338-0.08,0.718,0.036,1.015c0.419,1.075-0.047,2.143,0.05,3.197
				c0.068,0.721-0.071,1.401-0.11,2.099c-0.015,0.255-0.021,0.505-0.122,0.745c-0.142,0.347-0.214,0.704-0.009,1.063
				c0.053,0.095,0.104,0.223,0.089,0.324c-0.208,1.597,0.324,3.123,0.484,4.681c0.169,1.642,0.095,3.268,0.107,4.904
				c0,0.086,0.009,0.181-0.027,0.252c-0.481,0.956-0.416,2.045-0.751,3.037c-0.128,0.38-0.232,0.766-0.071,1.158
				c0.077,0.187,0.211,0.347,0.448,0.309c0.223-0.036,0.202-0.226,0.237-0.392c0.232-1.152,0.62-2.226,1.422-3.126
				c0.232-0.261,0.246-0.62,0.267-0.965c0.048-0.772,0.276-1.502,0.594-2.2c0.065-0.145,0.137-0.347,0.356-0.297
				c0.181,0.042,0.243,0.211,0.279,0.386c0.033,0.172,0.003,0.332-0.024,0.502c-0.027,0.16-0.042,0.35,0.151,0.445
				c0.232,0.113,0.377-0.053,0.505-0.199c0.368-0.424,0.79-0.822,1.075-1.297c0.543-0.905,1.377-1.558,1.977-2.416
				c0.279-0.401,0.555-0.799,0.683-1.259c0.344-1.223,0.715-2.44,0.914-3.702c0.074-0.463,0.19-0.932,0.549-1.377
				c0.35,0.617,0.255,1.211,0.199,1.778c-0.113,1.098-0.312,2.185-0.534,3.265c-0.065,0.318-0.178,0.668,0.062,0.983
				c0.03,0.042,0.074,0.122,0.056,0.14c-0.439,0.54-0.178,1.339-0.689,1.858c-0.16,0.163-0.365,0.341-0.05,0.626
				c0.202,0.184-0.071,0.41-0.211,0.567c-0.537,0.609-1.003,1.259-1.324,2.01c-0.125,0.291-0.297,0.558-0.561,0.733
				c-0.828,0.552-1.303,1.478-2.149,2.004c-0.128,0.08-0.22,0.175-0.208,0.338c0.068,0.914,0.282,1.826-0.012,2.85
				c1.042-0.303,1.766-0.733,2.072-1.656c0.128-0.389,0.3-0.721,0.632-0.977c0.252-0.193,0.401-0.472,0.543-0.754
				c0.113-0.226,0.178-0.484,0.427-0.611c0.252-0.128,0.315-0.359,0.386-0.614c0.131-0.484,0.217-1,0.742-1.276
				c0.237-0.125,0.166-0.398,0.184-0.62c0.03-0.371,0.074-0.727,0.448-0.947c0.297-0.175,0.365-0.502,0.41-0.807
				c0.071-0.463,0.202-0.864,0.623-1.149c0.175-0.119,0.273-0.353,0.401-0.54c0.288-0.419,0.534-0.864,1.015-1.119
				c0.184-0.098,0.312-0.318,0.445-0.499c0.288-0.386,0.54-0.751,1.104-0.837c0.451-0.071,0.733-0.514,1.012-0.867
				c0.558-0.715,1.048-1.478,1.463-2.286c0.125-0.243,0.208-0.519,0.505-0.706c0.196,0.451,0,0.816-0.134,1.152
				c-0.401,0.997-0.855,1.971-1.276,2.963c-0.211,0.493-0.371,0.986-0.392,1.544c-0.021,0.617-0.329,1.193-0.493,1.793
				c-0.252,0.917-0.617,1.808-1,2.681c-0.463,1.054-1.116,2.016-1.55,3.09c-0.071,0.175-0.217,0.324-0.395,0.573
				c1.229-0.142,2.155-0.79,3.167-1.315c0.151,0.374-0.089,0.514-0.27,0.653c-0.677,0.519-1.44,0.888-2.214,1.235
				c-0.742,0.332-1.535,0.591-1.995,1.351c-0.157,0.261-0.401,0.454-0.386,0.816c0.009,0.252-0.154,0.475-0.347,0.656
				c-0.923,0.882-1.888,1.71-2.983,2.372c-0.635,0.383-1.36,0.546-2.072,0.739c-0.683,0.184-1.368,0.362-2.013,0.656
				c-0.142,0.065-0.344,0.131-0.24,0.347c0.071,0.148,0.232,0.128,0.374,0.089c0.433-0.125,0.876-0.232,1.303-0.374
				c2.33-0.781,4.666-1.555,7.006-2.304c1.187-0.38,2.339-0.965,3.645-1.009c0.519-0.018,0.991-0.38,1.475-0.617
				c1.22-0.603,2.295-1.443,3.488-2.081c0.433-0.232,0.852-0.546,1.612-0.54c-1.238,1.282-2.734,1.932-3.951,2.995
				c0.704,0.137,1.799-0.11,2.68-0.558c0.484-0.246,0.902-0.588,1.327-0.914c0.629-0.481,1.232-0.991,1.953-1.348
				c0.27-0.134,0.505-0.368,0.715-0.594c0.368-0.398,0.766-0.751,1.241-1.015c0.145-0.08,0.3-0.178,0.404-0.306
				c1.107-1.354,2.615-2.235,3.927-3.348c0.582-0.493,1.164-0.986,1.745-1.481c0.11-0.092,0.211-0.187,0.368-0.157
				c0.22,0.202-0.012,0.291-0.101,0.404c-0.653,0.822-1.238,1.683-1.594,2.683c-0.276,0.772-0.849,1.327-1.455,1.849
				c-1.098,0.947-2.075,2.001-2.82,3.253c-0.03,0.047-0.05,0.107-0.089,0.142c-0.828,0.704-1.452,1.624-2.413,2.194
				c-0.846,0.502-1.683,1.027-2.452,1.653c-0.315,0.258-0.677,0.398-1.06,0.514c-1.46,0.445-2.918,0.899-4.378,1.348
				c-0.214,0.065-0.439,0.098-0.656,0.395c1.742-0.324,3.414-0.534,5.147-0.338c-0.175,0.285-0.433,0.261-0.671,0.288
				c-1.131,0.125-2.223,0.41-3.301,0.766c-0.537,0.178-1.066,0.371-1.499,0.766c-0.116,0.104-0.344,0.119-0.297,0.335
				c0.042,0.187,0.235,0.24,0.398,0.276c1.552,0.335,2.814,1.273,4.171,2.016c0.294,0.16,0.804,0.11,0.81,0.68
				c0.003,0.166,0.294,0.113,0.439,0.19c0.496,0.267,0.974,0.525,1.282,1.048c0.341,0.576,0.546,0.543,1.134,0.128
				c0.22-0.154,0.359-0.35,0.517-0.543c0.107-0.131,0.19-0.395,0.294-0.398c0.644-0.027,0.683-0.564,0.87-0.971
				c0.119-0.255,0.24-0.454,0.57-0.315c0.172,0.071,0.332,0.012,0.475-0.098c0.822-0.638,1.645-1.279,2.47-1.915
				c1.14-0.882,2.253-1.808,3.622-2.333c0.258-0.098,0.499-0.252,0.804-0.223c-0.071,0.404-0.416,0.528-0.668,0.736
				c-1.339,1.092-2.675,2.185-3.8,3.506c-0.318,0.374-0.617,0.736-0.517,1.282c0.056,0.3-0.08,0.57-0.306,0.757
				c-0.508,0.424-0.84,0.988-1.244,1.499c-0.433,0.549-0.962,1.015-1.413,1.552c-0.499,0.597-0.502,0.591-0.062,1.294
				c0.264,0.427,0.668,0.677,0.997,1.018c0.285,0.297,0.603,0.561,0.876,0.956c-0.487,0.05-0.816-0.098-1.134-0.282
				c-0.439-0.255-0.867-0.531-1.312-0.775c-0.223-0.122-0.475-0.258-0.712-0.258c-0.273,0-0.235,0.341-0.341,0.528
				c-0.134,0.235-0.392,0.321-0.6,0.46c-0.237,0.16-0.549,0.303-0.582,0.585c-0.068,0.594-0.502,0.846-0.902,1.152
				c-0.519,0.395-1.006,0.828-1.431,1.327c-0.267,0.312-0.543,0.632-0.567,1.092c0.353,0.104,0.531-0.116,0.727-0.246
				c1.377-0.905,2.805-1.701,4.414-2.119c0.469-0.122,0.917-0.237,1.407-0.027c0.344,0.148,0.727,0.03,1.086-0.062
				c0.493-0.128,0.983-0.27,1.481-0.374c0.294-0.059,0.579-0.122,0.852,0.178c0.282,0.309,0.698,0.131,1.051,0.068
				c0.668-0.116,1.33-0.285,2.013-0.303c0.35-0.009,0.718-0.092,1.009,0.27c0.163,0.208,0.487,0.119,0.73,0.077
				c1.487-0.252,2.998,0.068,4.485-0.19c0.19-0.033,0.469-0.059,0.576,0.045c0.469,0.463,0.941,0.22,1.419,0.083
				c0.43-0.122,0.846-0.229,1.066,0.321c0.092,0.229,0.273,0.261,0.481,0.255c0.398-0.012,0.793-0.027,1.19-0.033
				c0.338-0.003,0.701-0.047,0.991,0.16c0.454,0.324,0.944,0.303,1.463,0.261c0.502-0.039,1.024-0.059,1.425,0.35
				c0.175,0.178,0.422,0.154,0.632,0.217c1.888,0.564,3.826,0.784,5.791,0.772c0.252-0.003,0.496-0.053,0.724,0.137
				c0.223,0.184,0.487,0.05,0.733,0.027c0.582-0.056,1.152-0.306,1.814-0.116c-0.172,0.439-0.549,0.519-0.917,0.617
				c-1.018,0.267-2.069,0.35-3.108,0.442c-4.019,0.35-8.036,0.371-12.058-0.065c-3.633-0.395-7.252-0.953-10.912-1.06
				c-2.698-0.077-5.385-0.018-8.042,0.519c-0.614,0.125-1.262,0.223-1.832,0.778c0.579,0,1.042,0.033,1.502-0.006
				c1.947-0.163,3.895-0.291,5.848-0.092c0.419,0.042,0.843,0.086,1.22,0.309c0.564,0.332,1.187,0.341,1.814,0.3
				c0.822-0.056,1.618-0.068,2.345,0.457c0.347,0.252,0.822,0.163,1.244,0.202c0.395,0.036,0.796,0.018,1.19,0.039
				c0.226,0.012,0.487,0.003,0.632,0.196c0.353,0.472,0.867,0.472,1.371,0.531c0.617,0.071,1.217,0.175,1.781,0.49
				c0.335,0.187,0.754,0.237,1.137,0.327c0.772,0.178,1.555,0.324,2.057,1.039c0.125,0.178,0.341,0.187,0.528,0.243
				c0.718,0.205,1.365,0.511,1.888,1.081c0.353,0.386,0.558,0.365,1.021-0.003c0.784-0.626,1.306-1.478,1.909-2.262
				c0.324-0.422,0.576-0.911,1.057-1.199c0.329,0.193,0.255,0.472,0.196,0.748c-0.154,0.727-0.419,1.41-0.787,2.054
				c-0.252,0.442-0.505,0.888-0.727,1.345c-0.377,0.775-0.131,1.446,0.662,1.793c0.416,0.184,0.825,0.383,1.187,0.653
				c0.223,0.166,0.558,0.318,0.324,0.745c-0.151,0.276,0.175,0.324,0.335,0.356c0.534,0.107,1.024,0.335,1.505,0.564
				c0.338,0.163,0.754,0.291,0.813,0.781c0.036,0.291,0.294,0.324,0.511,0.368c0.508,0.104,0.968,0.327,1.404,0.588
				c0.235,0.14,0.603,0.232,0.318,0.668c-0.104,0.16,0.14,0.202,0.255,0.24c0.321,0.107,0.653,0.184,0.974,0.291
				c0.401,0.134,0.772,0.27,0.953,0.745c0.187,0.496,0.724,0.606,1.167,0.772c1.656,0.614,3.387,0.905,5.127,1.146
				c0.083,0.012,0.169,0.006,0.255,0.018c0.246,0.039,0.594,0.03,0.611,0.327c0.024,0.377-0.327,0.49-0.647,0.528
				c-1.493,0.181-2.989,0.291-4.491,0.083c-0.505-0.071-1.012-0.128-1.52-0.154c-0.261-0.012-0.57-0.089-0.706,0.297
				c-0.074,0.211-0.276,0.125-0.436,0.065c-0.318-0.119-0.635-0.24-0.956-0.35c-0.332-0.113-0.653-0.356-1.006,0.012
				c-0.142,0.148-0.371,0.039-0.558-0.045c-0.389-0.169-0.778-0.35-1.181-0.469c-0.377-0.11-0.739-0.422-1.184-0.059
				c-0.175,0.142-0.484-0.012-0.709-0.142c-0.487-0.282-0.974-0.57-1.472-0.831c-0.318-0.166-0.644-0.362-1.024-0.11
				c-0.285,0.19-0.549,0.021-0.793-0.113c-0.422-0.232-0.825-0.49-1.241-0.736c-0.229-0.137-0.487-0.258-0.692-0.009
				c-0.279,0.344-0.534,0.214-0.807,0.027c-0.071-0.048-0.128-0.119-0.205-0.151c-0.35-0.154-0.656-0.635-1.033-0.439
				c-0.463,0.24-0.947,0.641-1.075,1.152c-0.184,0.733-0.686,1.155-1.199,1.585c-0.392,0.327-0.807,0.567-0.757,1.208
				c0.027,0.338-0.383,0.525-0.638,0.742c-0.395,0.341-0.846,0.585-1.122,1.095c-0.208,0.383-0.116,0.546,0.137,0.763
				c0.255,0.22,0.522,0.427,0.772,0.656c0.184,0.166,0.309,0.356,0.015,0.546c-0.258,0.169-0.128,0.341,0.018,0.487
				c0.344,0.341,0.763,0.582,1.178,0.822c1.404,0.816,2.921,1.354,4.485,1.76c0.267,0.071,0.525,0.125,0.787,0.451
				c-1.639,0.113-3.141,0.024-4.619-0.38c-0.543-0.148-1.083-0.315-1.606-0.534c-0.466-0.196-0.95-0.35-1.481-0.19
				c-0.49,0.148-0.891-0.175-1.253-0.404c-0.692-0.433-1.547-0.335-2.232-0.769c-0.196-0.125-0.368,0.095-0.508,0.229
				c-0.564,0.531-1.244,0.908-1.645,1.656c-0.335,0.626-1.003,1.045-1.609,1.463c-1.285,0.888-2.256,2.048-2.909,3.47
				c-0.045,0.095-0.119,0.196-0.018,0.368c0.424-0.062,0.819-0.27,1.223-0.451c2.125-0.95,4.343-1.624,6.584-2.229
				c0.335-0.092,0.644-0.184,0.959,0.086c0.214,0.187,0.484,0.071,0.736,0.027c0.864-0.154,1.728-0.303,2.591-0.451
				c0.353-0.059,0.683-0.062,0.855,0.341c0.122,0.285,0.386,0.202,0.594,0.184c0.481-0.039,0.956-0.113,1.434-0.169
				c0.653-0.074,1.291-0.122,1.891,0.261c0.267,0.172,0.609,0.098,0.917,0.095c0.454-0.003,0.908-0.021,1.36-0.015
				c0.341,0.003,0.671,0.012,0.879,0.38c0.178,0.315,0.522,0.3,0.837,0.306c0.454,0.009,0.908-0.018,1.36,0.021
				c0.324,0.03,0.689,0.042,0.819,0.469c0.104,0.341,0.41,0.232,0.65,0.229c0.825-0.009,1.642,0.071,2.437,0.291
				c0.422,0.116,0.419,0.151,0.062,0.656c0.609,0.077,1.184,0.14,1.754,0.226c0.629,0.095,1.268,0.101,1.74,0.698
				c0.234,0.297,0.724,0.285,1.119,0.306c0.514,0.027,1.009,0.137,1.502,0.267c0.297,0.077,0.692,0.056,0.606,0.6
				c-0.045,0.276,0.285,0.303,0.508,0.324c0.534,0.05,1.078,0.006,1.603,0.172c0.134,0.042,0.362,0.039,0.392,0.116
				c0.234,0.597,0.781,0.629,1.276,0.751c0.522,0.131,1.045,0.261,1.573,0.356c1.909,0.338,3.829,0.416,5.759,0.181
				c0.3-0.036,0.609-0.006,0.983-0.006c-0.208,0.312-0.505,0.404-0.781,0.502c-2.36,0.834-4.776,1.41-7.29,1.508
				c-0.377,0.015-0.807-0.092-0.994,0.424c-0.05,0.137-0.249,0.086-0.389,0.095c-0.433,0.021-0.849-0.083-1.256-0.199
				c-0.365-0.104-0.715-0.169-1.083-0.053c-0.546,0.172-1.072-0.045-1.594-0.119c-0.784-0.113-1.547-0.27-2.351-0.145
				c-0.537,0.083-1.06-0.131-1.573-0.294c-0.368-0.119-0.721-0.264-1.137-0.033c-0.27,0.151-0.603-0.021-0.908-0.086
				c-0.641-0.14-1.268-0.481-1.953-0.042c-0.234,0.148-0.609-0.009-0.899-0.119c-0.484-0.181-0.977-0.258-1.496-0.258
				c-0.629-0.003-1.211-0.27-1.814-0.427c-0.407-0.107-0.793-0.249-1.22,0.006c-0.309,0.181-0.665,0.05-0.983-0.083
				c-0.312-0.131-0.62-0.273-0.929-0.413c-0.261-0.116-0.493-0.235-0.763,0.042c-0.181,0.187-0.422,0.042-0.623-0.074
				c-0.493-0.279-0.983-0.561-1.481-0.828c-0.395-0.211-0.793-0.484-1.226-0.033c-0.154,0.163-0.368,0.059-0.561-0.003
				c-0.65-0.211-1.262-0.502-1.82-0.891c-0.246-0.172-0.49-0.226-0.695-0.053c-0.347,0.291-0.635,0.11-0.932-0.039
				c-1.244-0.617-2.505-1.173-3.906-1.36c-1.167-0.154-2.315-0.154-3.467,0.086c-0.184,0.039-0.395,0.045-0.508,0.261
				c0.083,0.267,0.321,0.383,0.537,0.499c1.65,0.885,3.049,2.134,4.616,3.144c0.116,0.074,0.255,0.169,0.303,0.288
				c0.27,0.659,0.843,0.95,1.431,1.235c0.226,0.11,0.445,0.255,0.632,0.422c0.576,0.502,1.196,0.929,1.876,1.285
				c0.371,0.193,0.739,0.43,0.923,0.843c0.089,0.202,0.273,0.258,0.451,0.353c0.733,0.383,1.386,0.87,1.843,1.579
				c0.223,0.347,0.558,0.57,0.908,0.751c0.463,0.237,0.864,0.505,1.116,0.986c0.208,0.395,0.629,0.549,0.997,0.763
				c0.422,0.243,0.991,0.374,0.876,1.081c-0.033,0.202,0.202,0.235,0.353,0.306c0.332,0.154,0.665,0.312,0.991,0.478
				c0.294,0.148,0.638,0.24,0.514,0.727c-0.065,0.252,0.208,0.404,0.398,0.496c0.689,0.332,1.324,0.68,1.781,1.363
				c0.24,0.359,0.807,0.493,1.217,0.742c0.193,0.119,0.46,0.128,0.451,0.511c-0.006,0.27,0.356,0.404,0.591,0.552
				c0.309,0.199,0.626,0.38,0.938,0.573c0.119,0.074,0.321,0.166,0.324,0.255c0.042,0.801,0.683,0.712,1.187,0.849
				c0.454,0.122,0.902,0.214,1.208,0.677c0.193,0.291,0.603,0.404,0.941,0.552c0.932,0.407,1.894,0.748,2.597,1.55
				c0.282,0.324,0.739,0.404,1.131,0.54c1.983,0.695,3.806,1.728,5.691,2.63c0.531,0.255,0.988,0.635,1.404,1.066
				c-0.08,0.267-0.312,0.187-0.49,0.199c-1.256,0.071-2.485-0.145-3.705-0.407c-1.134-0.243-2.268-0.505-3.372-0.861
				c-0.514-0.166-1.018-0.223-1.579-0.116c-0.807,0.154-1.642,0.134-2.413-0.249c-0.181-0.089-0.371-0.145-0.576-0.107
				c-0.876,0.166-1.671-0.083-2.461-0.442c-0.264-0.119-0.629-0.401-0.804,0.157c-0.065,0.208-0.223,0.095-0.347,0.039
				c-0.309-0.14-0.62-0.276-0.926-0.422c-0.309-0.145-0.626-0.356-0.959-0.306c-0.828,0.125-1.49-0.252-2.155-0.62
				c-0.38-0.211-0.721-0.433-1.184-0.24c-0.214,0.089-0.43,0.012-0.641-0.113c-0.442-0.258-0.855-0.546-1.253-0.87
				c-0.424-0.35-0.804-0.704-1.466-0.704c-0.555,0-0.953-0.567-1.371-0.941c-0.297-0.264-0.552-0.522-1.009-0.54
				c-0.389-0.015-0.62-0.356-0.807-0.686c-0.237-0.422-0.517-0.787-0.938-1.069c-0.407-0.27-0.594-0.742-0.772-1.199
				c-0.098-0.252-0.16-0.567-0.582-0.371c-0.22,0.104-0.359-0.077-0.472-0.255c-0.237-0.383-0.519-0.739-0.698-1.161
				c-0.202-0.478-0.315-0.997-0.974-1.131c-0.327-0.068-0.448-0.49-0.597-0.79c-0.187-0.38-0.344-0.775-0.502-1.167
				c-0.101-0.252-0.208-0.463-0.546-0.389c-0.327,0.071-0.46-0.19-0.57-0.407c-0.243-0.478-0.448-0.977-0.68-1.46
				c-0.08-0.169-0.145-0.457-0.368-0.398c-0.525,0.137-0.546-0.261-0.656-0.552c-0.229-0.609-0.436-1.223-0.641-1.84
				c-0.107-0.329-0.193-0.606-0.638-0.668c-0.341-0.05-0.368-0.469-0.436-0.76c-0.282-1.211-0.543-2.431-0.813-3.645
				c-0.05-0.22-0.098-0.442-0.178-0.65c-0.104-0.273-0.089-0.739-0.481-0.683c-0.321,0.045-0.234,0.475-0.232,0.739
				c0.003,0.65,0.006,1.306,0.089,1.95c0.083,0.65,0.101,1.3,0.125,1.95c0.003,0.113,0.048,0.264-0.009,0.329
				c-0.647,0.757-0.252,1.624-0.237,2.434c0.015,0.831,0.107,1.647-0.487,2.342c-0.018,0.021-0.045,0.047-0.045,0.071
				c-0.05,1.175-0.579,2.214-0.956,3.295c-0.036,0.104-0.012,0.235-0.053,0.335c-0.692,1.639-1.214,3.337-1.808,5.011
				c-0.039,0.107-0.074,0.249-0.157,0.297c-0.721,0.398-0.769,1.193-1.098,1.82c-0.157,0.3-0.321,0.6-0.487,0.896
				c-0.116,0.208-0.232,0.398-0.522,0.208c-0.223-0.145-0.401-0.009-0.478,0.187c-0.324,0.813-0.626,1.636-1.057,2.404
				c-0.154,0.273,0.05,0.448,0.243,0.549c0.674,0.356,1.336,0.736,2.057,1c0.365,0.134,0.558,0.018,0.757-0.303
				c0.261-0.419,0.341-0.926,0.84-1.235c0.641-0.395,1.042-0.43,1.499,0.151c0.14,0.175,0.258,0.365,0.419,0.528
				c0.368,0.374,0.739,0.487,1.288,0.332c1.832-0.517,3.693-0.885,5.613-0.766c0.819,0.05,1.642,0.104,2.458,0.175
				c0.344,0.03,0.704,0.134,0.891,0.433c0.196,0.312,0.448,0.356,0.766,0.38c0.932,0.068,1.867,0.157,2.77,0.407
				c0.356,0.098,0.822,0.125,0.819,0.698c0,0.137,0.154,0.217,0.324,0.19c0.914-0.137,1.772,0.267,2.672,0.288
				c0.205,0.003,0.398,0.101,0.525,0.255c0.359,0.43,0.84,0.534,1.36,0.585c0.656,0.065,1.265,0.3,1.867,0.543
				c0.211,0.086,0.457,0.16,0.49,0.419c0.074,0.564,0.525,0.614,0.929,0.706c0.745,0.172,1.484,0.359,2.188,0.662
				c0.335,0.145,0.692,0.27,0.742,0.718c0.03,0.267,0.27,0.353,0.463,0.457c0.401,0.211,0.816,0.392,1.214,0.603
				c0.505,0.267,0.986,0.546,1.078,1.205c0.042,0.288,0.318,0.445,0.57,0.588c0.57,0.315,1.14,0.626,1.692,0.965
				c0.312,0.193,0.772,0.324,0.487,0.885c-0.095,0.187,0.131,0.279,0.279,0.362c0.641,0.359,1.285,0.706,1.918,1.081
				c0.315,0.187,0.62,0.38,0.353,0.87c-0.175,0.327,0.187,0.49,0.413,0.635c0.591,0.386,1.152,0.801,1.653,1.262
				c-0.027,0.338-0.413,0.312-0.496,0.57c0.579,0.448,1.137,0.876,1.692,1.306c0.312,0.243,0.609,0.505,0.831,0.84
				c0.125,0.187,0.303,0.347,0.056,0.579c-0.184,0.175-0.05,0.374,0.033,0.546c0.944,1.929,1.802,3.906,3.23,5.557
				c0.392,0.451,0.801,0.879,1.273,1.244c0.285,0.223,0.582,0.442,0.831,0.837c-0.422,0.119-0.733,0.012-1.048-0.166
				c-1.321-0.736-2.479-1.68-3.538-2.752c-1.33-1.348-2.609-2.746-3.987-4.052c-1.46-1.386-2.971-2.689-4.655-3.8
				c-2.17-1.434-4.236-3.025-6.51-4.298c-3.5-1.962-7.053-3.82-10.654-5.596c-3.013-1.484-6.118-2.648-9.395-3.372
				c-0.353-0.077-0.858-0.279-1.003,0.053c-0.166,0.377,0.398,0.508,0.653,0.736c0.318,0.285,0.704,0.466,1.081,0.656
				c0.252,0.128,0.517,0.237,0.748,0.395c1.345,0.92,2.814,1.695,3.998,2.814c0.888,0.84,1.823,1.68,2.443,2.773
				c0.276,0.487,0.787,0.718,1.178,1.075c0.451,0.41,0.852,0.819,0.991,1.431c0.074,0.321,0.294,0.537,0.525,0.748
				c0.689,0.632,1.348,1.285,1.873,2.069c0.255,0.38,0.638,0.641,0.997,0.917c0.404,0.312,0.807,0.62,1.149,1.003
				c0.208,0.235,0.442,0.439,0.243,0.813c-0.113,0.208,0.056,0.329,0.226,0.472c0.386,0.329,0.751,0.689,1.078,1.075
				c0.234,0.279,0.623,0.525,0.341,1.021c-0.101,0.181,0.128,0.356,0.264,0.496c0.451,0.466,0.908,0.932,1.374,1.386
				c0.196,0.19,0.329,0.365,0.22,0.665c-0.16,0.439,0.059,0.745,0.395,1.012c0.742,0.594,1.357,1.276,1.6,2.235
				c0.077,0.303,0.327,0.528,0.546,0.748c0.665,0.656,1.143,1.401,1.152,2.378c0.003,0.324,0.196,0.579,0.356,0.846
				c0.344,0.579,0.739,1.137,0.549,1.885c-0.056,0.217,0.134,0.422,0.234,0.623c0.318,0.632,0.656,1.256,0.938,1.903
				c0.261,0.6,0.169,0.724-0.576,0.92c0.196,0.635,0.377,1.276,0.591,1.906c0.101,0.3,0.08,0.511-0.154,0.757
				c-0.347,0.362-0.362,0.796-0.006,1.009c0.813,0.49,0.843,1.324,0.712,2.013c-0.157,0.819,0.047,1.499,0.276,2.22
				c0.042,0.134,0.107,0.264,0.134,0.404c0.036,0.19,0.098,0.398-0.119,0.534c-0.389,0.243-0.19,0.525-0.062,0.81
				c0.353,0.769,0.709,1.538,1.048,2.312c0.104,0.24,0.285,0.514-0.125,0.704c-0.249,0.116-0.264,0.294-0.059,0.537
				c0.404,0.478,0.635,1.066,0.885,1.633c0.19,0.436,0.377,0.864,0.692,1.235c0.528,0.623,1.092,1.226,1.386,2.016
				c0.05,0.131,0.145,0.226,0.306,0.264c0.398,0.095,0.427,0.389,0.368,0.715c-0.22,0.187-0.383,0.006-0.552-0.065
				c-1.725-0.757-3.283-1.769-4.657-3.055c-0.383-0.359-0.745-0.689-1.339-0.484c-0.282,0.098-0.478-0.122-0.635-0.327
				c-0.291-0.383-0.579-0.769-0.858-1.158c-0.226-0.315-0.398-0.656-0.87-0.715c-0.365-0.045-0.514-0.419-0.674-0.712
				c-0.368-0.665-0.718-1.342-1.078-2.013c-0.564,0.285-0.656,0.282-0.95-0.16c-0.344-0.519-0.626-1.075-0.867-1.647
				c-0.14-0.335-0.252-0.692-0.537-0.926c-0.148-0.042-0.232,0.045-0.315,0.113c-0.356,0.291-0.555,0.148-0.68-0.235
				c-0.229-0.698-0.46-1.395-0.689-2.093c-0.089-0.267-0.175-0.534-0.282-0.873c-0.522,0.368-0.834,0.119-1.116-0.309
				c-0.466-0.709-0.896-1.46-1.463-2.078c-0.68-0.739-1.006-1.609-1.312-2.526c-0.154-0.46-0.169-1.104-0.965-1.03
				c-0.178,0.018-0.255-0.267-0.35-0.442c-0.341-0.632-0.457-1.333-0.659-2.007c-0.128-0.43-0.098-0.95-0.736-1.095
				c-0.24-0.056-0.347-0.43-0.404-0.712c-0.128-0.638-0.267-1.276-0.338-1.921c-0.039-0.356-0.166-0.582-0.49-0.706
				c-0.398-0.151-0.537-0.46-0.57-0.858c-0.024-0.309-0.107-0.612-0.14-0.92c-0.045-0.395-0.033-0.796-0.597-0.84
				c-0.223-0.018-0.258-0.282-0.332-0.457c-0.232-0.549-0.395-1.119-0.475-1.713c-0.039-0.282-0.187-0.439-0.454-0.214
				c-0.24,0.202-0.315,0.095-0.419-0.131c-0.294-0.626-0.413-1.291-0.457-1.971c-0.018-0.294-0.003-0.582-0.448-0.531
				c-0.294,0.036-0.341-0.214-0.424-0.433c-0.208-0.546-0.199-1.113-0.196-1.677c0.003-0.371-0.027-0.647-0.514-0.451
				c-0.214,0.086-0.324-0.047-0.347-0.237c-0.053-0.422-0.056-0.849-0.137-1.265c-0.089-0.478-0.042-1.039-0.733-1.193
				c-0.288-0.065-0.321-0.448-0.413-0.709c-0.537-1.55-1.051-3.108-1.6-4.652c-0.205-0.576-0.347-1.187-0.763-1.704
				c-0.683,0.525-1.199,1.098-1.306,1.977c-0.036,0.294-0.199,0.606-0.502,0.757c-0.306,0.151-0.445,0.427-0.576,0.709
				c-0.249,0.537-0.353,1-0.077,1.656c0.422,1.003,0.54,2.137,0.493,3.25c-0.015,0.327,0.024,0.612,0.187,0.894
				c0.273,0.469,0.419,0.988,0.567,1.508c0.047,0.16,0.181,0.35,0.086,0.49c-0.463,0.677-0.059,1.309,0.08,1.95
				c0.08,0.368,0.237,0.704-0.211,0.956c-0.172,0.098-0.08,0.297-0.039,0.463c0.122,0.466,0.249,0.929,0.327,1.404
				c0.05,0.312,0.205,0.671-0.187,0.92c-0.246,0.154-0.14,0.407-0.098,0.62c0.083,0.445,0.19,0.885,0.279,1.327
				c0.071,0.347,0.089,0.68-0.294,0.885c-0.327,0.172-0.267,0.463-0.205,0.745c0.08,0.359,0.172,0.715,0.246,1.075
				c0.045,0.223,0.125,0.525-0.036,0.659c-0.641,0.534-0.338,1.196-0.261,1.799c0.059,0.46,0.107,0.828-0.374,1.083
				c-0.252,0.134-0.142,0.404-0.125,0.62c0.042,0.481,0.107,0.959,0.145,1.437c0.021,0.273-0.053,0.514-0.371,0.573
				c-0.413,0.08-0.318,0.309-0.264,0.626c0.145,0.885,0.338,1.775,0.243,2.686c-0.79,0.012-0.834,0.039-0.807,0.793
				c0.027,0.736,0.116,1.469,0.14,2.206c0.012,0.359,0.151,0.831-0.543,0.772c-0.261-0.021-0.255,0.303-0.234,0.54
				c0.059,0.706,0.092,1.413,0.172,2.117c0.03,0.27-0.003,0.472-0.288,0.505c-0.585,0.065-0.611,0.511-0.65,0.929
				c-0.128,1.383-0.427,2.737-0.698,4.096c-0.329,1.668-1.036,3.164-1.909,4.598c-0.131,0.217-0.297,0.413-0.445,0.62
				c-0.068,0.098-0.148,0.184-0.27,0.151c-0.131-0.036-0.157-0.166-0.148-0.276c0.024-0.312,0.042-0.626,0.104-0.929
				c0.49-2.398,0.371-4.788-0.104-7.172c-0.172-0.864-0.611-1.642-0.822-2.493c-0.042-0.166-0.131-0.327-0.347-0.303
				c-0.525,0.059-0.522-0.3-0.525-0.65c-0.003-0.255,0.012-0.511,0.018-0.763c0.009-0.413,0.148-0.885-0.493-0.983
				c-0.157-0.024-0.169-0.211-0.175-0.35c-0.018-0.395-0.033-0.793-0.036-1.187c-0.006-0.368,0.027-0.736-0.154-1.14
				c-0.62,0.267-0.962-0.154-1.33-0.552c-0.288-0.312-0.481-0.816-1.086-0.517c-0.169,0.083-0.309-0.134-0.401-0.258
				c-0.606-0.846-1.437-1.386-2.312-1.927c-0.769-0.475-1.517-0.95-2.378-1.238c-0.718-0.24-0.888-0.175-0.879,0.57
				c0.015,1.104-0.039,2.206-0.062,3.31c-0.077,3.654-0.291,7.308-0.163,10.968c0.137,3.966,0.413,7.92,0.736,11.874
				c0.172,2.117,0.3,4.239,0.496,6.352c0.015,0.169,0.021,0.341,0.003,0.508c-0.059,0.528-0.19,0.662-0.706,0.558
				c-0.463-0.092-0.837-0.027-1.152,0.338c-0.297-0.285-0.282-0.674-0.341-1.018c-0.329-1.87-0.558-3.752-0.641-5.655
				c-0.134-3.028-0.324-6.056-0.505-9.08c-0.131-2.206-0.095-4.411-0.053-6.617c0.05-2.775-0.107-5.545-0.092-8.318
				c0.003-0.35-0.116-0.671-0.309-0.959c-0.14-0.211-0.306-0.407-0.469-0.603c-0.796-0.965-0.911-0.991-1.995-0.365
				c-0.267,0.154-0.514,0.35-0.751,0.552c-0.335,0.282-0.439,0.635-0.306,1.069c0.232,0.757,0.457,1.517,0.656,2.283
				c0.08,0.309,0.246,0.659-0.142,0.914c-0.246,0.16-0.095,0.356-0.009,0.516c0.517,0.953,0.683,1.968,0.591,3.04
				c-0.027,0.306-0.024,0.638,0.059,0.929c0.223,0.772,0.05,1.529-0.11,2.262c-0.077,0.362-0.074,0.65,0.062,0.974
				c0.255,0.606,0.386,1.244,0.401,1.903c0.003,0.226,0.059,0.517-0.056,0.665c-0.424,0.564-0.255,1.187-0.294,1.799
				c-0.03,0.448,0.006,0.911-0.226,1.33c-0.062,0.116-0.098,0.276-0.08,0.407c0.202,1.389-0.083,2.77-0.08,4.156
				c0,1.158-0.08,2.336-0.178,3.503c-0.134,1.594-0.03,3.215,0.27,4.809C124.294,175.304,124.552,176.604,124.374,177.973z"/>
		</g>
	</g>
</g>
<path fill="#FFFCFD" d="M146.996,65.849c-0.095-0.332-0.321-0.398-0.511-0.517c-1.19-0.742-2.14-1.742-2.998-2.835
	c-0.033-0.039-0.107-0.095-0.098-0.11c0.395-0.704-0.35-0.813-0.609-1.173c-0.131-0.181-0.365-0.279-0.433-0.511
	c-0.142-0.469-0.493-0.677-0.947-0.727c-0.246-0.027-0.35-0.125-0.338-0.371c0.018-0.359-0.074-0.724,0.178-1.06
	c0.107-0.142,0.151-0.383,0.128-0.57c-0.125-0.959,0.128-1.909,0.062-2.865c-0.003-0.056-0.006-0.113-0.006-0.169
	c0.003-0.208,0.033-0.419,0.261-0.481c0.258-0.071,0.338,0.151,0.41,0.332c0.261,0.686,0.484,1.389,0.778,2.06
	c0.246,0.561,0.261,1.294,1.069,1.49c0.178,0.045,0.223,0.374,0.288,0.594c0.113,0.38,0.226,0.757,0.416,1.11
	c0.11,0.202,0.22,0.475,0.43,0.496c0.546,0.056,0.709,0.484,0.974,0.837c0.285,0.38,0.54,0.793,1.027,0.983
	c0.306,0.119,0.436,0.422,0.6,0.689c0.291,0.475,0.552,0.997,1.241,1.015c0.246,0.006,0.368,0.243,0.496,0.43
	c0.19,0.282,0.371,0.567,0.567,0.843c0.205,0.285,0.442,0.463,0.843,0.454c0.454-0.009,0.706,0.285,0.617,0.692
	c-0.116,0.522-0.315,1.027-0.484,1.535c-0.027,0.077-0.092,0.193-0.142,0.196c-0.588,0.036-0.54,0.49-0.505,0.843
	c0.163,1.698-0.377,3.227-1.012,4.758c-0.324,0.778-0.484,1.627-0.692,2.449c-0.181,0.712-0.264,0.781-0.959,0.712
	c-3.102-0.303-5.955,0.407-8.552,2.134c-0.187,0.125-0.368,0.261-0.567,0.362c-0.116,0.059-0.27,0.122-0.383-0.033
	c-0.101-0.14-0.033-0.279,0.042-0.395c0.229-0.371,0.567-0.641,0.926-0.861c0.626-0.38,1.282-0.715,1.927-1.069
	c0.24-0.134,0.522-0.202,0.745-0.475c-0.665-0.223-1.253,0.279-1.873,0.16c-0.062-0.338,0.137-0.567,0.288-0.79
	c0.591-0.864,1.226-1.695,2.072-2.333c1.517-1.143,3.055-2.247,4.824-2.98c0.175-0.071,0.38-0.125,0.502-0.35
	c-0.226,0-0.442-0.045-0.632,0.006c-1.526,0.413-3.069,0.766-4.453,1.597c-0.454,0.273-0.968,0.43-1.386,0.796
	c-0.214,0.187-0.519,0.341-0.876,0.217c0.08-0.445,0.282-0.825,0.484-1.181c0.757-1.327,0.87-2.787,0.629-4.209
	c-0.148-0.879-0.285-1.802-0.585-2.773c-0.715,0.62-0.849,1.41-1.06,2.14c-0.312,1.083-0.57,2.182-0.858,3.271
	c-0.065,0.246-0.181,0.475-0.175,0.742c0.012,0.401-0.042,0.778-0.321,1.107c-0.193,0.226-0.181,0.531-0.181,0.816
	c0,0.517-0.142,1.009-0.232,1.508c-0.027,0.157-0.145,0.344-0.353,0.27c-0.151-0.053-0.128-0.235-0.107-0.368
	c0.267-1.775,0.196-3.565,0.193-5.349c-0.003-1.104-0.086-2.209-0.145-3.313c-0.03-0.597,0.148-1.098,0.558-1.547
	c0.457-0.502,0.852-1.057,1.3-1.564c0.424-0.481,0.617-0.475,1.125-0.056c0.454,0.374,0.947,0.709,1.312,1.187
	c0.083,0.11,0.196,0.267,0.309,0.279c1.095,0.128,1.79,1.039,2.767,1.392C145.574,65.573,146.213,65.899,146.996,65.849z"/>
<path fill="#FFFCFD" d="M124.27,66.98c-0.416-0.368-0.407-0.804-0.508-1.205c-0.282-1.113-0.43-2.262-0.882-3.337
	c-0.16-0.38-0.169-0.825-0.223-1.244c-0.039-0.3-0.104-0.555-0.439-0.647c-0.294-0.08-0.419-0.276-0.335-0.579
	c0.148-0.537-0.062-1-0.309-1.452c-0.543-0.994-1.119-1.965-2.033-2.681c-0.261-0.205-0.35-0.484-0.095-0.727
	c0.896-0.858,1.125-2.072,1.65-3.12c0.436-0.873,0.653-1.858,0.953-2.799c0.297-0.935,0.208-1.906,0.235-2.865
	c0.012-0.469-0.095-0.962,0.154-1.404c0.362,0.012,0.499,0.3,0.635,0.522c0.665,1.083,1.52,2.042,2.09,3.191
	c0.074,0.148,0.184,0.291,0.312,0.398c1.389,1.184,2.728,2.449,4.375,3.271c0.712,0.356,1.092,0.825,1.131,1.621
	c0.021,0.419,0.154,0.831,0.229,1.247c0.033,0.187,0.11,0.383-0.098,0.588c-0.769-0.41-1.235-1.176-2.007-1.867
	c0.169,0.891,0.715,1.38,0.994,1.974c-0.083,0.077-0.134,0.154-0.16,0.145c-0.837-0.235-1.722-0.344-2.47-0.816
	c-0.398-0.252-0.816-0.401-1.268-0.436c-0.721-0.059-1.377-0.282-2.013-0.614c-0.315-0.166-0.626-0.407-1.009-0.282
	c-0.098,0.077-0.104,0.178-0.053,0.235c0.917,1.042,1.849,2.063,3.295,2.363c0.196,0.042,0.439,0.077,0.522,0.249
	c0.163,0.35,0.519,0.469,0.87,0.754c-0.914,0.389-1.57,0.994-2.28,1.526c-0.045,0.033-0.119,0.053-0.137,0.098
	c-0.368,0.929-1.288,1.092-2.045,1.478c-0.045,0.024-0.068,0.083-0.154,0.193c0.647,0.255,1.262,0.401,1.929,0.169
	c0.617-0.217,1.167-0.567,1.751-0.843c0.487-0.229,0.974-0.454,1.466-0.668c0.154-0.068,0.329-0.151,0.484-0.134
	c0.347,0.039,0.816-0.05,0.938,0.389c0.119,0.43-0.306,0.534-0.6,0.689c-0.252,0.131-0.519,0.249-0.546,0.635
	c0.65,0.05,1.226-0.448,2.066-0.324c-1.324,0.932-2.532,1.793-3.624,2.799C125.962,64.486,125.196,65.784,124.27,66.98z"/>
<path fill="#FFFCFD" d="M136.895,123.262c0.154,0.036,0.208,0.056,0.264,0.059c0.579,0.042,0.564,0.036,0.472,0.614
	c-0.086,0.537-0.291,1.036-0.43,1.552c-0.065,0.237-0.187,0.442,0.101,0.671c0.229,0.178,0.065,0.469-0.021,0.709
	c-0.184,0.505-0.374,1.006-0.534,1.517c-0.053,0.166-0.145,0.424,0.205,0.413c0.315-0.012,0.315,0.205,0.27,0.395
	c-0.101,0.41-0.24,0.81-0.362,1.217c-0.137,0.451-0.315,0.864-0.048,1.374c0.214,0.407-0.074,0.882-0.142,1.324
	c-0.047,0.306-0.163,0.6-0.234,0.902c-0.05,0.217-0.021,0.43,0.27,0.377c0.445-0.08,0.377,0.196,0.341,0.451
	c-0.074,0.537-0.318,1.027-0.463,1.544c-0.062,0.22-0.202,0.413,0.148,0.629c0.329,0.202,0.199,0.668,0.098,1.012
	c-0.047,0.163-0.229,0.101-0.353,0.012c-0.469-0.329-0.855-0.739-1.137-1.241c-0.315-0.555-0.706-1.018-1.345-1.205
	c-0.187-0.056-0.288-0.154-0.315-0.347c-0.092-0.591-0.537-0.908-0.988-1.187c-0.389-0.24-0.757-0.484-1.039-0.849
	c-0.344-0.442-0.861-0.632-1.339-0.864c-0.534-0.255-0.748-0.641-0.692-1.223c0.163-1.689,0.303-3.381,0.478-5.067
	c0.062-0.617,0.166-1.235,0.368-1.826c0.062-0.184,0.113-0.389,0.448-0.451c0.914,1.98,1.823,3.978,2.182,6.287
	c0.54-0.46,0.751-1,0.819-1.472c0.125-0.867,0.614-1.734,0.166-2.639c0.205-0.706-0.039-1.321-0.398-1.906
	c-0.205-0.332-0.383-0.695-0.769-0.867c-0.234-0.104-0.309-0.332-0.371-0.543c-0.083-0.276-0.107-0.57,0.122-0.801
	c0.235-0.237,0.517-0.196,0.79-0.083c0.419,0.172,0.831,0.353,1.25,0.534c0.137,0.059,0.291,0.107,0.392-0.021
	c0.131-0.166,0.012-0.353-0.095-0.448c-0.294-0.258-0.594-0.522-0.974-0.656c-0.294-0.104-0.582-0.226-0.807-0.454
	c0.048-0.303,0.306-0.389,0.519-0.519c0.508-0.306,1.033-0.591,1.52-0.929c0.338-0.235,0.704-0.481,0.751-0.959
	c-0.472-0.321-0.724,0.46-1.268,0.148c0.864-0.997,2.259-1.36,2.924-2.565c0-0.05-0.062-0.095-0.142-0.125
	c-0.594-0.223-0.632-0.246-0.332-0.718c1.217-1.915,2.514-3.77,4.411-5.103c0.246-0.172,0.475-0.416,0.816-0.374
	c0.14,0.098,0.071,0.202,0.018,0.294c-1.22,2.173-2.128,4.491-3.227,6.724c-0.35,0.709-0.757,1.392-1.134,2.087
	c-0.131,0.237-0.243,0.463,0.16,0.576c0.347,0.095,0.208,0.338,0.107,0.54c-0.463,0.941-0.891,1.894-1.247,2.882
	C137.016,122.849,136.963,123.036,136.895,123.262z"/>
<path fill="#FFFCFD" d="M132.647,63.632c0.436-0.531,0.475-1.113,0.843-1.544c0.234,0.077,0.252,0.288,0.303,0.46
	c0.38,1.288,0.469,2.609,0.457,3.945c0,0.03-0.009,0.056-0.006,0.086c0.027,0.692-0.528,1.27-0.169,2.084
	c0.276,0.623,0.086,1.452,0.104,2.188c0.021,0.736,0.039,1.472,0.065,2.209c0.018,0.537,0.042,1.075,0.074,1.612
	c0.03,0.534-0.062,0.986-0.534,1.345c-0.38,0.291-0.499,0.38-0.763,0.003c-0.303-0.436-0.775-0.635-1.158-1.089
	c-0.142,0.573,0.217,0.861,0.386,1.214c0.131,0.267,0.514,0.573-0.134,0.727c-0.196,0.048-0.05,0.232,0.036,0.329
	c0.261,0.297,0.528,0.588,0.796,0.882c0.202,0.223,0.442,0.427-0.065,0.594c-0.341,0.113-0.243,0.427-0.169,0.653
	c0.086,0.264,0.258,0.499,0.392,0.748c0.071,0.134,0.11,0.276-0.05,0.362c-0.131,0.071-0.309,0.068-0.392-0.045
	c-0.134-0.175-0.237-0.383-0.315-0.591c-0.419-1.14-0.816-2.298-1.425-3.351c-0.472-0.819-0.944-1.642-1.594-2.357
	c-0.401-0.439-0.671-1.009-0.938-1.55c-0.154-0.309-0.327-0.591-0.552-0.846c-0.751-0.846-1.475-1.716-2.259-2.532
	c-0.416-0.433-0.466-0.867-0.273-1.392c0.226-0.623,0.629-1.14,1-1.671c0.745-1.069,1.612-2.033,2.547-2.942
	c0.831-0.807,1.84-1.3,2.897-1.728c0.359-0.145,0.516-0.068,0.555,0.327C132.356,62.34,132.43,62.922,132.647,63.632z"/>
<path fill="#FFFCFD" d="M140.528,49.597c0.914-0.045,1.665,0.327,2.443,0.549c1.671,0.481,3.179,1.297,4.595,2.298
	c0.092,0.065,0.178,0.166,0.282,0.187c1.25,0.249,2.093,1.173,3.093,1.84c0.362,0.24,0.704,0.567,1.229,0.433
	c0.217-0.053,0.398,0.169,0.561,0.329c0.24,0.237,0.472,0.487,0.724,0.712c0.187,0.166,0.386,0.413,0.647,0.344
	c0.508-0.137,0.799,0.199,1.137,0.43c0.442,0.303,0.858,0.635,1.428,0.695c0.386,0.039,0.614,0.38,0.902,0.606
	c0.442,0.35,0.837,0.769,1.496,0.662c0.273-0.045,0.329,0.16,0.243,0.392c-0.122,0.327-0.329,0.594-0.582,0.825
	c-0.128,0.116-0.261,0.125-0.347-0.03c-0.258-0.463-0.49-0.128-0.647,0.053c-0.276,0.318-0.484,0.695-0.739,1.033
	c-0.113,0.151-0.294,0.362-0.472,0.11c-0.264-0.371-0.416-0.178-0.546,0.074c-0.235,0.451-0.448,0.914-0.653,1.377
	c-0.059,0.131-0.145,0.359-0.229,0.312c-0.525-0.318-0.876,0.157-1.309,0.237c-0.291,0.053-0.543-0.252-0.528-0.451
	c0.045-0.736-0.514-0.944-0.971-1.244c-0.291-0.19-0.549-0.359-0.617-0.751c-0.071-0.401-0.442-0.558-0.757-0.751
	c-0.543-0.335-1.184-0.552-1.303-1.339c-0.039-0.264-0.38-0.401-0.626-0.534c-0.395-0.217-0.81-0.401-1.193-0.635
	c-0.306-0.187-0.745-0.282-0.543-0.87c0.08-0.229-0.297-0.454-0.514-0.629c-1.033-0.834-2.084-1.642-3.108-2.485
	c-0.986-0.813-1.849-1.745-2.603-2.781C140.816,50.321,140.608,50.057,140.528,49.597z"/>
<path fill="#FFFCFD" d="M131.822,88.733c-0.306,0.151-0.531,0.267-0.76,0.374c-0.252,0.119-0.478,0.19-0.511,0.573
	c-0.036,0.43-0.508,0.49-0.837,0.612c-0.315,0.113-0.558,0.169-0.525,0.609c0.027,0.353-0.347,0.478-0.609,0.638
	c-0.466,0.285-0.994,0.445-1.167,1.11c-0.098,0.383-0.603,0.57-0.938,0.828c-0.267,0.208-0.517,0.386-0.623,0.76
	c-0.125,0.433-0.579,0.591-0.941,0.804c-0.134,0.08-0.282,0.062-0.374-0.074c-0.065-0.095-0.083-0.232,0.009-0.312
	c0.502-0.43,0.374-0.965,0.255-1.49c-0.119-0.522-0.246-1.045-0.383-1.564c-0.098-0.371-0.327-0.742,0.119-1.063
	c0.122-0.086,0.056-0.267,0.03-0.401c-0.122-0.611-0.095-1.238-0.22-1.852c-0.122-0.606-0.157-1.217-0.015-1.849
	c0.131-0.579-0.015-1.175-0.134-1.76c-0.071-0.353-0.163-0.698,0.154-1.03c0.223-0.235,0.151-0.6,0.086-0.899
	c-0.187-0.858-0.321-1.692-0.217-2.594c0.065-0.558-0.11-1.173-0.119-1.766c0-0.056-0.009-0.113-0.003-0.169
	c0.249-2.244-0.006-4.515,0.338-6.756c0.03-0.187-0.003-0.401,0.252-0.555c0.321,0.264,0.359,0.683,0.427,1.03
	c0.327,1.633,0.617,3.274,0.885,4.919c0.208,1.285,0.502,2.547,0.882,3.791c0.157,0.514,0.549,0.911,0.706,1.44
	c0.137,0.457,0.092,0.748-0.338,0.986c-1.636,0.902-2.072,2.508-2.41,4.168c-0.009,0.047,0.03,0.107,0.062,0.205
	c0.6-0.169,0.98-0.641,1.371-1.048c0.517-0.537,1.181-0.825,1.784-1.214c0.531-0.341,0.831-0.285,1.143,0.249
	c0.487,0.843,1.178,1.508,1.754,2.271C131.213,88.026,131.495,88.341,131.822,88.733z"/>
<path fill="#FFFCFD" d="M145.47,82.321c0.154,0.232,0.092,0.359,0.015,0.481c-1.14,1.793-1.941,3.767-2.965,5.622
	c-0.315,0.57-0.609,1.149-0.938,1.71c-0.297,0.508-0.698,0.965-0.564,1.633c0.047,0.232-0.178,0.413-0.312,0.579
	c-0.692,0.864-1.303,1.772-1.668,2.832c-0.16,0.463-0.564,0.775-0.846,1.164c-0.496,0.68-1.101,1.303-1.119,2.226
	c-0.006,0.249-0.217,0.38-0.356,0.555c-0.692,0.861-1.348,1.734-1.772,2.775c-0.3,0.733-1.027,1.075-1.71,1.585
	c-0.151-0.493-0.148-0.905-0.062-1.303c0.329-1.552,0.451-3.135,0.647-4.705c0.148-1.178,0.448-2.33,0.614-3.509
	c0.095-0.668,0.54-1.164,1.273-1.294c0.137-0.024,0.332-0.036,0.395-0.125c0.413-0.6,0.873-0.294,1.333-0.098
	c0.433,0.187,0.828,0.49,1.413,0.422c-0.119-0.469-0.457-0.73-0.748-0.994c-0.567-0.517-0.439-0.944,0.288-1.146
	c0.519-0.145,0.813-0.451,1.075-0.876c0.279-0.451,0.517-0.92,1.146-1.045c0.347-0.068,0.514-0.49,0.76-0.754
	c1.229-1.324,1.76-3.087,2.868-4.482C144.592,83.113,144.883,82.579,145.47,82.321z"/>
<path fill="#FFFCFD" d="M127.146,103.231c-0.567,0.03-1.161-0.181-1.674,0.303c-0.229,0.217-0.632-0.015-0.68-0.362
	c-0.047-0.332-0.107-0.698-0.024-1.009c0.243-0.908,0.077-1.799-0.042-2.689c-0.039-0.297-0.077-0.54,0.166-0.775
	c0.196-0.19,0.157-0.454,0.151-0.715c-0.006-0.288,0.071-0.582,0.484-0.522c0.329,0.047,0.611-0.101,0.885-0.243
	c0.329-0.175,0.665-0.315,1.045-0.276c0.243,0.027,0.448-0.08,0.638-0.193c0.371-0.226,0.757-0.341,1.196-0.368
	c0.401-0.027,0.76-0.217,1.036-0.522c0.344-0.38,0.787-0.528,1.273-0.6c0.62-0.092,0.721-0.012,0.662,0.594
	c-0.083,0.813-0.134,1.639-0.303,2.437c-0.202,0.947-0.142,1.915-0.318,2.862c-0.098,0.525-0.19,1.057-0.252,1.588
	c-0.042,0.359-0.211,0.508-0.555,0.469c-0.252-0.027-0.502-0.083-0.754-0.107c-0.585-0.053-1.149-0.371-1.763,0.098
	C128.061,103.388,127.544,103.231,127.146,103.231z"/>
<path fill="#FFFCFD" d="M140.234,38.833c-0.721,0.573-0.879,1.425-1.52,1.927c-0.089,0.068-0.14,0.187-0.232,0.246
	c-0.181,0.119-0.356,0.359-0.597,0.211c-0.223-0.137-0.353-0.389-0.282-0.659c0.285-1.113-0.665-1.701-0.962-2.63
	c-0.377,0.276-0.258,0.552-0.234,0.772c0.053,0.478,0.154,0.95,0.258,1.419c0.145,0.644,0.021,1.238-0.294,1.799
	c-0.208,0.371-0.386,0.38-0.552-0.03c-0.514-1.268-1.544-2.149-2.342-3.2c-0.092-0.122-0.184-0.3-0.41-0.276
	c-0.243,0.14-0.107,0.362-0.053,0.514c0.104,0.291,0.232,0.594,0.43,0.825c0.796,0.917,0.641,1.995,0.552,3.057
	c-0.033,0.401-0.154,0.374-0.528,0.184c-0.647-0.332-0.849-0.917-1.075-1.526c-0.641-1.725-1.517-3.354-2.069-5.115
	c-0.148-0.475-0.377-0.941-0.344-1.526c0.6,0.232,1.042,0.635,1.544,0.929c0.994,0.579,2.093,0.813,3.191,1.083
	c1.009,0.246,2.016,0.531,2.954,1.003c0.683,0.344,1.348,0.718,2.134,0.787C139.908,38.631,140.006,38.717,140.234,38.833z"/>
<path fill="#FFFCFD" d="M132.742,113.985c-0.356,0.047-0.43,0.404-0.698,0.505c-0.048-0.024-0.122-0.039-0.131-0.068
	c-0.439-1.529,0.092-2.74,1.52-3.298c0.745-0.291,1.455-0.603,2.013-1.193c0.095-0.098,0.249-0.226,0.356-0.211
	c0.692,0.104,0.876-0.469,1.17-0.864c0.419-0.564,0.748-1.214,1.544-1.339c0.027-0.003,0.059-0.021,0.071-0.042
	c0.445-0.772,1.167-0.552,1.814-0.463c0.911,0.128,1.837,0.193,2.752,0.505c-1.351,0.712-2.651,1.46-3.785,2.461
	c-1.134,1.003-2.036,2.226-3.096,3.44c-0.487-0.991,0.048-1.932-0.294-2.773c-0.291-0.047-0.338,0.202-0.436,0.344
	c-0.561,0.816-1.036,1.68-1.342,2.633c-0.163,0.508-0.359,1.012-0.706,1.434c-0.089,0.107-0.193,0.217-0.356,0.148
	c-0.116-0.05-0.148-0.157-0.169-0.273C132.908,114.623,132.967,114.297,132.742,113.985z"/>
<path fill="#FFFCFD" d="M145.319,80.02c-0.14,0.398-0.436,0.466-0.671,0.585c-1.855,0.95-3.714,1.891-5.572,2.832
	c-0.252,0.128-0.519,0.208-0.493,0.588c0.059,0.775-0.668,0.609-1.057,0.84c-0.419,0.249-0.686-0.068-0.929-0.344
	c-0.229-0.258-0.306-0.558-0.053-0.84c0.611-0.683,1.107-1.532,2.191-1.567c0.19-0.006,0.433-0.053,0.499-0.246
	c0.104-0.3-0.338-0.249-0.389-0.588C140.887,80.415,142.941,79.569,145.319,80.02z"/>
<path fill="#FFFCFD" d="M118.772,132.559c0.276-0.059,0.398,0.178,0.528,0.324c1.312,1.478,2.577,2.998,3.797,4.554
	c0.104,0.134,0.202,0.273,0.282,0.419c0.19,0.359,0.134,0.511-0.273,0.6c-0.353,0.077-0.704,0.14-1.202,0.43
	c0.721,0.074,1.104,0.496,1.624,0.641c0.312,0.086,0.549,0.294,0.745,0.54c0.335,0.419,0.273,0.62-0.208,0.885
	c-0.321,0.175-0.632,0.374-0.929,0.585c-0.353,0.249-0.567,0.137-0.698-0.232c-0.303-0.852-0.623-1.695-0.896-2.556
	c-0.484-1.538-1.006-3.057-1.829-4.453c-0.273-0.46-0.597-0.891-0.876-1.348C118.775,132.85,118.662,132.719,118.772,132.559z"/>
<path fill="#FFFCFD" d="M139.59,44.729c-0.27-0.249-0.588-0.08-0.793-0.356c0.264-0.327,0.537-0.674,0.816-1.012
	c0.739-0.893,1.19-1.956,1.713-2.974c0.273-0.534,0.701-0.659,1.211-0.321c0.24,0.16,0.404,0.371,0.083,0.588
	c-0.362,0.246-0.481,0.62-0.594,0.991c-0.101,0.335-0.217,0.629-0.519,0.84c-0.27,0.19-0.392,0.49-0.383,0.81
	c0.018,0.757-0.223,1.455-0.531,2.116c-0.392,0.849-0.715,1.716-1.018,2.597c-0.184,0.54-0.445,0.718-0.991,0.736
	c-0.291,0.009-0.424-0.169-0.297-0.427c0.059-0.122,0.166-0.226,0.261-0.327c0.119-0.125,0.279-0.264,0.252-0.424
	c-0.119-0.724,0.27-1.363,0.309-2.054C139.136,45.177,139.278,44.939,139.59,44.729z"/>
<path fill="#FFFCFD" d="M121.364,37.86c0.43,0.05,0.555,1.173,1.193,0.273c0.018,0.104,0.053,0.208,0.05,0.312
	c-0.027,1.14,0.16,2.238,0.549,3.313c0.232,0.644-0.065,1.063-0.801,1.223c-0.629,0.137-1.036-0.142-1.095-0.822
	c-0.042-0.502-0.071-1.027,0.021-1.517c0.157-0.819,0.104-1.621-0.009-2.428C121.26,38.103,121.245,37.993,121.364,37.86z"/>
<path fill="#FFFCFD" d="M126.579,44.613c0.374-0.208,0.674-0.232,1.03-0.169c0.721,0.125,1.422,0.377,2.17,0.344
	c0.157-0.006,0.374,0.05,0.466,0.16c0.353,0.413,0.73,0.772,1.253,0.956c0.104,0.039,0.145,0.175,0.11,0.291
	c-0.039,0.125-0.157,0.154-0.27,0.157c-1.107,0.036-2.214,0.024-3.182-0.617C127.648,45.399,127.048,45.183,126.579,44.613z"/>
<path fill="#FFFCFD" d="M123.958,41.309c0.107-0.424,0.22-1.006,0.41-1.561c0.145-0.427,0.371-0.451,0.775-0.184
	c0.374,0.249,0.757,0.49,1.131,0.739c0.321,0.214,0.558,0.478,0.463,0.908c-0.098,0.457-0.439,0.549-0.831,0.54
	c-0.46-0.012-0.885,0.169-1.333,0.229C123.985,42.06,123.928,42.018,123.958,41.309z"/>
<path fill="#FFFCFD" d="M135.553,58.787c-0.229-1.297-0.457-2.586-0.677-3.877c-0.042-0.24,0.024-0.448,0.309-0.511
	c0.344-0.074,0.335,0.19,0.404,0.398c0.392,1.167,0.424,2.366,0.306,3.577C135.876,58.55,135.832,58.707,135.553,58.787z"/>
<path fill="#FFFCFD" d="M132.403,56.261c-0.401-0.362-0.475-0.873-0.62-1.345c-0.145-0.472-0.131-0.991-0.567-1.363
	c-0.19-0.16-0.086-0.371,0.181-0.401c0.546-0.062,1.134,0.407,1.241,0.974c0.086,0.442,0.211,0.873,0.178,1.333
	C132.792,55.78,132.751,56.071,132.403,56.261z"/>
<path fill="#FFFCFD" d="M137.206,49.855c-0.181,0.87-0.623,1.386-1.167,1.834c-0.184,0.151-0.344,0.223-0.579,0.009
	c-0.24-0.22-0.564-0.347-0.837-0.534c-0.181-0.122-0.184-0.306,0.018-0.383C135.461,50.469,136.289,50.185,137.206,49.855z"/>
<path fill="#FFFCFD" d="M127.716,38.492c-0.039,0.157-0.05,0.273-0.092,0.374c-0.092,0.22-0.092,0.549-0.41,0.558
	c-0.273,0.006-0.315-0.294-0.392-0.487c-0.137-0.338-0.306-0.653-0.499-0.962c-0.148-0.237-0.303-0.534,0-0.748
	c0.27-0.19,0.475,0.045,0.635,0.237C127.244,37.8,127.63,38.064,127.716,38.492z"/>
<path fill="#FFFCFD" d="M130.42,42.41c-0.347-0.493-0.769-0.511-1.167-0.573c-0.332-0.053-0.424-0.229-0.353-0.525
	c0.033-0.134,0.065-0.276,0.134-0.395c0.16-0.288,0.297-0.692,0.662-0.683c0.377,0.012,0.347,0.454,0.442,0.727
	C130.287,41.371,130.459,41.787,130.42,42.41z"/>
<path fill="#FFFCFD" d="M137.521,45.696c0-0.353,0.217-0.49,0.766-0.499c0.229-0.003,0.389,0.024,0.362,0.315
	c-0.045,0.514-0.356,1.027-0.617,1C137.711,46.474,137.521,46.174,137.521,45.696z"/>
<path fill="#FFFCFD" d="M127.553,139.9c-0.009,0.11,0.036,0.267-0.14,0.329c-0.122,0.045-0.229-0.018-0.303-0.098
	c-0.329-0.353-0.588-0.757-0.727-1.217c-0.068-0.226,0.092-0.309,0.291-0.255C127.123,138.784,127.556,139.395,127.553,139.9z"/>
<path fill="#FFFCFD" d="M135.995,86.088c-0.288,0.053-0.341-0.125-0.324-0.344c0.027-0.327-0.015-0.712,0.38-0.849
	c0.243-0.086,0.677,0.389,0.701,0.721C136.77,85.877,136.464,86.067,135.995,86.088z"/>
</svg>
