<?xml version="1.0" encoding="utf-8"?>
<!-- Generator: Adobe Illustrator 17.0.0, SVG Export Plug-In . SVG Version: 6.00 Build 0)  -->
<!DOCTYPE svg PUBLIC "-//W3C//DTD SVG 1.1//EN" "http://www.w3.org/Graphics/SVG/1.1/DTD/svg11.dtd">
<svg version="1.1" xmlns="http://www.w3.org/2000/svg" xmlns:xlink="http://www.w3.org/1999/xlink" x="0px" y="0px" width="144px"
	 height="144px" viewBox="0 0 144 144" enable-background="new 0 0 144 144" xml:space="preserve">
<g id="Layer_1">
	<g id="K9e9Fh.tif">
		<g>
			<g>
				<path d="M-272.184,134.625c4.499-7.024,9.908-13.85,18.449-14.766c9.743-1.046,18.483-4.565,27.596-7.375
					c3.426-1.056,7.56-0.337,11.286,0.184c22.407,3.135,44.795,6.399,67.176,9.713c26.337,3.9,52.636,8.062,79.002,11.754
					c9.041,1.266,18.227,1.554,27.359,2.061c2.119,0.118,4.289-0.691,7.374-1.241c-9.783-2.68-18.722-4.132-26.781-7.617
					c-7.954-3.439-15.119-8.784-22.429-13.599c-3.141-2.069-2.866-4.554-0.029-7.368c6.352-6.301,13.783-9.538,22.705-9.732
					c27.104-0.591,53.876,1.473,80.091,8.988c22.251,6.379,43.361,1.442,64.326-6.526c15.005-5.703,30.659-8.638,46.915-7.823
					c17.15,0.86,32.569,6.49,46.362,16.411c16.061,11.551,32.138,23.12,47.627,35.415c18.19,14.439,33.926,31.396,47.728,50.113
					c17.419,23.622,37.322,45.088,57.488,66.339c7.656,8.067,14.871,16.552,23.051,25.702c-2.427,0.139-3.958,0.302-5.489,0.304
					c-49.16,0.054-98.319,0.054-147.478,0.215c-3.46,0.011-5.381-1.15-7.119-4.022c-8.361-13.812-18.92-25.794-31.874-35.399
					c-15.087-11.186-32.163-18.032-50.747-20.79c-7.227-1.073-14.563-1.908-21.855-1.952c-33.489-0.202-66.981-0.008-100.471-0.119
					c-16.307-0.054-32.435-2.356-46.937-9.951c-16.627-8.708-34.533-12.724-52.413-17.286
					c-27.875-7.112-55.834-13.982-83.423-22.094c-19.254-5.661-37.946-13.233-56.894-19.937c-2.81-0.994-5.587-2.336-8.49-2.76
					c-5.721-0.836-9.815-3.504-12.107-8.841C-272.184,139.958-272.184,137.292-272.184,134.625z"/>
				<path d="M-131.463,109.705C-107.208,46.956-62.95,8.51,1.689-6.613c6.734-1.132,27.694-2.66,37.131-3.315
					c10.581,0.402,9.935-0.244,25.407,2.53C94.36-1.78,121.56,9.817,145.373,28.981c23.771,19.13,41.438,42.689,53.546,72.047
					c-6.892-4.041-12.658-7.449-18.451-10.814c-15.055-8.745-31.502-12.352-48.703-12.584c-18.526-0.25-36.324,3.787-53.611,10.246
					C66.39,92.27,54.449,96.02,41.695,94.577c-6.414-0.726-12.812-2.063-19.055-3.73c-19.606-5.236-39.63-6.791-59.791-7.663
					c-11.672-0.505-23.356-1.387-34.634,2.407c-13.122,4.414-23.653,11.925-28.584,25.647c-0.369,1.027-2.031,2.405-2.936,2.298
					C-112.345,112.469-121.353,111.125-131.463,109.705z"/>
			</g>
			<path d="M64.258-26.966"/>
		</g>
	</g>
	<g id="tuh4rI.tif">
		<g>
			<g>
				<path d="M15.32,6.175C12.56,2.56,9.925-1.09,8.133-5.261c-2.087-4.859-4.017-9.789-6.465-14.486
					c-0.344-0.66-0.502-1.605-1.433-1.649c-1.482-0.069-1.836-1.182-2.353-2.215c-0.655-1.309-0.906-2.74-1.298-4.127
					c-0.449-1.585-0.171-3.648-2.691-3.783c-0.416-0.022-0.564-0.538-0.606-0.901c-0.55-4.698-2.462-9.12-2.81-13.856
					c-0.07-0.958-0.048-1.922-0.11-2.881c-0.044-0.67,0.003-1.609-0.618-1.84c-1.77-0.66-1.376-2.06-1.378-3.344
					c-0.005-3.849,0.182-7.678-0.263-11.547c-0.347-3.024,0.217-6.15,0.318-9.232c0.029-0.886,0.327-1.922-1.235-2.103
					c-0.939-0.109-0.488-1.107-0.328-1.69c0.791-2.889,1.108-5.859,1.54-8.808c0.159-1.086,0.493-2.361-1.424-2.387
					c-0.899-0.012-0.853-0.939-0.767-1.585c0.266-2,0.678-3.982,0.891-5.986c0.218-2.048,0.798-4.045-0.683-6.08
					c-1.02-1.403-0.267-3.379-0.193-5.098c0.033-0.765,0.231-1.522,0.344-2.284c0.059-0.399-0.011-0.979-0.337-1.019
					c-2.529-0.317-1.407-2.183-1.254-3.312c0.505-3.721,1.319-7.398,1.912-11.109c1.263-7.91,1.843-15.876,1.769-23.886
					c-0.003-0.365-0.19-0.729-0.32-1.195c-1.221,0.382-1.978,1.201-2.753,2.025c-4.778,5.088-8.656,10.813-12.021,16.905
					c-1.246,2.256-2.176,4.734-4.66,6.062c-0.824,0.44-0.944,1.435-1.232,2.232c-0.852,2.358-1.525,4.785-2.453,7.111
					c-2.069,5.187-5.117,9.92-7.142,15.135c-0.238,0.613-0.584,1.447-1.258,1.497c-2.105,0.155-2.247,1.692-2.578,3.213
					c-1.005,4.625-2.602,9.042-4.663,13.083c-0.384,0.422-0.67,0.311-0.931,0.21c-2.152-0.835-2.53-0.751-2.98,1.401
					c-0.577,2.755-1.424,5.403-2.577,7.953c-0.497,1.099-0.708,2.779-2.74,1.661c-0.606-0.334-0.885,0.591-0.99,1.123
					c-0.432,2.185-1.192,4.264-2.045,6.304c-0.443,1.057-1.076,2.04-1.683,3.02c-0.184,0.297-0.701,0.732-0.839,0.661
					c-2.487-1.272-2.41,0.973-2.892,2.181c-0.646,1.618-1.41,3.171-2.264,4.673c-0.613,1.079-1.292,2.451-2.478,2.72
					c-2.241,0.508-3.025,2.164-3.898,3.884c-0.915,1.804-1.75,3.663-2.821,5.37c-0.676,1.077-0.967,3.198-3.223,1.841
					c-0.363-0.219-0.97,0.359-1.293,0.933c-0.993,1.762-2.069,3.477-3.126,5.202c-0.917,1.496-1.828,2.937-3.968,2.794
					c-1.32-0.088-2.102,0.931-2.689,1.932c-1.721,2.931-3.726,5.553-6.556,7.556c-0.966,0.684-1.524,1.959-2.23,2.991
					c-0.543,0.793-0.851,1.857-1.567,2.404c-3.126,2.389-4.178,6.117-6.206,9.209c-0.637,0.972-0.935,2.498-2.751,1.415
					c-0.658-0.392-1.204,0.358-1.581,0.928c-7.134,10.808-13.335,22.065-16.687,34.693c-0.493,1.858-1.015,3.709-1.554,5.555
					c-0.075,0.257-0.328,0.463-0.489,0.679c-0.856-0.228-0.867-0.945-0.991-1.588c-1.59-8.207-1.832-16.458-0.762-24.743
					c0.343-2.66,0.965-5.232,0.329-8.004c-0.517-2.254,0.445-4.564,0.86-6.832c0.278-1.52,0.647-3.01,0.202-4.571
					c-0.308-1.083,0.186-2.073,0.521-3.083c0.608-1.83,1.211-3.671,0.804-5.654c-0.057-0.279-0.111-0.61-0.017-0.861
					c1.788-4.754,1.558-10.043,3.951-14.65c0.876-1.687,1.572-3.463,1.565-5.483c-0.005-1.475,1.03-2.655,1.77-3.897
					c1.079-1.808,2.305-3.554,1.807-5.899c-0.202-0.949,0.32-1.895,0.804-2.733c1.578-2.732,3.075-5.435,3.966-8.554
					c0.952-3.332,3.28-6.061,5.561-8.692c0.576-0.664,1.689-1.125,0.452-2.277c-0.514-0.479,0.337-0.963,0.691-1.358
					c2.441-2.725,4.89-5.444,7.357-8.145c0.703-0.77,1.66-1.357,0.974-2.68c-0.368-0.709,0.316-1.268,0.675-1.797
					c1.3-1.913,2.848-3.619,4.536-5.2c1.48-1.386,2.886-2.873,3.907-4.611c2.341-3.983,5.563-7.107,9.16-9.907
					c1.069-0.832,2.065-1.692,2.605-3.019c0.527-1.294,1.662-2.126,2.787-2.858c8.318-5.411,15.663-12.147,23.964-17.581
					c0.559-0.366,1.165-0.781,1.518-1.323c2.136-3.275,5.451-5.07,8.648-7.015c2.224-1.353,4.345-2.821,6.359-4.493
					c3.81-3.162,8.328-5.153,12.772-7.234c1.658-0.776,3.366-1.446,5.035-2.199c0.748-0.337,1.61-0.585,1.972-1.59
					c-1.228-0.421-2.206,0.08-3.171,0.41c-11.415,3.9-22.399,8.723-32.609,15.216c-2.238,1.423-4.309,3.295-7.303,3.012
					c-0.773-0.073-1.345,0.692-1.949,1.156c-1.374,1.057-2.69,2.189-4.083,3.22c-1.337,0.99-2.743,1.864-4.531,1.093
					c-0.86-0.371-1.469,0.211-2.103,0.618c-1.541,0.989-3.048,2.032-4.607,2.99c-1.108,0.68-2.069,1.535-3.689,1.025
					c-1.046-0.329-2.158,0.65-3.066,1.385c-1.73,1.399-3.576,2.613-5.583,3.574c-0.509,0.244-1.31,0.816-1.568,0.358
					c-1.102-1.956-2.302-0.549-3.405-0.199c-1.462,0.465-2.867,1.109-4.299,1.668c-1.28,0.5-2.426,1.526-4.005,0.48
					c-0.436-0.289-1.454,0.242-2.185,0.464c-2.211,0.67-4.397,1.424-6.622,2.039c-1.052,0.29-2.234,0.793-2.713-1.018
					c-0.234-0.883-1.169-0.296-1.751-0.096c-3.549,1.217-7.089,2.461-10.624,3.717c-0.9,0.32-1.714,0.897-2.41-0.433
					c-0.409-0.782-1.298-0.6-2.085-0.335c-1.55,0.523-3.121,0.984-4.679,1.482c-1.624,0.518-3.126,1.171-5,0.588
					c-1.362-0.423-2.765,0.57-4.065,1.208c-1.117,0.548-2.186,1.165-3.559,0.823c-1.192-0.297-2.247,0.411-3.295,0.855
					c-6.583,2.784-12.56,6.673-18.649,10.35c-2.212,1.336-4.334,2.822-6.524,4.257c-0.456-0.722,0.287-1.135,0.605-1.616
					c3.967-6.005,8.718-11.248,14.771-15.245c2.011-1.328,3.779-2.967,5.449-4.711c0.936-0.977,1.986-1.852,1.584-3.45
					c-0.218-0.864,0.561-1.18,1.078-1.525c1.119-0.747,2.301-1.403,3.473-2.068c0.677-0.384,1.667-0.743,1.766-1.408
					c0.361-2.439,2.389-2.792,4.079-3.582c0.782-0.366,1.663-0.531,2.423-0.932c1.183-0.624,2.902-0.588,2.985-2.637
					c0.029-0.718,1.095-1.022,1.791-1.314c1.329-0.559,2.705-1.005,4.051-1.525c0.62-0.24,1.549-0.174,1.793-0.812
					c0.691-1.813,2.401-1.723,3.78-2.207c1.904-0.668,3.866-1.168,5.777-1.819c0.807-0.275,1.823-0.567,2.107-1.401
					c0.574-1.685,1.955-1.965,3.357-2.334c1.302-0.343,2.604-0.688,3.899-1.057c0.649-0.185,1.494-0.236,1.886-0.674
					c1.97-2.197,4.813-2.145,7.293-3.006c0.898-0.312,1.761-0.421,2.363-1.415c0.565-0.934,1.832-0.897,2.866-1.042
					c1.526-0.214,3.323,0.059,4.535-0.664c2.858-1.704,5.873-1.129,8.851-1.298c0.79-0.045,1.595-0.143,2.126-0.737
					c1.111-1.242,2.482-1.269,3.968-1.107c1.342,0.146,2.694,0.204,4.042,0.279c0.971,0.054,1.991,0.161,2.315-1.124
					c0.148-0.589,0.635-0.686,1.104-0.73c1.439-0.138,2.897-0.419,4.318-0.299c1.712,0.144,3.246,0.071,4.586-1.134
					c0.63-0.567,1.463-0.419,2.212-0.392c12.368,0.432,24.687-0.676,37.024-1.174c1.964-0.079,3.92-0.362,6.429-0.604
					c-1.453-1.381-2.789-1.788-4.082-2.201c-3.581-1.145-7.212-2.146-10.935-2.677c-2.804-0.4-5.427-1.276-7.978-2.431
					c-0.607-0.275-1.343-0.568-1.684-1.077c-1.366-2.045-3.495-2.898-5.562-3.909c-1.111-0.544-2.107-1.214-2.65-2.499
					c-0.582-1.374-1.933-2.129-3.148-2.889c-3.935-2.464-6.04-6.312-7.813-10.361c-0.652-1.489-1.796-2.466-2.756-3.649
					c-0.751-0.924-1.904-1.623-1.325-3.213c0.352-0.965-0.741-1.458-1.287-2.09c-0.927-1.074-2.047-1.953-1.619-3.728
					c0.215-0.89-0.589-1.784-1.01-2.649c-1.9-3.897-3.683-7.831-4.53-12.133c-0.36-1.828-0.321-3.639-0.273-5.468
					c0.013-0.503,0.081-1.013,0.584-1.221c0.519-0.214,0.904,0.112,1.204,0.527c0.506,0.7,1.095,1.354,1.509,2.105
					c1.953,3.546,4.202,6.903,6.56,10.181c1.099,1.527,2.152,3.271,4.436,3.335c0.88,0.024,1.246,0.838,1.722,1.419
					c0.976,1.189,1.886,2.432,2.871,3.613c0.786,0.942,1.474,2.082,3.061,1.644c0.778-0.214,1.284,0.482,1.654,0.963
					c1.915,2.492,4.421,4.195,7.106,5.731c1.156,0.662,2.152,1.607,3.214,2.431c0.372,0.289,0.595,0.795,1.137,0.83
					c4.051,0.259,6.4,3.546,9.546,5.407c0.977,0.577,1.744,1.39,2.969,1.647c1.652,0.347,2.839,1.54,3.882,2.844
					c0.657,0.822,1.177,1.767,2.078,2.379c3.006,2.041,5.247,4.825,7.217,7.796c2.282,3.444,5.433,6.263,7.178,10.083
					c0.331,0.725,1.012,0.794,1.712,0.828c1.735,0.084,3.468,0.266,5.203,0.278c5.788,0.04,11.5,1.162,17.296,1.154
					c1.814-0.002,3.564,0.871,5.431,0.692c1.058-0.101,1.434-0.693,0.766-1.483c-1.797-2.126-3.623-4.113-6.508-5.012
					c-4.112-1.281-8.325-2.4-12.049-4.709c-0.24-0.149-0.444-0.354-1.013-0.816c4.856-0.198,9.43-0.587,13.75,0.89
					c4.476,1.53,7.385,5.337,10.627,8.794c1.007-1.154,1.394-2.3,1.472-3.507c0.483-7.5,1.681-14.94,1.84-22.467
					c0.077-3.659,0.122-3.705-3.431-4.918c-4.198-1.434-8.161-3.415-12.237-5.131c-0.538-0.227-1.332-0.368-1.535-1.458
					c4.861-0.523,9.685-1.471,14.202,1.273c1.417,0.861,3.242,0.583,4.561,1.844c0.964-1.896,1.18-3.872,0.163-5.69
					c-1.155-2.065-0.225-4.098-0.328-6.137c-0.015-0.291,0.132-0.658,0.45-0.57c2.046,0.567,1.54-1.02,1.689-1.996
					c0.376-2.467,0.722-4.94,0.487-7.587c-5.045,0.334-9.516,3.08-15.219,3.145c3.252-2.807,5.894-5.272,8.35-7.923
					c2.741-2.959,5.506-5.899,8.182-8.917c1.446-1.631,2.082-3.663,2.348-5.811c0.138-1.111-0.061-1.75-1.45-1.848
					c-6.274-0.439-12.531-0.244-18.794,0.175c-1.661,0.111-2.254,1.425-3.33,2.244c-1.386,1.055-1.309,2.039-1.262,3.438
					c0.063,1.908,0.724,4.08-1.599,5.382c-0.472,0.264-0.173,1.082-0.155,1.65c0.05,1.558,0.022,3.17-0.755,4.515
					c-1.025,1.774-0.943,3.612-1.018,5.536c-0.138,3.561-0.441,7.125-0.873,10.664c-0.389,3.189-0.391,6.335,0.069,9.509
					c0.24,1.657,0.491,3.359-0.142,5.286c-1.657-1.089-2.36-2.547-3.202-3.887c-3.072-4.891-4.642-10.329-5.765-15.924
					c-0.265-1.318-0.388-2.665-0.669-3.979c-0.225-1.051-0.158-2.409-2.069-1.767c-0.822,0.277-1.231-0.762-1.467-1.501
					c-0.501-1.563-0.757-3.178-0.952-4.806c-0.126-1.051-0.275-2.046-1.352-2.715c-1.001-0.622-0.948-1.822-1.05-2.87
					c-0.185-1.909-0.183-3.845-0.87-5.814c-2.903,0.216-5.571,1.338-8.317,2.104c-9.846,2.747-19.362,6.395-28.737,10.456
					c-4.512,1.955-9.285,3.119-14.217,3.731c-0.154-0.522,0.326-0.494,0.523-0.626c0.311-0.209,0.689-0.316,1.037-0.47
					c3.869-1.714,7.77-3.311,10.641-6.693c1.187-1.398,3.175-1.751,4.841-2.497c0.909-0.407,2.084-0.451,2.109-1.969
					c0.012-0.716,0.951-0.837,1.584-1.044c1.097-0.359,2.197-0.707,3.292-1.069c0.364-0.12,0.954-0.294,0.872-0.636
					c-0.536-2.249,1.359-1.925,2.472-2.427c1.335-0.602,3.027-0.55,3.641-2.413c0.22-0.667,1.301-0.693,2.051-0.869
					c2.032-0.478,4.138-0.712,5.645-2.501c0.438-0.52,1.35-0.735,2.087-0.892c2.303-0.492,4.2-1.863,6.309-2.77
					c0.721-0.31,1.019-0.807,0.963-1.576c-0.205-2.851,0.866-5.632,0.049-8.588c-0.515-1.866-0.082-4.028,0.092-6.042
					c0.205-2.366-0.56-3.353-3.394-3.488c-0.857-0.041-1.727,0.083-2.58-0.116c-0.463-0.108-0.918-0.256-1.632-0.459
					c1.49-1.252,3.164-1.252,4.686-1.587c1.549-0.341,2.455-1.037,2.153-2.738c-0.292-1.648,1.042-3.755-1.394-4.839
					c-0.249-0.111-0.26-0.885-0.281-1.356c-0.065-1.451,0.048-2.891,0.336-4.319c0.667-3.306,1.359-6.606,1.683-9.973
					c0.081-0.844,0.368-1.693,0.695-2.485c1.261-3.046,1.7-6.17,2.027-9.482c0.608-6.161,1.185-12.35,3.599-18.306
					c1.553-3.832,2.632-7.987,3.705-12.033c0.702-2.648,1.517-5.1,2.883-7.438c3.12-5.342,5.292-11.118,7.538-16.853
					c0.266-0.678,0.538-1.458,0.018-2.37c-2.125,0.831-3.05,2.796-4.17,4.477c-2.456,3.684-4.782,7.457-7.132,11.211
					c-0.575,0.919-1.181,2.008-2.195,2.192c-1.561,0.283-1.909,1.432-2.505,2.515c-1.254,2.277-2.525,4.545-3.838,6.787
					c-0.336,0.574-0.784,1.389-1.303,1.495c-2.04,0.418-2.148,2.126-2.792,3.569c-1.771,3.967-3.728,7.794-7.173,10.695
					c-1.136,0.957-1.795,2.483-2.661,3.756c-1.658,2.438-2.945,5.235-6.355,5.824c-0.914,0.158-1.102,1.241-1.498,2.009
					c-1.63,3.157-2.996,6.478-5.353,9.204c-0.813,0.941-1.313,2.391-3.136,1.891c-0.81-0.222-1.294,0.71-1.791,1.282
					c-1.64,1.892-3.219,3.839-4.904,5.69c-1.297,1.425-2.642,2.793-4.908,2.48c-0.979-0.136-1.741,0.522-2.489,1.229
					c-2.308,2.181-4.685,4.294-7.124,6.326c-0.708,0.59-1.463,1.674-2.733,0.689c-0.537-0.415-1.11,0.153-1.515,0.501
					c-0.802,0.688-1.501,1.494-2.271,2.221c-2.747,2.594-5.63,4.942-9.366,6.055c-2.032,0.605-3.876,1.716-5.688,2.821
					c-1.326,0.809-2.652,1.555-4.223,1.79c-1.079,0.162-1.879,0.881-2.749,1.484c-2.232,1.548-4.101,3.596-7.261,3.655
					c-1.426,0.027-2.832,1.5-4.233,2.34c-1.304,0.781-2.455,1.823-4.243,1.254c-0.613-0.195-1.476,0.307-2.2,0.56
					c-6.084,2.131-12.162,4.29-18.075,6.857c-4.14,1.798-8.15,3.895-12.238,5.816c-1.089,0.512-2.158,1.164-3.445,1.181
					c-0.556-1.322,0.294-1.96,1.076-2.709c4.213-4.038,8.996-7.196,14.31-9.603c3.859-1.748,7.753-3.43,11.338-5.741
					c2.027-1.307,3.799-2.927,5.74-4.335c0.523-0.38,1.192-0.773,0.797-1.63c-0.483-1.048,0.363-1.38,0.996-1.744
					c1.251-0.719,2.567-1.325,3.818-2.046c1.379-0.795,2.98-1.328,2.88-3.508c-0.045-0.979,1.177-1.436,1.987-1.929
					c1.808-1.1,3.665-2.12,5.461-3.237c0.776-0.482,1.784-0.95,0.406-2.054c-0.875-0.701,0.138-1.201,0.611-1.503
					c1.949-1.239,3.972-2.361,5.925-3.594c0.909-0.574,2.699-0.735,1.384-2.632c-0.27-0.39,0.524-0.949,0.956-1.298
					c1.275-1.028,2.622-1.968,3.872-3.024c0.797-0.674,2.564-1.205,0.598-2.633c-0.458-0.333,0.155-0.823,0.449-1.165
					c1.461-1.696,3.386-2.837,5.085-4.248c0.665-0.552,1.36-1.073,1.986-1.667c0.339-0.322,0.68-1.01,0.201-1.218
					c-2.351-1.018-0.412-1.718,0.225-2.178c1.555-1.122,3.26-2.034,4.885-3.063c0.467-0.296,1.203-0.87,0.581-1.314
					c-1.637-1.169-0.403-1.737,0.381-2.302c2.104-1.514,4.308-2.891,6.378-4.448c0.55-0.414,2.501-0.79,0.546-2.137
					c-0.498-0.344,0.323-0.999,0.736-1.299c2.486-1.806,5.007-3.564,7.519-5.334c0.867-0.611,1.743-1.211,2.613-1.817
					c0.515-0.359,0.913-0.827,0.504-1.437c-0.807-1.202,0.019-1.701,0.845-2.273c1.447-1.002,3.094-1.53,4.731-2.097
					c1.634-0.567,3.294-1.087,4.786-1.984c0.594-0.357,1.27-1.055,0.541-1.604c-1.586-1.193-0.468-1.686,0.444-2.144
					c2.751-1.381,5.528-2.711,8.323-4.001c1.049-0.484,2.249-0.666,1.937-2.328c-0.147-0.786,0.599-1.066,1.247-1.352
					c2.022-0.89,4.04-1.796,6.019-2.776c1.325-0.656,2.972-0.952,3.353-2.817c0.089-0.437,0.725-0.554,1.173-0.747
					c7.489-3.231,13.997-8.034,20.508-12.831c1.681-1.238,3.368-2.468,5.044-3.696c-0.412-0.878-0.993-0.562-1.524-0.392
					c-1.281,0.408-2.543,0.883-3.836,1.244c-2.576,0.72-4.985,2.007-7.8,1.951c-1.082-0.021-2.211,0.629-3.263,1.099
					c-1.722,0.769-3.295,1.754-5.395,1.073c-1.067-0.346-2.244,0.444-3.268,0.962c-4.114,2.083-8.724,3.112-12.504,5.902
					c-0.304,0.224-0.704,0.509-1.033,0.479c-2.61-0.236-4.576,1.165-6.591,2.473c-0.32,0.208-0.697,0.498-1.036,0.482
					c-2.818-0.128-4.847,1.652-7.142,2.821c-1.29,0.658-2.525,1.743-4.231,0.684c-0.572-0.355-1.472,0.261-2.128,0.681
					c-1.97,1.262-4.111,2.072-6.38,2.631c-1.016,0.25-1.962,0.781-2.939,1.187c-0.709,0.294-1.432,0.876-2.121,0.837
					c-2.894-0.164-5.146,1.43-7.571,2.542c-1.335,0.613-2.644,1.232-4.153,0.809c-1.14-0.319-2.059,0.248-3.038,0.635
					c-1.965,0.777-3.914,2.165-5.993,1.917c-3.357-0.402-6.153,1.055-9.172,1.855c-1.341,0.355-2.869,1.262-3.936-0.851
					c-0.537-1.064-1.956-0.398-2.958-0.335c-4.906,0.306-9.783,1.04-14.721,0.872c-2.195-0.075-4.368-0.241-6.791-0.75
					c0.872-0.963,1.875-1.184,2.844-1.495c6.135-1.971,12.444-3.39,18.441-5.788c1.857-0.742,3.874-1.324,4.84-3.389
					c0.111-0.238,0.382-0.489,0.63-0.562c3.663-1.08,6.041-4.391,9.687-5.531c1.368-0.427,2.547-1.26,3.527-2.411
					c1.285-1.51,3.233-2.011,4.953-2.843c1.43-0.692,3.175-0.936,3.775-2.782c0.071-0.218,0.422-0.415,0.682-0.492
					c4.265-1.252,7.618-4.471,12.008-5.492c2.23-0.519,4.483-1.101,6.335-2.633c0.602-0.498,1.438-0.48,2.208-0.586
					c2.954-0.407,5.894-0.831,8.745-1.811c3.31-1.137,6.862-0.923,10.261-1.568c3.369-0.639,6.69-0.431,10.072-0.176
					c4.413,0.333,8.831,0.783,13.243,0.921c3.341,0.104,6.708-0.632,10.085-0.232c1.719,0.203,3.428,0.499,5.15,0.656
					c1.132,0.103,2.294,0.224,3.448-0.209c0.348-1.823-0.936-2.884-1.955-3.96c-1.721-1.816-3.578-3.504-5.401-5.221
					c-1.837-1.731-3.464-3.615-4.531-5.93c-0.04-0.087-0.096-0.167-0.146-0.25c-3.073-5.09-7.248-9.477-9.359-15.417
					c-10.004,10.572-21.736,18.509-32.275,28.582c-0.367-3.086,0.765-5.118,2.072-6.921c3.398-4.688,5.973-9.928,9.407-14.535
					c3.945-5.293,6.428-11.367,10.025-16.814c0.633-0.959,1.036-2.068,1.631-3.055c0.708-1.174,0.385-2.128-0.301-3.195
					c-1.924-2.995-4.626-5.4-6.385-8.525c-0.296-0.526-1.023-0.892-1.628-1.147c-3.81-1.609-6.203-5.064-10.226-7.23
					c2.837-1.173,5.113-0.57,7.324-0.358c4.078,0.39,7.784,2.093,11.535,3.59c1.372,0.548,2.248,1.788,3.434,2.595
					c1.872,1.273,2.867,0.817,2.985-1.436c0.221-4.238,1.331-8.326,1.977-12.491c0.043-0.28,0.225-0.538,0.269-0.818
					c0.093-0.587,0.052-1.16-0.436-1.596c-0.586-0.523-1.111-0.069-1.569,0.186c-1.761,0.982-3.487,2.026-5.227,3.045
					c-1.056,0.619-2.017,1.573-3.199,0c-0.501-0.667-1.444-0.141-2.127,0.231c-1.609,0.875-3.201,1.781-4.813,2.65
					c-1.212,0.653-2.458,1.191-3.764,0.229c-0.343-0.253-0.668-0.344-1.06-0.192c-1.971,0.766-4.16,1.221-5.838,2.402
					c-1.244,0.875-1.946,0.874-2.394-0.261c-0.555-1.406-1.223-1.087-2.211-0.676c-2.132,0.887-4.287,1.725-6.462,2.503
					c-1.176,0.42-2.369,1.346-3.608-0.106c-0.455-0.533-1.306-0.023-1.917,0.186c-1.455,0.499-2.89,1.066-4.303,1.673
					c-1.213,0.521-2.318,1.402-3.667,0.174c-0.574-0.523-1.291,0.09-1.892,0.321c-1.787,0.688-3.462,1.155-5.531,0.801
					c-1.908-0.327-3.994,0.36-5.998,0.629c-3.631,0.488-7.263,0.968-10.936,0.882c-0.618-0.015-1.303,0.12-1.888-0.296
					c0.253-0.664,0.83-0.72,1.384-0.816c4.286-0.741,8.364-2.207,12.474-3.567c4.146-1.372,7.774-3.789,11.557-5.847
					c2.367-1.288,4.733-2.503,7.206-3.56c1.376-0.588,2.94-0.962,3.62-2.641c0.414-1.023,1.586-0.971,2.493-1.219
					c1.929-0.528,3.921-0.821,5.127-2.793c0.58-0.949,1.869-0.904,2.866-1.208c2.566-0.782,5.336-0.993,7.539-2.764
					c0.071-0.057,0.177-0.096,0.269-0.1c4.887-0.235,9.591-2.217,14.56-1.556c0.909,0.121,1.896,0.227,2.519-0.272
					c2.436-1.946,5.168-1.342,7.734-0.837c1.789,0.353,2.435-0.156,2.955-1.669c1.125-3.272,2.408-6.491,3.501-9.773
					c0.898-2.698,2.033-5.31,2.889-8.102c-2.682,1.09-4.647,2.863-5.906,5.388c-0.298,0.598-0.445,1.272-0.652,1.914
					c-0.405,1.256-0.511,2.687-2.565,2.304c-0.785-0.146-1.386,0.905-2.05,1.455c-3.028,2.511-5.927,5.263-10.047,5.937
					c-5.394,0.882-10.765,1.989-16.284,1.553c-1.323-0.104-2.64-0.227-4.026-1c0.699-0.887,1.604-1.046,2.5-1.302
					c3.426-0.978,6.862-1.93,10.246-3.04c2.829-0.928,5.412-2.336,7.592-4.795c-0.936-0.482-1.616-0.154-2.304,0.03
					c-3.901,1.042-7.709,2.468-11.791,2.765c-1.484,0.108-2.874-0.052-4.191-0.771c-0.382-0.208-0.563-0.49-0.55-0.919
					c0.162-0.069,0.332-0.212,0.487-0.197c7.036,0.663,12.837-2.691,18.726-5.752c0.779-0.405,1.411-0.966,1.909-1.72
					c0.42-0.635,0.991-1.169,1.498-1.747c3.08-3.513,6.701-6.034,11.523-6.487c1.58-0.149,3.018-0.675,3.344-2.79
					c-3.011-0.092-5.734,0.32-8.216,2.012c-3.831,2.612-7.915,4.79-12.227,6.48c-1.801,0.706-3.612,1.755-5.916,1.25
					c1.542-2.419,4.651-2.347,6.734-4.741c-4.865,0.286-9.123-0.866-13.41-0.4c-4.181,0.455-8.088,2.347-12.731,2.865
					c1.996-1.972,4.279-2.499,6.338-3.417c1.496-0.666,3.046-1.208,4.564-1.826c0.423-0.172,1.011-0.333,0.872-0.936
					c-0.128-0.555-0.621-0.667-1.149-0.478c-3.859,1.385-7.961,0.439-11.94,1.255c-2.219,0.455-4.763-0.075-7.146,0.428
					c-0.603,0.127-1.246-0.106-1.402-0.742c-0.319-1.302-1.044-1.061-1.9-0.65c-0.864,0.415-1.771,0.749-2.604,1.218
					c-1.396,0.786-2.733,1.281-4.312,0.372c-1.118-0.644-2.28-0.011-3.347,0.344c-4.656,1.55-9.256,3.272-13.941,4.724
					c-2.418,0.75-4.891,1.599-7.522,1.293c-0.046-0.912,0.614-1.094,1.11-1.261c6.518-2.193,12.459-5.574,18.416-8.915
					c2.108-1.182,4.289-2.149,6.573-2.93c1.219-0.417,2.764-0.4,3.265-2.02c0.023-0.074,0.135-0.171,0.206-0.172
					c3.4-0.014,5.666-3.387,9.193-3.09c0.743,0.063,1.548-0.134,2.27-0.374c6.175-2.055,12.537-2.675,19.002-2.557
					c1.133,0.021,2.302,0.313,3.277-0.634c0.652-0.633,1.438-0.253,2.196-0.147c2.944,0.409,5.837,1.405,8.874,0.83
					c0.438-0.083,0.989,0.093,1.308-0.916c-8.188-2.903-16.733-4.391-25.297-5.952c0.44-1.41,1.306-1.189,2.013-1.229
					c2.843-0.163,5.487,0.952,8.251,1.329c4.768,0.649,9.512,1.48,14.285,2.083c1.466,0.185,2.771,0.772,4.175,1.067
					c0.432,0.091,1.023,0.222,1.205-0.398c0.184-0.625-0.384-0.816-0.801-0.999c-2.033-0.891-4.124-1.645-6.326-1.947
					c-2.307-0.316-4.534-0.845-6.634-1.858c-1.317-0.635-2.726-0.916-4.143-1.226c-0.861-0.188-2.118,0.001-1.976-1.717
					c0.057-0.69-1.168-0.835-1.912-0.867c-2.119-0.093-4.268,0.061-5.739-2.005c-0.257-0.362-1.057-0.368-1.618-0.478
					c-1.676-0.329-3.512-0.304-4.468-2.138c-0.038-0.072-0.16-0.14-0.245-0.143c-3.094-0.094-5.304-2.314-8.017-3.322
					c-0.535-0.199-1.408-0.166-1.591-0.517c-1.082-2.076-3.134-1.948-4.942-2.331c-0.83-0.176-1.436-0.477-1.727-1.299
					c-0.481-1.36-1.416-1.983-2.881-1.813c-1.112,0.129-2.039-0.455-2.979-0.916c-0.311-0.153-0.735-0.579-0.352-0.885
					c1.624-1.296,0.095-1.735-0.634-2.202c-1.7-1.088-3.498-2.021-5.232-3.057c-3.023-1.807-4.707-3.617-6.177-6.56
					c0.63-0.487,1.08,0.037,1.548,0.304c3.626,2.069,7.718,2.939,11.555,4.469c1.389,0.554,2.97,0.641,4.556,0.315
					c2.087-0.428,4.056-0.137,6.138,0.715c2.729,1.117,5.694,1.75,8.614,2.282c3.316,0.604,6.522,1.598,9.773,2.352
					c3.46,0.802,6.602,2.099,9.532,3.868c5.317,3.21,10.929,6.045,15.235,10.713c0.434,0.471,0.473,0.435,2.233,0.835
					c-2.741-6.702-7.565-11.853-11.573-17.799c1.841-0.402,2.746,0.838,3.892,1.349c0.598,0.266,1.061,0.825,1.61,1.215
					c0.436,0.309,0.914,0.304,1.307-0.08c0.347-0.34,0.107-0.704-0.051-1.045c-0.705-1.514-1.942-2.964-0.563-4.727
					c-1.096-2.111-0.595-4.671-1.549-6.671c-0.945-1.98-1.894-3.957-2.747-5.988c-1.242-2.955-3.308-5.405-5.095-8.026
					c-1.12-1.643-2.397-3.219-2.894-5.685c2.692,1.14,4.149,3.17,5.935,4.767c1.871,1.673,3.449,3.624,4.973,5.599
					c1.48,1.918,3.8,2.975,5.024,5.148c1.213,2.153,3.048,3.818,4.756,5.724c0.177-3.08,1.127-6.036,0.6-9.068
					c-0.258-1.481-0.221-2.879,0.346-4.246c0.305-0.737,0.415-1.482,0.394-2.258c-0.044-1.619-0.419-3.303,1.101-4.562
					c0.169-0.14,0.17-0.548,0.162-0.829c-0.097-3.111,1.606-5.95,1.367-9.08c-0.007-0.091,0.023-0.198,0.069-0.279
					c1.533-2.723,1.926-5.876,3.546-8.634c1.252-2.131,2.907-4.017,3.894-6.31c0.22-0.512,0.582-1.095,1.043-1.348
					c2.194-1.206,2.786-3.333,3.335-5.498c0.781-3.08,1.546-6.165,2.297-9.252c0.16-0.656,0.204-1.348,0.919-1.831
					c1.042,2.322,1.163,4.791,1.349,7.238c0.088,1.153-0.271,2.439,0.124,3.45c1.427,3.658-0.163,7.289,0.174,10.877
					c0.23,2.455-0.24,4.762-0.369,7.138c-0.047,0.872-0.072,1.712-0.412,2.539c-0.488,1.186-0.727,2.392-0.03,3.615
					c0.185,0.325,0.352,0.753,0.306,1.105c-0.712,5.433,1.102,10.629,1.644,15.933c0.572,5.59,0.328,11.125,0.369,16.686
					c0.002,0.288,0.032,0.618-0.089,0.859c-1.636,3.251-1.412,6.958-2.553,10.328c-0.438,1.292-0.788,2.606-0.239,3.939
					c0.261,0.634,0.722,1.181,1.53,1.052c0.753-0.12,0.691-0.765,0.804-1.332c0.784-3.918,2.112-7.58,4.837-10.637
					c0.788-0.884,0.835-2.11,0.907-3.282c0.16-2.629,0.942-5.107,2.023-7.489c0.225-0.495,0.469-1.185,1.212-1.012
					c0.616,0.143,0.831,0.713,0.947,1.313c0.113,0.586,0.006,1.135-0.085,1.711c-0.086,0.545-0.144,1.197,0.513,1.511
					c0.793,0.38,1.287-0.185,1.72-0.682c1.257-1.442,2.684-2.794,3.657-4.415c1.85-3.084,4.691-5.307,6.731-8.222
					c0.953-1.362,1.889-2.716,2.328-4.278c1.17-4.163,2.439-8.303,3.114-12.597c0.248-1.574,0.643-3.176,1.873-4.687
					c1.193,2.105,0.871,4.118,0.673,6.05c-0.383,3.735-1.063,7.43-1.817,11.112c-0.222,1.086-0.603,2.274,0.209,3.342
					c0.105,0.138,0.25,0.414,0.196,0.479c-1.5,1.838-0.609,4.551-2.346,6.323c-0.548,0.559-1.247,1.163-0.169,2.134
					c0.69,0.622-0.239,1.394-0.713,1.931c-1.825,2.071-3.414,4.283-4.506,6.835c-0.422,0.985-1.014,1.902-1.906,2.496
					c-2.817,1.876-4.435,5.025-7.317,6.82c-0.432,0.269-0.746,0.599-0.704,1.149c0.234,3.115,0.96,6.207-0.045,9.696
					c3.543-1.034,6.01-2.498,7.054-5.64c0.438-1.319,1.022-2.458,2.151-3.32c0.858-0.655,1.368-1.605,1.847-2.561
					c0.382-0.763,0.605-1.647,1.458-2.081c0.861-0.438,1.075-1.218,1.313-2.094c0.447-1.644,0.735-3.407,2.522-4.34
					c0.805-0.42,0.561-1.357,0.622-2.109c0.102-1.265,0.257-2.475,1.524-3.223c1.011-0.598,1.24-1.704,1.398-2.75
					c0.239-1.575,0.684-2.944,2.117-3.91c0.597-0.403,0.929-1.204,1.365-1.835c0.981-1.42,1.814-2.934,3.45-3.809
					c0.63-0.337,1.062-1.085,1.517-1.696c0.978-1.314,1.843-2.554,3.754-2.853c1.536-0.24,2.497-1.743,3.442-2.952
					c1.903-2.433,3.568-5.029,4.984-7.779c0.427-0.83,0.707-1.766,1.721-2.405c0.668,1.534-0.003,2.779-0.459,3.917
					c-1.361,3.394-2.909,6.711-4.341,10.077c-0.712,1.674-1.266,3.353-1.329,5.256c-0.07,2.104-1.119,4.064-1.677,6.103
					c-0.854,3.12-2.1,6.152-3.402,9.124c-1.573,3.589-3.802,6.861-5.271,10.516c-0.241,0.6-0.742,1.096-1.341,1.953
					c4.182-0.483,7.336-2.684,10.781-4.471c0.515,1.268-0.302,1.746-0.922,2.222c-2.304,1.767-4.9,3.016-7.537,4.201
					c-2.52,1.133-5.218,2.013-6.788,4.593c-0.539,0.885-1.366,1.549-1.316,2.78c0.035,0.856-0.525,1.614-1.177,2.236
					c-3.142,2.996-6.426,5.822-10.151,8.071c-2.161,1.304-4.629,1.855-7.045,2.511c-2.319,0.629-4.652,1.228-6.847,2.237
					c-0.48,0.221-1.171,0.445-0.822,1.186c0.24,0.508,0.792,0.438,1.277,0.3c1.48-0.421,2.979-0.784,4.436-1.272
					c7.932-2.657,15.877-5.294,23.839-7.836c4.038-1.289,7.962-3.284,12.404-3.434c1.763-0.059,3.377-1.292,5.016-2.101
					c4.147-2.045,7.804-4.904,11.864-7.082c1.471-0.789,2.896-1.857,5.48-1.834c-4.217,4.368-9.301,6.573-13.443,10.188
					c2.396,0.468,6.123-0.373,9.124-1.898c1.648-0.837,3.067-1.998,4.518-3.106c2.142-1.636,4.196-3.371,6.644-4.585
					c0.921-0.456,1.718-1.25,2.43-2.021c1.253-1.356,2.603-2.554,4.224-3.452c0.498-0.276,1.018-0.605,1.371-1.038
					c3.769-4.605,8.896-7.609,13.363-11.389c1.981-1.676,3.963-3.351,5.936-5.037c0.371-0.317,0.718-0.638,1.248-0.538
					c0.745,0.685-0.038,0.994-0.342,1.378c-2.219,2.799-4.207,5.724-5.426,9.127c-0.942,2.63-2.89,4.514-4.948,6.29
					c-3.736,3.225-7.06,6.809-9.597,11.074c-0.098,0.165-0.168,0.368-0.308,0.486c-2.823,2.391-4.934,5.528-8.214,7.467
					c-2.882,1.704-5.732,3.499-8.339,5.627c-1.071,0.874-2.305,1.355-3.603,1.752c-4.969,1.517-9.931,3.06-14.898,4.584
					c-0.725,0.222-1.497,0.332-2.234,1.343c5.932-1.102,11.613-1.819,17.511-1.153c-0.592,0.974-1.473,0.886-2.285,0.976
					c-3.846,0.426-7.57,1.391-11.233,2.601c-1.828,0.604-3.627,1.258-5.1,2.601c-0.392,0.358-1.172,0.407-1.008,1.142
					c0.141,0.635,0.801,0.815,1.358,0.936c5.282,1.141,9.579,4.336,14.188,6.859c0.997,0.546,2.742,0.37,2.762,2.313
					c0.006,0.563,0.996,0.381,1.494,0.648c1.686,0.906,3.312,1.788,4.368,3.567c1.162,1.956,1.854,1.849,3.861,0.437
					c0.75-0.528,1.219-1.192,1.757-1.847c0.365-0.445,0.649-1.339,0.997-1.354c2.193-0.094,2.324-1.915,2.959-3.301
					c0.4-0.873,0.815-1.543,1.941-1.07c0.589,0.247,1.133,0.045,1.614-0.328c2.803-2.172,5.599-4.352,8.405-6.518
					c3.881-2.996,7.662-6.147,12.319-7.941c0.875-0.337,1.697-0.862,2.735-0.754c-0.241,1.375-1.417,1.802-2.275,2.501
					c-4.552,3.713-9.098,7.429-12.927,11.929c-1.081,1.27-2.101,2.501-1.761,4.359c0.187,1.023-0.276,1.936-1.04,2.576
					c-1.729,1.448-2.86,3.362-4.228,5.098c-1.472,1.868-3.271,3.451-4.806,5.284c-1.7,2.03-1.707,2.009-0.213,4.408
					c0.904,1.45,2.274,2.303,3.395,3.461c0.974,1.006,2.055,1.906,2.98,3.257c-1.655,0.169-2.78-0.333-3.859-0.96
					c-1.495-0.868-2.948-1.81-4.465-2.636c-0.754-0.411-1.612-0.879-2.421-0.875c-0.93,0.004-0.8,1.16-1.163,1.797
					c-0.455,0.8-1.331,1.086-2.036,1.567c-0.804,0.547-1.867,1.026-1.977,1.992c-0.229,2.02-1.712,2.882-3.072,3.917
					c-1.768,1.345-3.42,2.822-4.865,4.51c-0.912,1.065-1.846,2.151-1.93,3.717c1.201,0.351,1.807-0.393,2.477-0.834
					c4.684-3.078,9.54-5.783,15.015-7.214c1.591-0.416,3.117-0.81,4.783-0.093c1.176,0.507,2.475,0.102,3.697-0.212
					c1.678-0.431,3.343-0.922,5.038-1.269c0.998-0.204,1.97-0.419,2.901,0.604c0.956,1.051,2.369,0.443,3.574,0.236
					c2.276-0.393,4.53-0.972,6.847-1.026c1.192-0.028,2.447-0.317,3.436,0.923c0.56,0.702,1.657,0.402,2.489,0.26
					c5.06-0.863,10.198,0.23,15.257-0.646c0.643-0.111,1.6-0.201,1.959,0.156c1.592,1.579,3.205,0.744,4.831,0.278
					c1.46-0.418,2.881-0.773,3.626,1.092c0.311,0.779,0.931,0.885,1.639,0.865c1.351-0.037,2.701-0.095,4.052-0.108
					c1.155-0.011,2.383-0.158,3.376,0.548c1.548,1.101,3.211,1.031,4.979,0.891c1.705-0.135,3.483-0.197,4.853,1.189
					c0.595,0.602,1.435,0.522,2.152,0.736c6.425,1.92,13.017,2.668,19.706,2.628c0.861-0.005,1.687-0.182,2.461,0.464
					c0.755,0.631,1.652,0.174,2.499,0.09c1.982-0.196,3.92-1.044,6.171-0.394c-0.585,1.498-1.865,1.772-3.121,2.102
					c-3.468,0.911-7.037,1.195-10.578,1.503c-13.676,1.19-27.34,1.264-41.026-0.221c-12.36-1.341-24.671-3.242-37.13-3.602
					c-9.179-0.265-18.327-0.062-27.363,1.768c-2.095,0.424-4.29,0.761-6.232,2.642c1.965,0,3.55,0.111,5.114-0.019
					c6.627-0.554,13.253-0.986,19.893-0.308c1.419,0.145,2.87,0.297,4.155,1.054c1.922,1.133,4.039,1.165,6.17,1.022
					c2.798-0.187,5.507-0.233,7.977,1.554c1.182,0.855,2.801,0.557,4.229,0.686c1.343,0.122,2.702,0.062,4.051,0.134
					c0.765,0.041,1.659,0.013,2.152,0.668c1.205,1.604,2.954,1.601,4.667,1.803c2.101,0.247,4.143,0.6,6.064,1.669
					c1.143,0.636,2.561,0.805,3.872,1.109c2.628,0.608,5.292,1.105,7.001,3.536c0.425,0.605,1.158,0.641,1.801,0.825
					c2.442,0.698,4.651,1.74,6.421,3.678c1.203,1.317,1.898,1.243,3.473-0.015c2.67-2.133,4.443-5.033,6.49-7.697
					c1.104-1.437,1.961-3.098,3.591-4.085c1.116,0.661,0.869,1.611,0.669,2.546c-0.528,2.471-1.425,4.797-2.681,6.993
					c-0.86,1.506-1.718,3.018-2.478,4.575c-1.283,2.632-0.448,4.917,2.247,6.105c1.417,0.625,2.809,1.304,4.039,2.218
					c0.758,0.563,1.895,1.078,1.099,2.537c-0.511,0.938,0.591,1.105,1.139,1.213c1.821,0.362,3.482,1.139,5.121,1.922
					c1.156,0.552,2.568,0.995,2.764,2.654c0.117,0.988,1.003,1.1,1.734,1.251c1.729,0.358,3.289,1.106,4.779,1.997
					c0.801,0.479,2.054,0.786,1.08,2.272c-0.355,0.541,0.473,0.69,0.873,0.821c1.095,0.36,2.222,0.622,3.315,0.986
					c1.367,0.454,2.625,0.921,3.239,2.533c0.641,1.683,2.461,2.06,3.972,2.621c5.634,2.09,11.524,3.076,17.446,3.901
					c0.286,0.04,0.581,0.021,0.866,0.065c0.836,0.13,2.018,0.104,2.081,1.11c0.08,1.286-1.114,1.669-2.2,1.801
					c-5.084,0.616-10.173,0.991-15.286,0.282c-1.717-0.238-3.446-0.439-5.176-0.525c-0.885-0.044-1.941-0.302-2.4,1.005
					c-0.253,0.72-0.936,0.425-1.485,0.218c-1.08-0.407-2.158-0.821-3.25-1.194c-1.131-0.387-2.224-1.216-3.424,0.04
					c-0.482,0.504-1.259,0.13-1.902-0.149c-1.324-0.575-2.643-1.194-4.022-1.597c-1.282-0.375-2.514-1.432-4.028-0.202
					c-0.6,0.487-1.646-0.038-2.416-0.483c-1.661-0.959-3.311-1.941-5.01-2.828c-1.083-0.565-2.195-1.23-3.488-0.371
					c-0.967,0.642-1.869,0.068-2.695-0.388c-1.431-0.791-2.812-1.67-4.217-2.507c-0.78-0.465-1.66-0.877-2.351-0.026
					c-0.949,1.169-1.815,0.728-2.749,0.093c-0.239-0.163-0.436-0.406-0.693-0.52c-1.188-0.528-2.228-2.162-3.516-1.494
					c-1.574,0.816-3.222,2.184-3.657,3.917c-0.628,2.499-2.329,3.931-4.082,5.392c-1.334,1.112-2.751,1.928-2.574,4.108
					c0.094,1.151-1.308,1.784-2.171,2.529c-1.342,1.159-2.877,1.995-3.814,3.727c-0.707,1.307-0.391,1.857,0.467,2.592
					c0.872,0.746,1.775,1.457,2.623,2.229c0.624,0.569,1.048,1.21,0.049,1.862c-0.88,0.575-0.435,1.163,0.061,1.653
					c1.174,1.159,2.6,1.979,4.012,2.8c4.777,2.78,9.937,4.603,15.26,5.994c0.911,0.238,1.786,0.428,2.679,1.535
					c-5.574,0.386-10.687,0.085-15.715-1.288c-1.853-0.506-3.685-1.067-5.468-1.82c-1.584-0.67-3.234-1.189-5.043-0.646
					c-1.67,0.501-3.027-0.593-4.264-1.369c-2.355-1.479-5.264-1.137-7.594-2.612c-0.666-0.422-1.255,0.327-1.728,0.773
					c-1.917,1.812-4.233,3.09-5.596,5.638c-1.141,2.132-3.414,3.554-5.479,4.98c-4.373,3.02-7.675,6.972-9.9,11.807
					c-0.15,0.326-0.404,0.662-0.062,1.249c1.444-0.217,2.791-0.924,4.159-1.536c7.228-3.235,14.774-5.521,22.399-7.584
					c1.142-0.309,2.193-0.626,3.259,0.294c0.732,0.632,1.65,0.239,2.503,0.086c2.935-0.527,5.875-1.029,8.815-1.534
					c1.2-0.206,2.318-0.217,2.906,1.161c0.412,0.965,1.312,0.686,2.021,0.63c1.632-0.127,3.254-0.384,4.882-0.571
					c2.218-0.256,4.396-0.419,6.435,0.893c0.911,0.586,2.068,0.329,3.123,0.321c1.543-0.011,3.087-0.067,4.63-0.055
					c1.161,0.009,2.288,0.039,2.991,1.294c0.602,1.073,1.778,1.022,2.843,1.042c1.542,0.028,3.094-0.063,4.625,0.075
					c1.103,0.1,2.346,0.139,2.786,1.591c0.354,1.165,1.398,0.791,2.208,0.782c2.811-0.032,5.587,0.243,8.296,0.987
					c1.436,0.395,1.428,0.514,0.217,2.23c2.072,0.263,4.027,0.471,5.969,0.767c2.139,0.326,4.316,0.345,5.916,2.372
					c0.794,1.006,2.461,0.965,3.806,1.037c1.745,0.094,3.437,0.467,5.11,0.904c1.01,0.264,2.357,0.187,2.056,2.043
					c-0.152,0.936,0.972,1.029,1.725,1.099c1.819,0.169,3.671,0.02,5.45,0.581c0.456,0.144,1.232,0.129,1.335,0.393
					c0.794,2.031,2.656,2.141,4.342,2.558c1.775,0.439,3.552,0.89,5.351,1.21c6.499,1.153,13.03,1.411,19.597,0.615
					c1.021-0.124,2.07-0.017,3.343-0.017c-0.706,1.062-1.716,1.373-2.655,1.705c-8.034,2.84-16.251,4.802-24.807,5.134
					c-1.286,0.05-2.749-0.309-3.385,1.441c-0.169,0.464-0.85,0.295-1.32,0.318c-1.471,0.073-2.892-0.285-4.272-0.678
					c-1.244-0.354-2.434-0.576-3.683-0.181c-1.86,0.588-3.649-0.147-5.428-0.406c-2.664-0.388-5.263-0.917-7.997-0.497
					c-1.831,0.281-3.601-0.441-5.351-1.001c-1.256-0.402-2.459-0.904-3.869-0.111c-0.914,0.514-2.048-0.07-3.087-0.297
					c-2.184-0.476-4.31-1.638-6.65-0.146c-0.794,0.506-2.071-0.033-3.063-0.401c-1.649-0.613-3.321-0.875-5.091-0.88
					c-2.143-0.006-4.124-0.923-6.172-1.456c-1.385-0.36-2.694-0.845-4.154,0.019c-1.046,0.62-2.26,0.17-3.343-0.287
					c-1.063-0.448-2.111-0.933-3.166-1.403c-0.884-0.394-1.677-0.803-2.592,0.141c-0.613,0.632-1.434,0.139-2.122-0.253
					c-1.673-0.953-3.343-1.913-5.042-2.817c-1.347-0.716-2.693-1.65-4.167-0.113c-0.53,0.553-1.255,0.201-1.909-0.011
					c-2.21-0.714-4.295-1.705-6.19-3.026c-0.843-0.588-1.666-0.769-2.367-0.181c-1.178,0.988-2.16,0.371-3.173-0.131
					c-4.237-2.101-8.522-3.988-13.29-4.624c-3.966-0.529-7.882-0.529-11.793,0.289c-0.627,0.131-1.345,0.153-1.728,0.887
					c0.28,0.913,1.095,1.301,1.832,1.696c5.612,3.012,10.375,7.266,15.702,10.692c0.396,0.255,0.866,0.578,1.031,0.98
					c0.921,2.246,2.864,3.234,4.873,4.204c0.771,0.372,1.511,0.867,2.156,1.43c1.96,1.711,4.071,3.166,6.385,4.371
					c1.263,0.657,2.518,1.466,3.145,2.873c0.307,0.69,0.931,0.883,1.536,1.199c2.499,1.304,4.72,2.959,6.277,5.375
					c0.759,1.177,1.904,1.941,3.093,2.551c1.575,0.808,2.94,1.722,3.802,3.353c0.709,1.34,2.143,1.865,3.395,2.591
					c1.432,0.83,3.377,1.274,2.982,3.679c-0.113,0.69,0.689,0.799,1.204,1.038c1.133,0.526,2.261,1.063,3.375,1.626
					c1.001,0.506,2.174,0.817,1.742,2.47c-0.224,0.856,0.704,1.369,1.357,1.685c2.344,1.134,4.5,2.309,6.06,4.638
					c0.815,1.218,2.746,1.673,4.141,2.525c0.659,0.402,1.569,0.439,1.54,1.737c-0.021,0.917,1.216,1.369,2.012,1.881
					c1.048,0.674,2.134,1.288,3.188,1.952c0.406,0.256,1.088,0.561,1.104,0.872c0.142,2.728,2.323,2.427,4.043,2.892
					c1.54,0.416,3.074,0.728,4.114,2.301c0.655,0.991,2.048,1.37,3.203,1.874c3.168,1.381,6.449,2.542,8.843,5.277
					c0.963,1.1,2.514,1.373,3.849,1.839c6.746,2.36,12.95,5.88,19.362,8.95c1.811,0.867,3.365,2.161,4.777,3.627
					c-0.27,0.912-1.057,0.637-1.662,0.672c-4.276,0.246-8.456-0.494-12.602-1.385c-3.86-0.83-7.712-1.712-11.478-2.933
					c-1.746-0.566-3.464-0.76-5.378-0.395c-2.746,0.523-5.583,0.452-8.215-0.845c-0.62-0.305-1.26-0.492-1.956-0.361
					c-2.983,0.561-5.69-0.284-8.371-1.503c-0.894-0.407-2.139-1.367-2.736,0.54c-0.22,0.702-0.757,0.321-1.178,0.131
					c-1.051-0.474-2.107-0.937-3.148-1.432c-1.047-0.498-2.134-1.213-3.26-1.042c-2.817,0.428-5.075-0.854-7.335-2.111
					c-1.294-0.72-2.451-1.472-4.025-0.817c-0.723,0.301-1.462,0.038-2.186-0.387c-1.5-0.879-2.913-1.857-4.258-2.959
					c-1.449-1.187-2.733-2.394-4.987-2.393c-1.894,0.001-3.237-1.928-4.667-3.199c-1.015-0.902-1.883-1.78-3.431-1.836
					c-1.328-0.048-2.111-1.21-2.745-2.331c-0.811-1.433-1.758-2.677-3.196-3.634c-1.381-0.919-2.021-2.53-2.622-4.076
					c-0.336-0.864-0.546-1.929-1.975-1.264c-0.749,0.349-1.224-0.261-1.605-0.873c-0.812-1.303-1.766-2.516-2.37-3.947
					c-0.687-1.625-1.066-3.392-3.317-3.853c-1.11-0.227-1.524-1.667-2.031-2.691c-0.639-1.29-1.173-2.635-1.709-3.974
					c-0.345-0.86-0.707-1.573-1.855-1.324c-1.107,0.24-1.565-0.645-1.944-1.387c-0.83-1.625-1.525-3.318-2.313-4.965
					c-0.276-0.577-0.499-1.555-1.256-1.358c-1.789,0.465-1.86-0.894-2.231-1.883c-0.775-2.068-1.49-4.161-2.177-6.261
					c-0.368-1.124-0.66-2.056-2.169-2.277c-1.166-0.171-1.253-1.594-1.485-2.588c-0.96-4.126-1.845-8.269-2.771-12.403
					c-0.167-0.747-0.338-1.503-0.611-2.215c-0.355-0.925-0.299-2.512-1.64-2.32c-1.087,0.155-0.794,1.614-0.79,2.515
					c0.009,2.216,0.02,4.449,0.298,6.641c0.281,2.211,0.346,4.419,0.428,6.634c0.014,0.381,0.162,0.903-0.028,1.124
					c-2.206,2.578-0.855,5.521-0.806,8.281c0.05,2.824,0.365,5.607-1.652,7.964c-0.062,0.072-0.148,0.157-0.151,0.239
					c-0.17,4.004-1.971,7.531-3.251,11.212c-0.124,0.358-0.036,0.795-0.181,1.139c-2.353,5.573-4.13,11.353-6.147,17.046
					c-0.128,0.36-0.252,0.852-0.531,1.006c-2.453,1.355-2.613,4.061-3.738,6.194c-0.539,1.022-1.094,2.037-1.658,3.045
					c-0.393,0.704-0.79,1.351-1.775,0.705c-0.762-0.5-1.36-0.027-1.623,0.636c-1.101,2.77-2.127,5.569-3.592,8.181
					c-0.523,0.932,0.168,1.521,0.827,1.868c2.294,1.21,4.547,2.506,6.998,3.408c1.24,0.457,1.894,0.056,2.571-1.032
					c0.884-1.423,1.161-3.151,2.86-4.198c2.186-1.347,3.541-1.465,5.103,0.517c0.473,0.6,0.881,1.239,1.427,1.796
					c1.254,1.277,2.518,1.659,4.387,1.13c6.227-1.762,12.56-3.009,19.097-2.603c2.791,0.173,5.582,0.349,8.367,0.596
					c1.167,0.104,2.393,0.459,3.027,1.476c0.663,1.063,1.529,1.21,2.605,1.289c3.174,0.233,6.352,0.531,9.428,1.379
					c1.21,0.334,2.793,0.425,2.785,2.372c-0.002,0.463,0.526,0.734,1.097,0.649c3.113-0.463,6.032,0.912,9.094,0.978
					c0.693,0.015,1.349,0.342,1.785,0.865c1.22,1.461,2.863,1.816,4.63,1.993c2.227,0.222,4.301,1.02,6.357,1.853
					c0.715,0.29,1.556,0.547,1.67,1.428c0.249,1.916,1.79,2.086,3.161,2.403c2.535,0.586,5.05,1.218,7.445,2.254
					c1.143,0.495,2.351,0.922,2.528,2.447c0.105,0.905,0.915,1.201,1.577,1.551c1.359,0.719,2.774,1.333,4.133,2.053
					c1.714,0.908,3.35,1.854,3.666,4.104c0.138,0.981,1.079,1.518,1.944,1.995c1.935,1.068,3.879,2.126,5.76,3.285
					c1.06,0.653,2.621,1.103,1.654,3.012c-0.321,0.632,0.446,0.951,0.945,1.231c2.177,1.223,4.378,2.404,6.522,3.681
					c1.075,0.64,2.109,1.291,1.206,2.96c-0.601,1.111,0.641,1.671,1.402,2.165c2.012,1.308,3.921,2.732,5.624,4.291
					c-0.091,1.155-1.401,1.06-1.687,1.939c1.972,1.522,3.87,2.977,5.757,4.446c1.065,0.829,2.069,1.717,2.832,2.854
					c0.429,0.638,1.026,1.178,0.193,1.975c-0.626,0.598-0.171,1.274,0.116,1.862c3.208,6.566,6.134,13.295,10.992,18.905
					c1.329,1.535,2.726,2.985,4.335,4.236c0.972,0.755,1.978,1.505,2.826,2.852c-1.431,0.4-2.494,0.039-3.57-0.561
					c-4.492-2.506-8.438-5.717-12.037-9.359c-4.529-4.584-8.878-9.339-13.56-13.784c-4.966-4.715-10.107-9.15-15.833-12.931
					c-7.383-4.875-14.411-10.288-22.151-14.624c-11.912-6.674-23.998-13.003-36.252-19.038c-10.254-5.05-20.82-9.014-31.965-11.478
					c-1.201-0.265-2.918-0.951-3.417,0.183c-0.565,1.285,1.351,1.732,2.221,2.509c1.085,0.969,2.392,1.583,3.677,2.228
					c0.859,0.431,1.762,0.805,2.549,1.344c4.58,3.136,9.576,5.766,13.602,9.578c3.019,2.858,6.199,5.717,8.31,9.431
					c0.943,1.659,2.676,2.442,4.012,3.655c1.537,1.396,2.903,2.791,3.375,4.87c0.249,1.095,0.996,1.824,1.788,2.55
					c2.341,2.147,4.587,4.375,6.372,7.04c0.864,1.29,2.174,2.179,3.398,3.116c1.378,1.056,2.751,2.11,3.91,3.415
					c0.706,0.795,1.509,1.494,0.823,2.766c-0.383,0.71,0.194,1.117,0.764,1.602c1.312,1.117,2.556,2.342,3.667,3.659
					c0.797,0.945,2.12,1.785,1.167,3.474c-0.345,0.612,0.434,1.213,0.895,1.688c1.54,1.589,3.087,3.171,4.672,4.715
					c0.665,0.648,1.124,1.24,0.75,2.259c-0.547,1.493,0.199,2.53,1.344,3.447c2.52,2.018,4.611,4.346,5.448,7.607
					c0.265,1.035,1.106,1.795,1.862,2.541c2.265,2.235,3.886,4.765,3.915,8.09c0.01,1.099,0.67,1.97,1.21,2.877
					c1.171,1.969,2.519,3.864,1.867,6.41c-0.19,0.74,0.454,1.435,0.801,2.123c1.086,2.148,2.229,4.272,3.191,6.475
					c0.89,2.04,0.578,2.468-1.963,3.134c0.662,2.166,1.278,4.347,2.006,6.489c0.348,1.024,0.274,1.74-0.529,2.578
					c-1.18,1.232-1.236,2.704-0.024,3.437c2.763,1.671,2.871,4.506,2.423,6.852c-0.531,2.786,0.157,5.101,0.94,7.554
					c0.146,0.459,0.367,0.901,0.454,1.37c0.121,0.646,0.333,1.356-0.407,1.82c-1.319,0.828-0.648,1.791-0.207,2.754
					c1.199,2.618,2.415,5.229,3.561,7.871c0.355,0.819,0.965,1.744-0.426,2.392c-0.845,0.394-0.904,1.002-0.203,1.83
					c1.377,1.626,2.161,3.623,3.006,5.56c0.647,1.483,1.283,2.94,2.355,4.204c1.798,2.12,3.715,4.174,4.72,6.853
					c0.167,0.446,0.494,0.765,1.037,0.895c1.352,0.322,1.455,1.318,1.252,2.435c-0.751,0.638-1.307,0.024-1.875-0.225
					c-5.866-2.572-11.168-6.018-15.847-10.396c-1.304-1.22-2.532-2.347-4.551-1.65c-0.963,0.332-1.623-0.411-2.159-1.111
					c-0.994-1.299-1.966-2.616-2.92-3.944c-0.771-1.074-1.35-2.233-2.957-2.434c-1.246-0.156-1.745-1.428-2.297-2.428
					c-1.253-2.267-2.448-4.566-3.666-6.85c-1.921,0.97-2.235,0.958-3.235-0.547c-1.172-1.764-2.129-3.652-2.949-5.61
					c-0.479-1.143-0.862-2.357-1.828-3.156c-0.503-0.139-0.785,0.153-1.071,0.387c-1.211,0.989-1.888,0.501-2.312-0.798
					c-0.774-2.377-1.563-4.749-2.343-7.125c-0.299-0.909-0.591-1.821-0.963-2.968c-1.78,1.249-2.837,0.404-3.796-1.051
					c-1.589-2.41-3.048-4.966-4.984-7.072c-2.315-2.519-3.426-5.478-4.468-8.591c-0.524-1.568-0.575-3.762-3.283-3.504
					c-0.602,0.058-0.871-0.911-1.193-1.507c-1.162-2.146-1.558-4.53-2.24-6.829c-0.433-1.461-0.338-3.233-2.506-3.731
					c-0.814-0.187-1.183-1.467-1.373-2.42c-0.433-2.17-0.906-4.341-1.152-6.535c-0.136-1.209-0.569-1.984-1.67-2.4
					c-1.355-0.512-1.829-1.562-1.94-2.924c-0.086-1.05-0.36-2.084-0.474-3.133c-0.147-1.347-0.112-2.711-2.034-2.859
					c-0.753-0.058-0.878-0.957-1.13-1.559c-0.784-1.872-1.346-3.808-1.615-5.829c-0.127-0.955-0.637-1.496-1.546-0.729
					c-0.816,0.689-1.072,0.319-1.428-0.445c-0.995-2.133-1.407-4.39-1.554-6.709c-0.063-0.999-0.011-1.981-1.523-1.804
					c-1.004,0.118-1.165-0.726-1.449-1.472c-0.707-1.856-0.672-3.785-0.663-5.708c0.006-1.26-0.094-2.201-1.745-1.535
					c-0.726,0.293-1.104-0.157-1.185-0.807c-0.179-1.433-0.196-2.892-0.464-4.306c-0.307-1.624-0.141-3.532-2.497-4.063
					c-0.983-0.221-1.092-1.521-1.401-2.411c-1.829-5.27-3.573-10.571-5.442-15.827c-0.695-1.956-1.18-4.041-2.592-5.798
					c-2.325,1.79-4.085,3.735-4.447,6.725c-0.121,1.002-0.678,2.06-1.708,2.574c-1.041,0.519-1.511,1.452-1.955,2.409
					c-0.849,1.832-1.199,3.404-0.261,5.633c1.437,3.416,1.836,7.269,1.68,11.056c-0.046,1.112,0.083,2.08,0.638,3.037
					c0.926,1.597,1.426,3.365,1.928,5.126c0.157,0.55,0.621,1.187,0.294,1.664c-1.577,2.305-0.199,4.455,0.274,6.631
					c0.271,1.248,0.809,2.393-0.721,3.256c-0.589,0.332-0.276,1.007-0.127,1.578c0.413,1.582,0.851,3.166,1.111,4.777
					c0.172,1.065,0.702,2.283-0.637,3.126c-0.837,0.527-0.471,1.387-0.334,2.114c0.286,1.51,0.646,3.006,0.954,4.512
					c0.242,1.185,0.301,2.317-0.998,3.009c-1.109,0.59-0.911,1.574-0.699,2.535c0.269,1.222,0.587,2.433,0.837,3.658
					c0.155,0.758,0.424,1.785-0.122,2.239c-2.186,1.82-1.156,4.068-0.89,6.122c0.203,1.565,0.364,2.818-1.274,3.689
					c-0.858,0.457-0.488,1.375-0.423,2.113c0.144,1.632,0.361,3.258,0.493,4.891c0.075,0.934-0.181,1.746-1.263,1.954
					c-1.409,0.27-1.081,1.049-0.904,2.131c0.493,3.015,1.156,6.042,0.829,9.136c-2.689,0.041-2.839,0.133-2.745,2.702
					c0.092,2.503,0.39,4.999,0.478,7.502c0.043,1.224,0.519,2.824-1.844,2.63c-0.888-0.073-0.872,1.035-0.803,1.841
					c0.206,2.401,0.314,4.812,0.581,7.206c0.103,0.922-0.006,1.606-0.976,1.716c-1.99,0.227-2.081,1.735-2.213,3.166
					c-0.433,4.711-1.456,9.313-2.375,13.943c-1.126,5.673-3.527,10.768-6.496,15.648c-0.449,0.738-1.015,1.405-1.512,2.115
					c-0.231,0.331-0.503,0.624-0.924,0.511c-0.443-0.12-0.536-0.561-0.506-0.937c0.082-1.057,0.144-2.127,0.356-3.162
					c1.669-8.163,1.262-16.288-0.352-24.401c-0.585-2.942-2.081-5.582-2.801-8.482c-0.14-0.562-0.449-1.114-1.185-1.029
					c-1.783,0.206-1.778-1.021-1.788-2.216c-0.007-0.867,0.044-1.734,0.061-2.601c0.027-1.402,0.509-3.006-1.681-3.339
					c-0.533-0.081-0.573-0.714-0.593-1.192c-0.057-1.347-0.106-2.695-0.126-4.043c-0.018-1.248,0.096-2.507-0.524-3.874
					c-2.108,0.907-3.276-0.529-4.522-1.882c-0.975-1.058-1.639-2.781-3.697-1.757c-0.576,0.286-1.05-0.45-1.361-0.883
					c-2.064-2.875-4.888-4.72-7.87-6.555c-2.619-1.612-5.158-3.231-8.092-4.211c-2.441-0.815-3.02-0.593-2.985,1.936
					c0.052,3.758-0.133,7.505-0.212,11.257C32.281-93.881,31.556-81.453,31.986-69c0.466,13.493,1.404,26.947,2.501,40.403
					c0.587,7.2,1.018,14.418,1.687,21.616c0.053,0.571,0.07,1.157,0.006,1.726c-0.2,1.8-0.643,2.249-2.4,1.904
					c-1.577-0.309-2.853-0.094-3.919,1.156c-1.009-0.968-0.956-2.294-1.162-3.468c-1.117-6.365-1.895-12.764-2.177-19.237
					c-0.45-10.305-1.104-20.602-1.716-30.9c-0.446-7.503-0.318-15.01-0.184-22.513c0.169-9.439-0.367-18.867-0.311-28.303
					c0.007-1.193-0.398-2.284-1.05-3.262c-0.478-0.717-1.043-1.379-1.593-2.046c-2.705-3.28-3.097-3.369-6.788-1.242
					c-0.91,0.524-1.746,1.195-2.552,1.875c-1.138,0.96-1.49,2.162-1.037,3.636c0.791,2.576,1.554,5.162,2.234,7.769
					c0.275,1.053,0.837,2.247-0.489,3.111c-0.834,0.544-0.321,1.212-0.026,1.756c1.757,3.242,2.318,6.692,2.007,10.341
					c-0.089,1.045-0.085,2.168,0.2,3.162c0.755,2.631,0.169,5.198-0.371,7.7c-0.266,1.233-0.251,2.215,0.209,3.309
					c0.868,2.065,1.317,4.231,1.36,6.47c0.015,0.767,0.198,1.753-0.189,2.265c-1.447,1.915-0.868,4.045-1.003,6.118
					c-0.099,1.521,0.017,3.097-0.766,4.528c-0.217,0.397-0.334,0.941-0.27,1.384c0.684,4.723-0.279,9.422-0.273,14.14
					c0.004,3.938-0.273,7.946-0.608,11.919c-0.458,5.42-0.097,10.941,0.917,16.368C15.047-2.901,15.925,1.523,15.32,6.175z"/>
			</g>
		</g>
	</g>
</g>
<g id="Layer_3">
	<path fill="#092F47" d="M92.303-375.337c-0.32-1.13-1.093-1.352-1.735-1.754c-4.046-2.53-7.277-5.927-10.201-9.648
		c-0.107-0.136-0.359-0.326-0.333-0.373c1.347-2.389-1.19-2.771-2.07-3.99c-0.444-0.615-1.238-0.95-1.48-1.741
		c-0.487-1.595-1.677-2.306-3.222-2.471c-0.836-0.089-1.196-0.421-1.153-1.265c0.063-1.223-0.252-2.461,0.611-3.604
		c0.367-0.486,0.511-1.307,0.43-1.934c-0.421-3.267,0.439-6.494,0.217-9.746c-0.013-0.192-0.021-0.386-0.019-0.579
		c0.007-0.703,0.11-1.426,0.885-1.637c0.879-0.239,1.154,0.515,1.39,1.134c0.89,2.335,1.646,4.727,2.645,7.013
		c0.834,1.909,0.889,4.403,3.638,5.072c0.605,0.147,0.755,1.275,0.979,2.019c0.387,1.288,0.768,2.578,1.418,3.773
		c0.374,0.688,0.748,1.614,1.467,1.687c1.858,0.189,2.413,1.649,3.313,2.848c0.973,1.296,1.841,2.7,3.493,3.343
		c1.037,0.403,1.48,1.433,2.044,2.348c0.993,1.611,1.883,3.393,4.224,3.454c0.838,0.022,1.252,0.824,1.684,1.465
		c0.644,0.957,1.261,1.932,1.931,2.87c0.694,0.972,1.502,1.577,2.869,1.548c1.545-0.032,2.407,0.967,2.099,2.356
		c-0.394,1.776-1.069,3.491-1.65,5.224c-0.087,0.258-0.309,0.659-0.488,0.67c-2.004,0.118-1.834,1.67-1.719,2.872
		c0.555,5.78-1.28,10.98-3.449,16.189c-1.102,2.646-1.646,5.532-2.352,8.332c-0.612,2.427-0.895,2.654-3.267,2.424
		c-10.556-1.026-20.265,1.381-29.103,7.259c-0.637,0.424-1.254,0.89-1.933,1.232c-0.393,0.198-0.92,0.412-1.301-0.112
		c-0.348-0.479-0.106-0.948,0.138-1.341c0.78-1.258,1.93-2.182,3.156-2.927c2.133-1.297,4.365-2.434,6.555-3.638
		c0.82-0.451,1.774-0.683,2.536-1.612c-2.263-0.755-4.258,0.954-6.376,0.546c-0.216-1.153,0.465-1.928,0.981-2.686
		c2.006-2.944,4.172-5.768,7.051-7.936c5.159-3.884,10.396-7.646,16.418-10.14c0.597-0.247,1.291-0.419,1.711-1.195
		c-0.765,0-1.504-0.152-2.155,0.024c-5.192,1.403-10.445,2.608-15.149,5.439c-1.545,0.93-3.297,1.469-4.713,2.71
		c-0.723,0.633-1.771,1.164-2.979,0.738c0.278-1.517,0.957-2.807,1.648-4.023c2.571-4.518,2.955-9.484,2.138-14.324
		c-0.505-2.994-0.966-6.131-1.986-9.429c-2.429,2.115-2.889,4.793-3.607,7.286c-1.062,3.685-1.941,7.422-2.914,11.132
		c-0.219,0.836-0.617,1.62-0.593,2.521c0.036,1.365-0.141,2.648-1.094,3.769c-0.652,0.767-0.613,1.812-0.612,2.777
		c0,1.754-0.486,3.432-0.788,5.135c-0.095,0.535-0.494,1.168-1.204,0.924c-0.518-0.179-0.434-0.795-0.365-1.255
		c0.905-6.04,0.669-12.126,0.657-18.196c-0.007-3.758-0.296-7.517-0.491-11.274c-0.105-2.034,0.509-3.737,1.896-5.264
		c1.55-1.707,2.901-3.595,4.427-5.325c1.445-1.638,2.101-1.617,3.833-0.191c1.55,1.277,3.221,2.415,4.462,4.039
		c0.288,0.376,0.665,0.907,1.05,0.952c3.727,0.434,6.087,3.536,9.414,4.738C87.462-376.272,89.629-375.167,92.303-375.337z"/>
	<path fill="#092F47" d="M14.967-371.481c-1.416-1.251-1.382-2.737-1.729-4.103c-0.964-3.791-1.466-7.695-2.998-11.353
		c-0.542-1.293-0.579-2.811-0.76-4.237c-0.13-1.021-0.353-1.885-1.495-2.198c-1.003-0.275-1.422-0.936-1.138-1.967
		c0.505-1.831-0.208-3.406-1.048-4.943c-1.85-3.383-3.806-6.685-6.919-9.116c-0.89-0.695-1.196-1.646-0.326-2.479
		c3.049-2.921,3.831-7.048,5.62-10.616c1.49-2.972,2.227-6.327,3.243-9.53c1.009-3.182,0.705-6.48,0.793-9.746
		c0.043-1.597-0.327-3.27,0.523-4.78c1.232,0.038,1.695,1.015,2.163,1.778c2.264,3.689,5.176,6.952,7.113,10.855
		c0.25,0.504,0.628,0.988,1.056,1.354c4.722,4.033,9.278,8.328,14.887,11.13c2.426,1.212,3.716,2.808,3.85,5.516
		c0.07,1.424,0.521,2.828,0.773,4.245c0.112,0.632,0.378,1.301-0.33,2.001c-2.618-1.391-4.202-4.004-6.83-6.356
		c0.581,3.028,2.434,4.695,3.386,6.718c-0.282,0.266-0.452,0.524-0.543,0.498c-2.847-0.8-5.861-1.168-8.408-2.78
		c-1.355-0.858-2.778-1.364-4.309-1.487c-2.452-0.198-4.684-0.955-6.844-2.091c-1.068-0.562-2.132-1.383-3.43-0.963
		c-0.337,0.266-0.349,0.607-0.179,0.8c3.119,3.54,6.29,7.019,11.216,8.044c0.666,0.139,1.499,0.259,1.776,0.85
		c0.557,1.191,1.771,1.601,2.961,2.566c-3.114,1.325-5.348,3.38-7.757,5.189c-0.153,0.115-0.403,0.183-0.462,0.331
		c-1.254,3.165-4.386,3.712-6.963,5.035c-0.15,0.077-0.232,0.283-0.521,0.654c2.204,0.869,4.296,1.367,6.562,0.573
		c2.097-0.735,3.968-1.929,5.964-2.868c1.653-0.778,3.313-1.541,4.986-2.272c0.521-0.228,1.117-0.511,1.644-0.453
		c1.18,0.13,2.778-0.171,3.196,1.328c0.407,1.462-1.038,1.821-2.041,2.345c-0.854,0.446-1.77,0.848-1.863,2.16
		c2.21,0.171,4.168-1.526,7.031-1.102c-4.508,3.175-8.62,6.103-12.334,9.525C20.724-379.966,18.116-375.556,14.967-371.481z"/>
	<path fill="#092F47" d="M57.923-179.979c0.524,0.123,0.707,0.193,0.895,0.206c1.968,0.137,1.914,0.126,1.601,2.095
		c-0.29,1.825-0.985,3.523-1.47,5.286c-0.221,0.804-0.641,1.51,0.347,2.28c0.776,0.605,0.227,1.596-0.073,2.414
		c-0.63,1.714-1.27,3.426-1.82,5.166c-0.179,0.565-0.493,1.449,0.693,1.403c1.07-0.041,1.075,0.699,0.918,1.342
		c-0.341,1.398-0.817,2.762-1.232,4.142c-0.462,1.537-1.074,2.944-0.165,4.677c0.727,1.387-0.248,3-0.489,4.506
		c-0.166,1.039-0.559,2.041-0.797,3.071c-0.17,0.734-0.072,1.462,0.924,1.282c1.514-0.274,1.28,0.667,1.163,1.53
		c-0.249,1.832-1.08,3.493-1.579,5.251c-0.212,0.745-0.684,1.403,0.508,2.139c1.117,0.69,0.676,2.274,0.335,3.445
		c-0.162,0.558-0.778,0.345-1.203,0.045c-1.595-1.126-2.908-2.519-3.869-4.217c-1.069-1.889-2.407-3.468-4.575-4.105
		c-0.639-0.187-0.975-0.529-1.075-1.177c-0.311-2.013-1.828-3.094-3.367-4.044c-1.323-0.816-2.576-1.649-3.539-2.891
		c-1.168-1.506-2.928-2.154-4.558-2.934c-1.817-0.869-2.549-2.186-2.357-4.164c0.559-5.746,1.034-11.5,1.626-17.243
		c0.217-2.101,0.567-4.2,1.25-6.216c0.211-0.624,0.386-1.321,1.529-1.539c3.112,6.734,6.206,13.532,7.426,21.398
		c1.843-1.562,2.558-3.4,2.788-5.007c0.421-2.949,2.09-5.901,0.562-8.984c0.693-2.403-0.128-4.491-1.357-6.489
		c-0.698-1.136-1.299-2.362-2.615-2.954c-0.796-0.357-1.047-1.134-1.26-1.852c-0.278-0.935-0.361-1.937,0.412-2.723
		c0.795-0.809,1.757-0.668,2.69-0.286c1.425,0.583,2.833,1.206,4.247,1.814c0.461,0.198,0.989,0.361,1.333-0.07
		c0.448-0.561,0.042-1.205-0.327-1.527c-1.003-0.876-2.015-1.775-3.317-2.235c-1.001-0.354-1.978-0.771-2.745-1.541
		c0.165-1.028,1.041-1.322,1.771-1.763c1.729-1.044,3.51-2.012,5.168-3.159c1.15-0.795,2.393-1.64,2.551-3.26
		c-1.609-1.093-2.463,1.57-4.318,0.504c2.939-3.394,7.684-4.623,9.948-8.729c0.002-0.172-0.212-0.327-0.484-0.429
		c-2.024-0.756-2.149-0.841-1.127-2.449c4.144-6.519,8.554-12.83,15.005-17.358c0.841-0.59,1.613-1.414,2.78-1.268
		c0.478,0.332,0.238,0.682,0.059,1c-4.149,7.391-7.245,15.286-10.979,22.874c-1.189,2.416-2.576,4.735-3.862,7.104
		c-0.441,0.812-0.829,1.579,0.548,1.959c1.178,0.326,0.704,1.148,0.365,1.838c-1.571,3.2-3.033,6.447-4.24,9.804
		C58.339-181.388,58.163-180.746,57.923-179.979z"/>
	<path fill="#092F47" d="M43.469-382.876c1.489-1.812,1.613-3.791,2.87-5.257c0.803,0.268,0.857,0.982,1.031,1.569
		c1.296,4.381,1.594,8.881,1.557,13.418c-0.001,0.096-0.026,0.193-0.022,0.288c0.093,2.352-1.799,4.323-0.572,7.095
		c0.938,2.118,0.29,4.936,0.356,7.443c0.066,2.504,0.131,5.008,0.217,7.511c0.063,1.829,0.144,3.658,0.249,5.485
		c0.104,1.814-0.215,3.348-1.82,4.574c-1.291,0.985-1.7,1.289-2.592,0.011c-1.035-1.481-2.633-2.159-3.941-3.703
		c-0.49,1.953,0.733,2.93,1.317,4.127c0.442,0.907,1.746,1.949-0.459,2.475c-0.665,0.159-0.169,0.785,0.122,1.118
		c0.887,1.012,1.799,2.002,2.707,2.997c0.691,0.757,1.509,1.456-0.22,2.021c-1.162,0.38-0.831,1.454-0.58,2.218
		c0.294,0.896,0.876,1.698,1.331,2.542c0.244,0.454,0.376,0.934-0.169,1.236c-0.446,0.247-1.045,0.23-1.336-0.154
		c-0.454-0.6-0.813-1.303-1.074-2.013c-1.427-3.882-2.774-7.817-4.846-11.398c-1.61-2.783-3.215-5.584-5.429-8.016
		c-1.36-1.495-2.279-3.434-3.197-5.273c-0.524-1.051-1.108-2.007-1.878-2.875c-2.555-2.879-5.024-5.839-7.683-8.619
		c-1.413-1.477-1.581-2.949-0.934-4.732c0.769-2.118,2.144-3.882,3.403-5.687c2.533-3.633,5.488-6.921,8.669-10.012
		c2.831-2.751,6.266-4.422,9.859-5.875c1.225-0.496,1.757-0.228,1.886,1.114C42.48-387.27,42.739-385.291,43.469-382.876z"/>
	<path fill="#092F47" d="M70.29-430.635c3.112-0.148,5.668,1.109,8.31,1.869c5.684,1.635,10.821,4.411,15.631,7.82
		c0.314,0.223,0.61,0.564,0.957,0.634c4.255,0.848,7.122,3.993,10.526,6.257c1.23,0.818,2.394,1.926,4.186,1.471
		c0.736-0.187,1.358,0.577,1.905,1.119c0.818,0.81,1.605,1.654,2.461,2.421c0.632,0.566,1.315,1.408,2.205,1.167
		c1.725-0.467,2.718,0.681,3.873,1.467c1.509,1.028,2.915,2.163,4.86,2.36c1.313,0.133,2.095,1.296,3.066,2.064
		c1.503,1.188,2.851,2.614,5.087,2.248c0.931-0.153,1.12,0.548,0.824,1.338c-0.415,1.107-1.117,2.019-1.984,2.81
		c-0.436,0.398-0.889,0.429-1.187-0.104c-0.879-1.577-1.662-0.437-2.197,0.184c-0.936,1.085-1.643,2.364-2.511,3.513
		c-0.388,0.514-0.998,1.23-1.604,0.374c-0.894-1.263-1.419-0.602-1.861,0.249c-0.797,1.535-1.527,3.108-2.224,4.691
		c-0.198,0.449-0.5,1.227-0.775,1.061c-1.792-1.076-2.98,0.531-4.45,0.806c-0.994,0.186-1.844-0.855-1.801-1.534
		c0.156-2.504-1.75-3.215-3.299-4.236c-0.986-0.65-1.871-1.226-2.105-2.552c-0.241-1.361-1.507-1.895-2.573-2.551
		c-1.849-1.137-4.029-1.88-4.43-4.553c-0.135-0.897-1.29-1.36-2.131-1.82c-1.346-0.736-2.758-1.359-4.062-2.161
		c-1.041-0.641-2.54-0.959-1.845-2.959c0.27-0.778-1.012-1.542-1.75-2.138c-3.512-2.836-7.094-5.586-10.577-8.456
		c-3.356-2.765-6.295-5.944-8.862-9.46C71.272-428.167,70.562-429.072,70.29-430.635z"/>
	<path fill="#092F47" d="M40.667-297.469c-1.043,0.516-1.808,0.907-2.585,1.274c-0.854,0.403-1.629,0.648-1.736,1.948
		c-0.12,1.466-1.728,1.671-2.849,2.077c-1.067,0.386-1.904,0.572-1.786,2.075c0.094,1.205-1.179,1.624-2.069,2.168
		c-1.585,0.969-3.385,1.513-3.97,3.778c-0.337,1.304-2.052,1.935-3.187,2.815c-0.912,0.707-1.76,1.318-2.123,2.584
		c-0.425,1.478-1.974,2.006-3.2,2.74c-0.455,0.273-0.955,0.21-1.271-0.253c-0.222-0.326-0.281-0.792,0.033-1.062
		c1.702-1.464,1.268-3.279,0.865-5.075c-0.4-1.782-0.835-3.557-1.305-5.321c-0.338-1.267-1.111-2.521,0.402-3.613
		c0.411-0.296,0.191-0.905,0.098-1.368c-0.419-2.079-0.323-4.21-0.743-6.302c-0.413-2.059-0.539-4.141-0.055-6.288
		c0.444-1.969-0.053-4.004-0.454-5.991c-0.242-1.201-0.554-2.375,0.525-3.507c0.762-0.8,0.515-2.041,0.292-3.064
		c-0.634-2.916-1.09-5.762-0.737-8.833c0.217-1.894-0.376-3.986-0.401-6.008c-0.002-0.193-0.029-0.388-0.008-0.578
		c0.846-7.64-0.024-15.366,1.15-22.99c0.099-0.641-0.011-1.365,0.854-1.892c1.094,0.899,1.218,2.324,1.453,3.508
		c1.106,5.559,2.102,11.142,3.013,16.737c0.712,4.373,1.706,8.67,2.997,12.902c0.534,1.751,1.867,3.098,2.408,4.897
		c0.468,1.558,0.31,2.55-1.147,3.354c-5.567,3.073-7.054,8.535-8.201,14.177c-0.033,0.162,0.103,0.359,0.211,0.697
		c2.042-0.572,3.338-2.182,4.668-3.569c1.756-1.83,4.021-2.81,6.066-4.13c1.804-1.164,2.832-0.972,3.884,0.848
		c1.657,2.865,4.009,5.134,5.974,7.726C38.597-299.873,39.554-298.806,40.667-297.469z"/>
	<path fill="#092F47" d="M87.103-319.288c0.522,0.793,0.316,1.223,0.052,1.639c-3.876,6.105-6.605,12.817-10.093,19.127
		c-1.07,1.935-2.075,3.907-3.193,5.814c-1.014,1.73-2.375,3.279-1.917,5.551c0.158,0.784-0.603,1.399-1.063,1.973
		c-2.358,2.943-4.429,6.029-5.679,9.634c-0.546,1.575-1.918,2.634-2.878,3.955c-1.682,2.314-3.749,4.433-3.809,7.575
		c-0.016,0.845-0.736,1.294-1.216,1.891c-2.353,2.924-4.584,5.903-6.029,9.445c-1.018,2.495-3.493,3.654-5.819,5.391
		c-0.513-1.673-0.501-3.081-0.214-4.438c1.118-5.286,1.531-10.665,2.204-16.01c0.506-4.013,1.524-7.933,2.089-11.943
		c0.32-2.272,1.838-3.958,4.331-4.405c0.467-0.084,1.128-0.119,1.339-0.425c1.409-2.044,2.972-1.003,4.531-0.331
		c1.471,0.634,2.82,1.671,4.812,1.439c-0.4-1.6-1.554-2.48-2.545-3.383c-1.93-1.76-1.491-3.214,0.983-3.901
		c1.772-0.492,2.772-1.537,3.658-2.976c0.945-1.534,1.76-3.132,3.898-3.557c1.181-0.235,1.747-1.666,2.585-2.569
		c4.183-4.505,5.988-10.503,9.754-15.249C84.116-316.592,85.105-318.404,87.103-319.288z"/>
	<path fill="#092F47" d="M24.761-248.144c-1.931,0.097-3.951-0.62-5.699,1.035c-0.782,0.741-2.149-0.046-2.318-1.228
		c-0.162-1.133-0.369-2.371-0.083-3.436c0.83-3.093,0.258-6.119-0.142-9.153c-0.133-1.008-0.258-1.84,0.561-2.639
		c0.667-0.649,0.539-1.545,0.517-2.434c-0.025-0.983,0.245-1.978,1.645-1.776c1.122,0.161,2.08-0.341,3.007-0.831
		c1.126-0.595,2.259-1.073,3.558-0.937c0.824,0.087,1.528-0.269,2.17-0.659c1.263-0.767,2.581-1.162,4.068-1.257
		c1.364-0.087,2.582-0.739,3.52-1.773c1.169-1.288,2.678-1.797,4.331-2.038c2.111-0.308,2.459-0.041,2.248,2.024
		c-0.284,2.772-0.454,5.577-1.032,8.292c-0.687,3.226-0.486,6.518-1.081,9.736c-0.331,1.793-0.651,3.592-0.854,5.402
		c-0.137,1.224-0.72,1.725-1.89,1.595c-0.859-0.095-1.708-0.287-2.568-0.364c-1.993-0.178-3.911-1.263-6,0.333
		C27.87-247.602,26.108-248.144,24.761-248.144z"/>
	<path fill="#092F47" d="M69.284-467.262c-2.45,1.948-2.991,4.847-5.167,6.552c-0.298,0.234-0.476,0.633-0.788,0.836
		c-0.616,0.4-1.208,1.226-2.029,0.721c-0.76-0.467-1.202-1.319-0.964-2.247c0.971-3.787-2.26-5.788-3.27-8.951
		c-1.279,0.938-0.879,1.883-0.793,2.626c0.186,1.624,0.523,3.235,0.881,4.832c0.49,2.188,0.067,4.211-0.998,6.12
		c-0.703,1.26-1.316,1.291-1.881-0.099c-1.751-4.313-5.255-7.308-7.974-10.89c-0.317-0.418-0.626-1.024-1.39-0.934
		c-0.832,0.47-0.369,1.232-0.182,1.747c0.357,0.986,0.788,2.025,1.462,2.804c2.704,3.124,2.179,6.786,1.881,10.408
		c-0.112,1.365-0.529,1.272-1.798,0.623c-2.207-1.129-2.884-3.124-3.653-5.195c-2.18-5.868-5.159-11.416-7.04-17.404
		c-0.509-1.619-1.285-3.202-1.167-5.194c2.044,0.787,3.542,2.166,5.253,3.16c3.386,1.968,7.12,2.772,10.857,3.684
		c3.438,0.84,6.862,1.808,10.048,3.417c2.318,1.171,4.588,2.442,7.257,2.673C68.182-467.941,68.512-467.649,69.284-467.262z"/>
	<path fill="#092F47" d="M43.791-211.543c-1.211,0.157-1.469,1.373-2.375,1.715c-0.16-0.081-0.417-0.127-0.449-0.237
		c-1.49-5.204,0.311-9.323,5.172-11.222c2.539-0.992,4.945-2.05,6.851-4.058c0.318-0.336,0.846-0.772,1.209-0.717
		c2.356,0.358,2.977-1.6,3.976-2.943c1.428-1.92,2.545-4.129,5.248-4.559c0.089-0.014,0.203-0.073,0.245-0.145
		c1.519-2.624,3.967-1.879,6.174-1.573c3.1,0.43,6.248,0.661,9.361,1.721c-4.591,2.428-9.024,4.964-12.876,8.377
		c-3.854,3.414-6.924,7.573-10.54,11.706c-1.656-3.372,0.163-6.571-1.004-9.437c-0.99-0.164-1.15,0.688-1.48,1.167
		c-1.913,2.78-3.53,5.713-4.564,8.957c-0.552,1.731-1.227,3.441-2.407,4.875c-0.298,0.362-0.655,0.74-1.212,0.504
		c-0.397-0.168-0.5-0.54-0.571-0.933C44.361-209.372,44.564-210.484,43.791-211.543z"/>
	<path fill="#092F47" d="M86.587-327.115c-0.474,1.358-1.481,1.581-2.287,1.994c-6.308,3.231-12.631,6.433-18.954,9.634
		c-0.854,0.432-1.772,0.712-1.674,2.004c0.199,2.632-2.278,2.073-3.595,2.857c-1.421,0.847-2.329-0.233-3.159-1.171
		c-0.775-0.876-1.036-1.902-0.181-2.857c2.081-2.324,3.77-5.21,7.451-5.338c0.647-0.022,1.472-0.186,1.698-0.84
		c0.354-1.021-1.152-0.848-1.32-2.004C71.515-325.767,78.505-328.654,86.587-327.115z"/>
	<path fill="#092F47" d="M-3.733-148.345c0.936-0.202,1.354,0.601,1.795,1.099c4.463,5.033,8.771,10.197,12.913,15.498
		c0.352,0.451,0.691,0.925,0.957,1.429c0.646,1.224,0.458,1.741-0.929,2.044c-1.205,0.264-2.398,0.476-4.087,1.463
		c2.458,0.251,3.754,1.689,5.528,2.177c1.06,0.292,1.866,1.005,2.533,1.838c1.137,1.42,0.926,2.111-0.704,3.008
		c-1.09,0.601-2.149,1.271-3.165,1.991c-1.202,0.851-1.925,0.463-2.371-0.786c-1.032-2.894-2.125-5.77-3.048-8.698
		c-1.647-5.23-3.421-10.403-6.227-15.148c-0.927-1.567-2.025-3.032-2.979-4.585C-3.724-147.355-4.107-147.799-3.733-148.345z"/>
	<path fill="#092F47" d="M67.096-447.194c-0.918-0.846-2.004-0.272-2.696-1.213c0.901-1.116,1.827-2.289,2.78-3.44
		c2.518-3.044,4.054-6.654,5.827-10.125c0.926-1.814,2.381-2.245,4.119-1.09c0.821,0.546,1.373,1.267,0.287,1.998
		c-1.237,0.834-1.635,2.11-2.016,3.377c-0.343,1.139-0.737,2.141-1.768,2.862c-0.918,0.642-1.329,1.665-1.301,2.762
		c0.065,2.578-0.76,4.953-1.805,7.205c-1.338,2.885-2.437,5.843-3.461,8.843c-0.626,1.835-1.515,2.447-3.371,2.502
		c-0.993,0.03-1.445-0.578-1.01-1.451c0.207-0.415,0.565-0.764,0.892-1.107c0.405-0.424,0.948-0.901,0.859-1.445
		c-0.405-2.464,0.917-4.636,1.055-6.985C65.555-445.673,66.035-446.48,67.096-447.194z"/>
	<path fill="#092F47" d="M5.079-470.573c1.462,0.17,1.89,3.993,4.063,0.932c0.062,0.353,0.185,0.707,0.177,1.058
		c-0.089,3.875,0.55,7.615,1.866,11.268c0.789,2.192-0.22,3.617-2.726,4.162c-2.142,0.466-3.53-0.484-3.727-2.793
		c-0.146-1.711-0.244-3.494,0.074-5.161c0.531-2.787,0.358-5.51-0.029-8.262C4.726-469.737,4.681-470.12,5.079-470.573z"/>
	<path fill="#092F47" d="M22.827-447.59c1.277-0.708,2.291-0.789,3.505-0.579c2.452,0.424,4.839,1.279,7.385,1.175
		c0.533-0.022,1.269,0.175,1.589,0.548c1.201,1.4,2.483,2.623,4.265,3.257c0.358,0.127,0.497,0.591,0.378,0.987
		c-0.128,0.429-0.538,0.527-0.921,0.539c-3.77,0.123-7.536,0.085-10.831-2.102C26.462-444.917,24.423-445.655,22.827-447.59z"/>
	<path fill="#092F47" d="M13.914-458.837c0.367-1.44,0.748-3.424,1.396-5.315c0.499-1.455,1.264-1.538,2.634-0.629
		c1.277,0.847,2.574,1.665,3.848,2.517c1.094,0.732,1.898,1.626,1.58,3.093c-0.337,1.555-1.49,1.87-2.831,1.836
		c-1.567-0.039-3.014,0.571-4.534,0.781C14.004-456.278,13.804-456.415,13.914-458.837z"/>
	<path fill="#092F47" d="M53.358-399.365c-0.776-4.412-1.56-8.797-2.308-13.189c-0.14-0.82,0.08-1.524,1.053-1.737
		c1.169-0.256,1.139,0.643,1.376,1.35c1.336,3.974,1.444,8.048,1.039,12.169C54.46-400.172,54.309-399.64,53.358-399.365z"/>
	<path fill="#092F47" d="M42.646-407.954c-1.367-1.232-1.616-2.972-2.113-4.572c-0.498-1.603-0.444-3.377-1.933-4.632
		c-0.647-0.545-0.297-1.259,0.614-1.364c1.857-0.215,3.855,1.383,4.226,3.313c0.288,1.5,0.714,2.972,0.606,4.535
		C43.97-409.59,43.822-408.603,42.646-407.954z"/>
	<path fill="#092F47" d="M58.984-429.753c-0.612,2.958-2.117,4.72-3.972,6.245c-0.631,0.519-1.175,0.762-1.969,0.033
		c-0.817-0.75-1.918-1.183-2.853-1.815c-0.612-0.414-0.628-1.042,0.064-1.306C53.044-427.66,55.869-428.636,58.984-429.753z"/>
	<path fill="#092F47" d="M26.697-468.414c-0.128,0.538-0.17,0.928-0.314,1.276c-0.31,0.749-0.311,1.869-1.391,1.898
		c-0.93,0.025-1.071-0.996-1.333-1.655c-0.46-1.155-1.036-2.227-1.694-3.277c-0.507-0.809-1.026-1.818,0.003-2.541
		c0.916-0.643,1.615,0.155,2.165,0.808C25.088-470.772,26.403-469.874,26.697-468.414z"/>
	<path fill="#092F47" d="M35.898-455.088c-1.183-1.675-2.616-1.739-3.966-1.951c-1.127-0.177-1.445-0.777-1.197-1.792
		c0.112-0.458,0.223-0.938,0.449-1.343c0.548-0.981,1.012-2.356,2.257-2.32c1.279,0.037,1.18,1.547,1.504,2.471
		C35.439-458.624,36.029-457.211,35.898-455.088z"/>
	<path fill="#092F47" d="M60.062-443.909c0-1.205,0.741-1.666,2.601-1.701c0.779-0.015,1.323,0.082,1.235,1.069
		c-0.155,1.749-1.207,3.497-2.102,3.401C60.699-441.258,60.062-442.275,60.062-443.909z"/>
	<path fill="#092F47" d="M26.139-123.369c-0.033,0.377,0.125,0.912-0.478,1.125c-0.415,0.147-0.774-0.058-1.031-0.332
		c-1.125-1.199-1.998-2.574-2.476-4.146c-0.234-0.77,0.318-1.05,0.993-0.864C24.678-127.164,26.147-125.085,26.139-123.369z"/>
	<path fill="#092F47" d="M54.866-306.47c-0.982,0.187-1.16-0.425-1.096-1.171c0.094-1.109-0.048-2.423,1.29-2.891
		c0.832-0.291,2.301,1.327,2.382,2.452C57.506-307.191,56.464-306.539,54.866-306.47z"/>
</g>
<g id="Layer_2" display="none">
	<path display="inline" fill="#FFFFFF" d="M-10.425-207.357c-1.416-1.251-1.382-2.737-1.729-4.103
		c-0.964-3.791-1.466-7.695-2.998-11.353c-0.542-1.293-0.579-2.811-0.76-4.237c-0.13-1.021-0.353-1.885-1.495-2.198
		c-1.003-0.275-1.422-0.936-1.138-1.967c0.505-1.831-0.208-3.406-1.048-4.943c-1.85-3.383-3.806-6.685-6.919-9.116
		c-0.89-0.695-1.196-1.646-0.326-2.479c3.049-2.921,3.831-7.048,5.62-10.616c1.49-2.972,2.227-6.327,3.243-9.53
		c1.009-3.182,0.705-6.48,0.793-9.746c0.043-1.597-0.327-3.27,0.523-4.78c1.232,0.038,1.695,1.015,2.163,1.778
		c2.264,3.689,5.176,6.952,7.113,10.855c0.25,0.504,0.628,0.988,1.056,1.354c4.722,4.033,9.278,8.328,14.887,11.13
		c2.426,1.212,3.716,2.808,3.85,5.516c0.07,1.424,0.521,2.828,0.773,4.245c0.112,0.632,0.378,1.301-0.33,2.001
		c-2.618-1.391-4.202-4.004-6.83-6.356c0.581,3.028,2.434,4.695,3.386,6.718c-0.282,0.266-0.452,0.524-0.543,0.498
		c-2.847-0.8-5.861-1.168-8.408-2.78c-1.355-0.858-2.778-1.364-4.309-1.487c-2.452-0.198-4.684-0.955-6.844-2.091
		c-1.068-0.562-2.132-1.383-3.43-0.963c-0.337,0.266-0.349,0.607-0.179,0.8c3.119,3.54,6.29,7.019,11.216,8.044
		c0.666,0.139,1.499,0.259,1.776,0.85c0.557,1.191,1.771,1.601,2.961,2.566c-3.114,1.325-5.348,3.38-7.757,5.189
		c-0.153,0.115-0.403,0.183-0.462,0.331c-1.254,3.165-4.386,3.712-6.963,5.035c-0.15,0.077-0.232,0.283-0.521,0.654
		c2.204,0.869,4.296,1.367,6.562,0.572c2.097-0.735,3.968-1.929,5.964-2.868c1.653-0.778,3.313-1.541,4.986-2.272
		c0.521-0.228,1.117-0.511,1.644-0.453c1.18,0.13,2.778-0.171,3.196,1.328c0.407,1.462-1.038,1.821-2.041,2.345
		c-0.854,0.446-1.77,0.848-1.863,2.16c2.21,0.171,4.168-1.526,7.031-1.102c-4.508,3.175-8.62,6.103-12.334,9.525
		C-4.668-215.842-7.276-211.432-10.425-207.357z"/>
	<path display="inline" fill="#FFFFFF" d="M32.531-15.855c0.524,0.123,0.707,0.193,0.895,0.206c1.968,0.137,1.914,0.126,1.601,2.095
		c-0.29,1.825-0.985,3.523-1.47,5.286c-0.221,0.804-0.641,1.51,0.347,2.28c0.776,0.605,0.227,1.596-0.073,2.414
		c-0.63,1.714-1.27,3.426-1.82,5.166c-0.179,0.565-0.493,1.449,0.693,1.403c1.07-0.041,1.075,0.699,0.918,1.342
		C33.282,5.736,32.806,7.1,32.391,8.48c-0.462,1.537-1.074,2.944-0.165,4.677c0.727,1.387-0.248,3-0.489,4.506
		c-0.166,1.039-0.559,2.041-0.797,3.071c-0.17,0.734-0.072,1.462,0.924,1.282c1.514-0.274,1.28,0.667,1.163,1.53
		c-0.249,1.832-1.08,3.493-1.579,5.251c-0.212,0.745-0.684,1.403,0.508,2.139c1.117,0.69,0.676,2.274,0.335,3.445
		c-0.162,0.558-0.778,0.345-1.203,0.045c-1.595-1.126-2.908-2.519-3.869-4.217c-1.069-1.889-2.407-3.468-4.575-4.105
		c-0.639-0.187-0.975-0.529-1.075-1.177c-0.311-2.013-1.828-3.094-3.367-4.044c-1.323-0.816-2.576-1.649-3.539-2.891
		c-1.168-1.506-2.928-2.154-4.558-2.934c-1.817-0.869-2.549-2.186-2.357-4.164C8.305,5.151,8.78-0.603,9.372-6.346
		c0.217-2.101,0.567-4.2,1.25-6.216c0.211-0.624,0.386-1.321,1.529-1.539c3.112,6.734,6.206,13.532,7.426,21.398
		c1.843-1.562,2.558-3.4,2.788-5.007c0.421-2.949,2.09-5.901,0.562-8.984c0.693-2.403-0.128-4.491-1.357-6.489
		c-0.698-1.136-1.299-2.362-2.615-2.954c-0.796-0.357-1.047-1.134-1.26-1.852c-0.278-0.935-0.361-1.937,0.412-2.723
		c0.795-0.809,1.757-0.668,2.69-0.286c1.425,0.583,2.833,1.206,4.247,1.814c0.461,0.198,0.989,0.361,1.333-0.07
		c0.448-0.561,0.042-1.205-0.327-1.527c-1.003-0.876-2.015-1.775-3.317-2.235c-1.001-0.354-1.978-0.771-2.745-1.541
		c0.165-1.028,1.041-1.322,1.771-1.763c1.729-1.044,3.51-2.012,5.168-3.159c1.15-0.795,2.393-1.64,2.551-3.26
		c-1.609-1.093-2.463,1.57-4.318,0.504c2.939-3.394,7.684-4.623,9.948-8.729c0.002-0.172-0.212-0.327-0.484-0.429
		c-2.024-0.756-2.149-0.841-1.127-2.449c4.144-6.519,8.554-12.83,15.005-17.358c0.841-0.59,1.613-1.414,2.78-1.268
		c0.478,0.332,0.238,0.682,0.059,1c-4.149,7.391-7.245,15.286-10.979,22.874c-1.189,2.416-2.576,4.735-3.862,7.104
		c-0.441,0.812-0.829,1.579,0.548,1.959c1.178,0.326,0.704,1.148,0.365,1.838c-1.571,3.2-3.033,6.447-4.24,9.804
		C32.947-17.265,32.771-16.622,32.531-15.855z"/>
	<path display="inline" fill="#FFFFFF" d="M44.898-266.512c3.112-0.148,5.667,1.109,8.31,1.869
		c5.684,1.635,10.821,4.411,15.631,7.82c0.314,0.223,0.61,0.564,0.957,0.634c4.255,0.848,7.122,3.993,10.526,6.257
		c1.23,0.818,2.394,1.926,4.186,1.471c0.736-0.187,1.358,0.577,1.905,1.119c0.818,0.81,1.605,1.654,2.461,2.421
		c0.632,0.566,1.315,1.407,2.205,1.167c1.725-0.467,2.718,0.681,3.873,1.467c1.509,1.028,2.915,2.163,4.86,2.36
		c1.313,0.133,2.095,1.296,3.066,2.064c1.503,1.188,2.851,2.614,5.087,2.248c0.931-0.153,1.12,0.548,0.824,1.338
		c-0.415,1.107-1.117,2.019-1.984,2.81c-0.436,0.398-0.889,0.429-1.187-0.104c-0.879-1.577-1.662-0.437-2.197,0.183
		c-0.936,1.085-1.643,2.364-2.511,3.513c-0.388,0.514-0.998,1.23-1.604,0.374c-0.894-1.263-1.419-0.602-1.861,0.249
		c-0.797,1.535-1.527,3.108-2.224,4.691c-0.198,0.449-0.5,1.227-0.775,1.061c-1.792-1.076-2.98,0.531-4.45,0.806
		c-0.994,0.186-1.844-0.855-1.801-1.534c0.156-2.504-1.75-3.215-3.299-4.236c-0.986-0.65-1.871-1.226-2.105-2.552
		c-0.241-1.361-1.507-1.895-2.573-2.551c-1.849-1.137-4.029-1.88-4.43-4.553c-0.135-0.897-1.29-1.36-2.131-1.82
		c-1.346-0.736-2.758-1.359-4.062-2.161c-1.041-0.641-2.54-0.959-1.845-2.959c0.27-0.778-1.012-1.542-1.75-2.138
		c-3.512-2.836-7.094-5.586-10.577-8.456c-3.356-2.765-6.295-5.944-8.862-9.46C45.881-264.044,45.17-264.948,44.898-266.512z"/>
	<path display="inline" fill="#FFFFFF" d="M15.275-133.345c-1.043,0.516-1.808,0.907-2.585,1.274
		c-0.854,0.403-1.629,0.648-1.736,1.948c-0.12,1.466-1.728,1.671-2.849,2.077c-1.067,0.386-1.903,0.572-1.786,2.075
		c0.094,1.205-1.179,1.624-2.069,2.168c-1.585,0.969-3.385,1.513-3.97,3.778c-0.337,1.304-2.052,1.935-3.187,2.815
		c-0.912,0.707-1.76,1.318-2.123,2.584c-0.425,1.478-1.974,2.006-3.2,2.74c-0.455,0.273-0.955,0.21-1.271-0.253
		c-0.222-0.326-0.281-0.792,0.033-1.062c1.702-1.464,1.268-3.279,0.865-5.075c-0.4-1.782-0.835-3.557-1.305-5.321
		c-0.338-1.267-1.111-2.521,0.402-3.613c0.411-0.296,0.191-0.905,0.098-1.368c-0.419-2.079-0.323-4.21-0.743-6.302
		c-0.413-2.059-0.539-4.141-0.055-6.288c0.444-1.969-0.053-4.004-0.454-5.991c-0.242-1.201-0.554-2.375,0.525-3.507
		c0.762-0.8,0.515-2.041,0.292-3.064c-0.634-2.916-1.09-5.762-0.737-8.833c0.217-1.894-0.376-3.986-0.401-6.008
		c-0.002-0.193-0.029-0.388-0.008-0.578c0.846-7.64-0.024-15.366,1.15-22.99c0.099-0.641-0.011-1.364,0.854-1.892
		c1.094,0.899,1.218,2.324,1.453,3.508c1.106,5.559,2.102,11.142,3.013,16.737c0.712,4.373,1.706,8.67,2.997,12.902
		c0.534,1.751,1.867,3.098,2.408,4.897c0.468,1.558,0.31,2.55-1.147,3.354c-5.567,3.073-7.054,8.535-8.201,14.177
		c-0.033,0.162,0.103,0.359,0.211,0.697c2.042-0.572,3.338-2.182,4.668-3.569c1.756-1.83,4.021-2.81,6.066-4.13
		c1.804-1.164,2.832-0.972,3.884,0.848c1.657,2.865,4.009,5.134,5.974,7.726C13.205-135.749,14.162-134.682,15.275-133.345z"/>
	<path display="inline" fill="#FFFFFF" d="M61.711-155.164c0.522,0.793,0.316,1.223,0.052,1.639
		c-3.876,6.105-6.605,12.817-10.093,19.127c-1.07,1.935-2.075,3.907-3.193,5.814c-1.014,1.73-2.375,3.279-1.917,5.551
		c0.158,0.784-0.603,1.399-1.063,1.973c-2.358,2.943-4.429,6.029-5.679,9.634c-0.546,1.575-1.918,2.634-2.878,3.955
		c-1.682,2.314-3.749,4.433-3.809,7.575c-0.016,0.845-0.736,1.294-1.216,1.891c-2.353,2.924-4.584,5.903-6.029,9.445
		c-1.018,2.495-3.493,3.654-5.819,5.391c-0.513-1.673-0.501-3.081-0.214-4.438c1.118-5.286,1.531-10.665,2.204-16.01
		c0.506-4.013,1.524-7.933,2.089-11.943c0.32-2.272,1.838-3.958,4.331-4.405c0.467-0.084,1.128-0.119,1.339-0.425
		c1.409-2.044,2.972-1.003,4.531-0.331c1.471,0.634,2.82,1.671,4.812,1.439c-0.4-1.6-1.554-2.48-2.545-3.383
		c-1.93-1.76-1.491-3.214,0.983-3.901c1.772-0.492,2.772-1.537,3.658-2.976c0.945-1.534,1.76-3.132,3.898-3.557
		c1.181-0.235,1.747-1.666,2.585-2.569c4.183-4.505,5.988-10.503,9.754-15.249C58.725-152.468,59.713-154.28,61.711-155.164z"/>
	<path display="inline" fill="#FFFFFF" d="M-0.631-84.021c-1.931,0.097-3.951-0.62-5.699,1.035
		c-0.782,0.741-2.149-0.046-2.318-1.228c-0.162-1.133-0.369-2.371-0.083-3.436c0.83-3.093,0.258-6.119-0.142-9.153
		c-0.133-1.008-0.258-1.84,0.561-2.639c0.667-0.649,0.539-1.545,0.517-2.434c-0.025-0.983,0.245-1.978,1.645-1.776
		c1.122,0.161,2.08-0.341,3.007-0.831c1.126-0.595,2.259-1.073,3.558-0.937c0.824,0.087,1.528-0.269,2.17-0.659
		c1.263-0.767,2.581-1.162,4.068-1.257c1.364-0.087,2.582-0.739,3.52-1.773c1.169-1.288,2.678-1.797,4.331-2.038
		c2.111-0.308,2.459-0.041,2.248,2.024c-0.284,2.772-0.454,5.577-1.032,8.292c-0.687,3.226-0.486,6.518-1.081,9.736
		c-0.331,1.793-0.651,3.592-0.854,5.402c-0.137,1.224-0.72,1.725-1.89,1.595c-0.859-0.095-1.708-0.287-2.568-0.364
		c-1.993-0.178-3.911-1.263-6,0.333C2.478-83.478,0.716-84.021-0.631-84.021z"/>
	<path display="inline" fill="#FEFEFE" d="M43.893-303.138c-2.45,1.948-2.991,4.847-5.167,6.552
		c-0.298,0.234-0.476,0.633-0.788,0.836c-0.616,0.4-1.208,1.226-2.029,0.721c-0.76-0.467-1.202-1.319-0.964-2.247
		c0.971-3.787-2.26-5.788-3.27-8.951c-1.279,0.938-0.879,1.883-0.793,2.626c0.186,1.624,0.523,3.235,0.881,4.832
		c0.49,2.188,0.067,4.211-0.998,6.12c-0.703,1.26-1.316,1.291-1.881-0.099c-1.751-4.313-5.255-7.308-7.974-10.89
		c-0.317-0.418-0.626-1.024-1.39-0.934c-0.832,0.47-0.369,1.232-0.182,1.747c0.357,0.986,0.788,2.025,1.462,2.804
		c2.704,3.124,2.179,6.786,1.881,10.408c-0.112,1.365-0.529,1.272-1.798,0.623c-2.207-1.129-2.884-3.124-3.653-5.195
		c-2.18-5.868-5.159-11.416-7.04-17.404c-0.509-1.619-1.285-3.202-1.167-5.194c2.044,0.787,3.542,2.166,5.253,3.16
		c3.386,1.968,7.12,2.772,10.857,3.684c3.438,0.84,6.862,1.808,10.048,3.417c2.318,1.171,4.588,2.442,7.257,2.673
		C42.79-303.817,43.12-303.525,43.893-303.138z"/>
	<path display="inline" fill="#FEFEFE" d="M18.399-47.419c-1.211,0.157-1.469,1.373-2.375,1.715
		c-0.16-0.081-0.417-0.127-0.449-0.237c-1.49-5.204,0.311-9.323,5.172-11.222c2.539-0.992,4.945-2.05,6.851-4.058
		c0.318-0.336,0.846-0.772,1.209-0.717c2.356,0.358,2.977-1.6,3.976-2.943c1.428-1.92,2.545-4.129,5.248-4.559
		c0.089-0.014,0.203-0.073,0.245-0.145c1.519-2.624,3.967-1.879,6.174-1.573c3.1,0.43,6.248,0.661,9.361,1.721
		c-4.591,2.428-9.024,4.964-12.877,8.377c-3.854,3.414-6.924,7.573-10.54,11.706c-1.656-3.372,0.163-6.571-1.004-9.437
		c-0.99-0.164-1.15,0.688-1.48,1.167c-1.913,2.78-3.53,5.713-4.564,8.957c-0.552,1.731-1.227,3.441-2.407,4.875
		c-0.298,0.362-0.655,0.74-1.212,0.504c-0.397-0.168-0.5-0.54-0.571-0.933C18.97-45.248,19.172-46.36,18.399-47.419z"/>
	<path display="inline" fill="#FDFDFD" d="M61.195-162.992c-0.474,1.358-1.481,1.581-2.287,1.994
		c-6.308,3.231-12.631,6.432-18.954,9.634c-0.854,0.432-1.772,0.712-1.674,2.004c0.199,2.632-2.278,2.072-3.595,2.857
		c-1.421,0.847-2.329-0.233-3.159-1.171c-0.775-0.876-1.036-1.902-0.181-2.857c2.081-2.324,3.77-5.21,7.451-5.338
		c0.647-0.022,1.472-0.186,1.698-0.84c0.354-1.021-1.152-0.848-1.32-2.004C46.123-161.644,53.114-164.531,61.195-162.992z"/>
	<path display="inline" fill="#FCFCFC" d="M-29.125,15.778c0.936-0.202,1.354,0.601,1.795,1.099
		c4.463,5.033,8.771,10.197,12.913,15.498c0.352,0.451,0.691,0.925,0.957,1.429c0.646,1.224,0.458,1.741-0.929,2.044
		c-1.205,0.264-2.398,0.476-4.087,1.463c2.458,0.251,3.754,1.689,5.528,2.177c1.06,0.292,1.866,1.005,2.533,1.838
		c1.137,1.42,0.926,2.111-0.704,3.008c-1.09,0.601-2.149,1.271-3.165,1.991c-1.202,0.851-1.925,0.463-2.371-0.786
		c-1.032-2.894-2.125-5.77-3.048-8.698c-1.647-5.23-3.421-10.403-6.227-15.148c-0.927-1.567-2.025-3.032-2.979-4.585
		C-29.116,16.769-29.499,16.325-29.125,15.778z"/>
	<path display="inline" fill="#FBFBFB" d="M41.704-283.071c-0.918-0.846-2.004-0.272-2.696-1.213c0.901-1.116,1.827-2.289,2.78-3.44
		c2.518-3.044,4.054-6.654,5.827-10.125c0.926-1.814,2.381-2.245,4.119-1.09c0.821,0.546,1.373,1.267,0.287,1.999
		c-1.237,0.834-1.635,2.11-2.016,3.376c-0.343,1.139-0.737,2.141-1.768,2.862c-0.918,0.642-1.329,1.665-1.301,2.762
		c0.065,2.578-0.76,4.953-1.805,7.205c-1.338,2.885-2.437,5.843-3.461,8.843c-0.626,1.835-1.515,2.447-3.371,2.502
		c-0.993,0.03-1.445-0.578-1.01-1.451c0.207-0.415,0.565-0.764,0.892-1.107c0.405-0.424,0.948-0.901,0.859-1.445
		c-0.405-2.464,0.917-4.636,1.055-6.985C40.163-281.549,40.643-282.357,41.704-283.071z"/>
	<path display="inline" fill="#FAFAFA" d="M-20.313-306.45c1.462,0.17,1.89,3.993,4.063,0.932c0.062,0.353,0.185,0.707,0.177,1.058
		c-0.089,3.875,0.55,7.615,1.866,11.268c0.789,2.192-0.22,3.617-2.726,4.162c-2.142,0.466-3.53-0.484-3.727-2.793
		c-0.146-1.711-0.244-3.493,0.074-5.161c0.531-2.787,0.358-5.51-0.029-8.262C-20.666-305.614-20.711-305.996-20.313-306.45z"/>
	<path display="inline" fill="#F8F8F8" d="M-2.565-283.466c1.277-0.708,2.291-0.789,3.505-0.579
		c2.452,0.424,4.839,1.279,7.385,1.175c0.533-0.022,1.269,0.175,1.589,0.548c1.201,1.4,2.483,2.623,4.265,3.257
		c0.358,0.127,0.497,0.591,0.378,0.987c-0.128,0.429-0.538,0.527-0.921,0.539c-3.77,0.123-7.536,0.085-10.831-2.102
		C1.071-280.794-0.969-281.531-2.565-283.466z"/>
	<path display="inline" fill="#FBFAFA" d="M-11.478-294.713c0.367-1.44,0.748-3.424,1.396-5.315
		c0.499-1.455,1.264-1.538,2.634-0.629c1.277,0.847,2.574,1.665,3.848,2.517c1.094,0.732,1.898,1.626,1.58,3.093
		c-0.337,1.555-1.49,1.87-2.831,1.836c-1.567-0.039-3.014,0.571-4.534,0.781C-11.388-292.154-11.588-292.292-11.478-294.713z"/>
	<path display="inline" fill="#F5F4F4" d="M27.966-235.241c-0.776-4.412-1.56-8.797-2.308-13.189c-0.14-0.82,0.08-1.524,1.053-1.737
		c1.169-0.256,1.139,0.642,1.376,1.35c1.336,3.974,1.444,8.048,1.039,12.169C29.068-236.048,28.917-235.516,27.966-235.241z"/>
	<path display="inline" fill="#F2F2F2" d="M17.254-243.83c-1.367-1.232-1.616-2.972-2.113-4.572
		c-0.498-1.603-0.444-3.377-1.933-4.632c-0.647-0.545-0.297-1.259,0.614-1.364c1.857-0.215,3.855,1.383,4.226,3.313
		c0.288,1.5,0.714,2.972,0.606,4.535C18.578-245.466,18.43-244.48,17.254-243.83z"/>
	<path display="inline" fill="#F6F5F5" d="M33.592-265.629c-0.612,2.958-2.117,4.72-3.972,6.245
		c-0.631,0.519-1.175,0.762-1.969,0.033c-0.817-0.75-1.918-1.183-2.853-1.815c-0.612-0.414-0.628-1.042,0.064-1.306
		C27.652-263.536,30.477-264.512,33.592-265.629z"/>
	<path display="inline" fill="#EEEDED" d="M1.305-304.29c-0.128,0.538-0.17,0.928-0.314,1.276c-0.31,0.749-0.311,1.869-1.391,1.898
		c-0.93,0.025-1.071-0.996-1.333-1.655c-0.46-1.155-1.036-2.227-1.694-3.277c-0.507-0.809-1.026-1.818,0.003-2.541
		c0.916-0.643,1.615,0.155,2.165,0.808C-0.303-306.649,1.011-305.75,1.305-304.29z"/>
	<path display="inline" fill="#EEEDED" d="M10.506-290.964c-1.183-1.675-2.616-1.739-3.966-1.951
		c-1.127-0.177-1.445-0.777-1.197-1.792c0.112-0.458,0.223-0.938,0.449-1.343c0.548-0.981,1.012-2.356,2.257-2.32
		c1.279,0.037,1.18,1.547,1.504,2.471C10.047-294.5,10.637-293.088,10.506-290.964z"/>
</g>
</svg>
